<svg height="512pt" viewBox="0 0 512 512.01337" width="512pt" xmlns="http://www.w3.org/2000/svg" id="fi_1815480"><path d="m503.472656 452.265625-.308594 28.515625c2.429688 11.925781-9.777343 22.683594-25.742187 22.683594h-442.828125c-15.964844 0-28.171875-10.757813-25.746094-22.683594l-.308594-28.515625zm0 0" fill="#ad1457"></path><path d="m477.445312 469.332031h-442.878906c-15.957031 0-28.160156-11.859375-25.683594-24.917969l26.707032-144.46875c3.132812-11.429687 13.859375-19.089843 25.6875-18.34375h389.460937c11.828125-.746093 22.554688 6.914063 25.683594 18.34375l26.710937 144.46875c2.472657 13.058594-9.726562 24.917969-25.6875 24.917969zm0 0" fill="#ad1457"></path><path d="m451.847656 469.332031h-417.28125c-15.957031 0-28.160156-11.859375-25.683594-24.917969l26.707032-144.46875c3.132812-11.429687 13.859375-19.089843 25.6875-18.34375h363.859375c11.828125-.746093 22.554687 6.914063 25.6875 18.34375l26.707031 144.46875c2.476562 13.058594-9.726562 24.917969-25.683594 24.917969zm0 0" fill="#e91e63"></path><path d="m76.808594 8.535156h358.398437c18.851563 0 34.132813 15.28125 34.132813 34.132813v204.796875c0 18.851562-15.28125 34.136718-34.132813 34.136718h-358.398437c-18.851563 0-34.132813-15.285156-34.132813-34.136718v-204.796875c0-18.851563 15.28125-34.132813 34.132813-34.132813zm0 0" fill="#bb193b"></path><path d="m76.808594 8.535156h332.796875c18.851562 0 34.136719 15.28125 34.136719 34.132813v204.796875c0 18.851562-15.285157 34.136718-34.136719 34.136718h-332.796875c-18.851563 0-34.132813-15.285156-34.132813-34.136718v-204.796875c0-18.851563 15.28125-34.132813 34.132813-34.132813zm0 0" fill="#ef314c"></path><path d="m401.074219 59.734375v170.664063c-.027344 9.414062-7.652344 17.039062-17.066407 17.066406h-256c-9.414062-.027344-17.039062-7.652344-17.066406-17.066406v-170.664063c.027344-9.414063 7.652344-17.039063 17.066406-17.066406h256c1.707032-.003907 3.40625.253906 5.035157.765625.785156.261718 1.558593.574218 2.304687.941406.765625.34375 1.503906.746094 2.21875 1.191406 1.351563.929688 2.558594 2.050782 3.582032 3.328125.511718.597657.9375 1.195313 1.367187 1.792969.445313.769531.847656 1.570312 1.191406 2.390625.894531 2.105469 1.359375 4.367187 1.367188 6.65625zm0 0" fill="#0377bc"></path><path d="m375.472656 59.734375v170.664063c-.027344 9.414062-7.652344 17.039062-17.066406 17.066406h-230.398438c-9.414062-.027344-17.039062-7.652344-17.066406-17.066406v-170.664063c.027344-9.414063 7.652344-17.039063 17.066406-17.066406h230.398438c1.707031-.003907 3.40625.253906 5.035156.765625.789063.261718 1.558594.574218 2.304688.941406.765625.34375 1.507812.746094 2.21875 1.191406 1.351562.929688 2.558594 2.050782 3.582031 3.328125.511719.597657.941406 1.195313 1.367187 1.792969.449219.769531.847657 1.570312 1.195313 2.390625.894531 2.105469 1.355469 4.367187 1.363281 6.65625zm0 0" fill="#02a9f4"></path><path d="m102.40625 341.332031c0 9.425781-7.640625 17.066407-17.066406 17.066407-9.425782 0-17.066406-7.640626-17.066406-17.066407s7.640624-17.066406 17.066406-17.066406c9.425781 0 17.066406 7.640625 17.066406 17.066406zm0 0" fill="#ad1457"></path><path d="m213.339844 136.691406c0 14.140625-11.460938 25.601563-25.597656 25.601563-14.140626 0-25.601563-11.460938-25.601563-25.601563 0-14.136718 11.460937-25.597656 25.601563-25.597656 14.136718 0 25.597656 11.460938 25.597656 25.597656zm0 0" fill="#2c3e50"></path><path d="m204.808594 136.535156c0 9.425782-7.640625 17.066406-17.066406 17.066406-9.425782 0-17.066407-7.640624-17.066407-17.066406 0-9.425781 7.640625-17.070312 17.066407-17.070312 9.425781 0 17.066406 7.644531 17.066406 17.070312zm0 0" fill="#fff"></path><path d="m349.875 136.691406c0 14.140625-11.460938 25.601563-25.601562 25.601563-14.136719 0-25.597657-11.460938-25.597657-25.601563 0-14.136718 11.460938-25.597656 25.597657-25.597656 14.140624 0 25.601562 11.460938 25.601562 25.597656zm0 0" fill="#2c3e50"></path><path d="m341.339844 136.535156c0 9.425782-7.640625 17.066406-17.066406 17.066406-9.425782 0-17.066407-7.640624-17.066407-17.066406 0-9.425781 7.640625-17.070312 17.066407-17.070312 9.425781 0 17.066406 7.644531 17.066406 17.070312zm0 0" fill="#fff"></path><path d="m290.140625 180.320312c0 13.519532-15.273437 24.480469-34.132813 24.480469-18.859374 0-34.132812-10.960937-34.132812-24.480469 0-1.152343.113281-2.300781.339844-3.429687.6875-2.375 2.347656-4.351563 4.574218-5.433594 2.222657-1.082031 4.800782-1.171875 7.09375-.246093 14.390626 4.609374 29.859376 4.609374 44.25 0 2.292969-.925782 4.875-.835938 7.097657.246093 2.222656 1.082031 3.886719 3.058594 4.570312 5.433594.226563 1.128906.339844 2.277344.339844 3.429687zm0 0" fill="#37474f"></path><path d="m211.335938 95.617188c-11.378907-1.726563-22.984376-1.269532-34.191407 1.355468-11.339843 3.039063-21.957031 8.320313-31.21875 15.535156l-.097656.074219c-.992187.722657-2.324219.78125-3.378906.148438-1.054688-.632813-1.628907-1.835938-1.457031-3.050781 3.191406-15.816407 15.167968-28.402344 30.804687-32.382813 15.484375-4.847656 32.382813-.453125 43.542969 11.324219 1.128906 1.34375 1.328125 3.238281.5 4.789062-.828125 1.546875-2.519532 2.429688-4.261719 2.234375zm0 0" fill="#2c3e50"></path><path d="m296.671875 88.625c11.160156-11.78125 28.054687-16.175781 43.542969-11.324219 15.636718 3.976563 27.609375 16.5625 30.804687 32.378907.167969 1.214843-.40625 2.414062-1.457031 3.046874-1.050781.628907-2.378906.574219-3.375-.144531l-.105469-.078125c-9.257812-7.214844-19.875-12.496094-31.210937-15.535156-11.210938-2.621094-22.816406-3.082031-34.195313-1.355469l-.230469.027344c-1.746093.203125-3.4375-.679687-4.269531-2.226563-.832031-1.550781-.636719-3.449218.496094-4.792968zm0 0" fill="#2c3e50"></path><path d="m383.921875 425.472656c.277344 2.550782-.574219 5.09375-2.328125 6.960938-1.757812 1.871094-4.242188 2.882812-6.800781 2.765625h-237.570313c-2.5625.117187-5.046875-.894531-6.800781-2.765625-1.753906-1.867188-2.605469-4.410156-2.328125-6.960938l15.871094-102.402344c.816406-4.363281 4.695312-7.476562 9.128906-7.335937h205.824219c4.4375-.140625 8.3125 2.972656 9.132812 7.335937zm0 0" fill="#0377bc"></path><path d="m358.320312 425.472656c.277344 2.550782-.574218 5.09375-2.328124 6.960938-1.753907 1.871094-4.238282 2.882812-6.800782 2.765625h-211.96875c-2.5625.117187-5.046875-.894531-6.800781-2.765625-1.753906-1.867188-2.605469-4.410156-2.328125-6.960938l15.871094-102.402344c.816406-4.363281 4.695312-7.476562 9.128906-7.335937h180.226562c4.4375-.140625 8.3125 2.972656 9.128907 7.335937zm0 0" fill="#02a9f4"></path><path d="m477.425781 477.867188h-442.835937c-10.699219.15625-20.929688-4.382813-27.988282-12.425782-5.359374-6.222656-7.617187-14.535156-6.144531-22.613281l26.710938-144.410156c3.828125-15.542969 18.152343-26.179688 34.140625-25.351563h389.398437c15.984375-.824218 30.304688 9.808594 34.132813 25.351563l26.710937 144.40625c1.472657 8.078125-.785156 16.390625-6.144531 22.613281-7.058594 8.042969-17.285156 12.585938-27.980469 12.429688zm-416.117187-187.734376c-7.726563-.6875-14.910156 4.027344-17.355469 11.382813l-26.707031 144.410156c-.523438 3.09375.386718 6.257813 2.472656 8.597657 3.804688 4.160156 9.238281 6.453124 14.871094 6.277343h442.835937c5.632813.175781 11.0625-2.117187 14.867188-6.277343 2.089843-2.339844 3.003906-5.503907 2.480469-8.597657l-26.714844-144.410156c-2.445313-7.355469-9.628906-12.070313-17.351563-11.382813zm0 0"></path><path d="m256.007812 512h-221.417968c-10.972656.292969-21.511719-4.28125-28.785156-12.5-4.570313-5.371094-6.574219-12.464844-5.496094-19.433594l-.3007815-27.707031c-.0234375-2.265625.8515625-4.445313 2.4335935-6.0625 1.582032-1.617187 3.746094-2.539063 6.007813-2.5625 2.277343-.074219 4.484375.785156 6.113281 2.378906s2.535156 3.785157 2.511719 6.0625l.308593 28.515625c.003907.601563-.050781 1.203125-.171874 1.792969-.402344 2.242187.265624 4.539063 1.808593 6.214844 4.046875 4.226562 9.722657 6.5 15.570313 6.234375h221.417968c4.710938 0 8.53125 3.820312 8.53125 8.53125 0 4.714844-3.820312 8.535156-8.53125 8.535156zm0 0"></path><path d="m477.425781 512h-221.417969c-4.714843 0-8.535156-3.820312-8.535156-8.535156 0-4.710938 3.820313-8.53125 8.535156-8.53125h221.417969c5.84375.265625 11.519531-2.003906 15.570313-6.230469 1.539062-1.675781 2.210937-3.976563 1.808594-6.214844-.121094-.589843-.179688-1.191406-.171876-1.792969l.308594-28.519531c.050782-4.675781 3.855469-8.441406 8.53125-8.441406h.09375c2.261719.023437 4.421875.945313 6.007813 2.5625 1.582031 1.617187 2.457031 3.796875 2.433593 6.0625l-.300781 27.707031c1.078125 6.96875-.925781 14.0625-5.496093 19.433594-7.277344 8.21875-17.816407 12.792969-28.785157 12.5zm0 0"></path><path d="m435.207031 290.132812h-358.398437c-23.554688-.027343-42.640625-19.113281-42.667969-42.667968v-204.796875c.027344-23.554688 19.113281-42.6406252 42.667969-42.667969h358.398437c23.554688.0273438 42.640625 19.113281 42.667969 42.667969v204.796875c-.027344 23.554687-19.113281 42.640625-42.667969 42.667968zm-358.398437-273.066406c-14.132813.015625-25.585938 11.46875-25.601563 25.601563v204.796875c.015625 14.132812 11.46875 25.585937 25.601563 25.601562h358.398437c14.132813-.015625 25.585938-11.46875 25.601563-25.601562v-204.796875c-.015625-14.132813-11.46875-25.585938-25.601563-25.601563zm0 0"></path><path d="m374.761719 443.734375h-237.507813c-5.265625.03125-10.28125-2.238281-13.730468-6.21875-3.175782-3.679687-4.582032-8.5625-3.855469-13.367187l15.847656-102.398438c1.4375-8.542969 8.921875-14.734375 17.578125-14.550781h205.824219c8.660156-.183594 16.144531 6.011719 17.578125 14.550781l15.847656 102.398438c.730469 4.804687-.679688 9.6875-3.855469 13.367187-3.445312 3.980469-8.460937 6.25-13.726562 6.21875zm-221.667969-119.46875-16.554688 102.5 238.222657-.097656-15.128907-102.300781-.714843-.101563zm0 0"></path><path d="m443.742188 349.867188c0 4.710937-3.820313 8.53125-8.535157 8.53125-4.710937 0-8.53125-3.820313-8.53125-8.53125 0-4.714844 3.820313-8.535157 8.53125-8.535157 4.714844 0 8.535157 3.820313 8.535157 8.535157zm0 0"></path><path d="m426.675781 366.933594c0 4.710937-3.824219 8.53125-8.535156 8.53125-4.714844 0-8.535156-3.820313-8.535156-8.53125 0-4.714844 3.820312-8.535156 8.535156-8.535156 4.710937 0 8.535156 3.820312 8.535156 8.535156zm0 0"></path><path d="m443.742188 384c0 4.710938-3.820313 8.535156-8.535157 8.535156-4.710937 0-8.53125-3.824218-8.53125-8.535156s3.820313-8.535156 8.53125-8.535156c4.714844 0 8.535157 3.824218 8.535157 8.535156zm0 0"></path><path d="m460.808594 366.933594c0 4.710937-3.820313 8.53125-8.535156 8.53125-4.710938 0-8.53125-3.820313-8.53125-8.53125 0-4.714844 3.820312-8.535156 8.53125-8.535156 4.714843 0 8.535156 3.820312 8.535156 8.535156zm0 0"></path><path d="m384.007812 256h-256c-14.132812-.015625-25.585937-11.46875-25.601562-25.601562v-170.664063c.015625-14.132813 11.46875-25.585937 25.601562-25.601563h256c14.132813.015626 25.582032 11.46875 25.597657 25.601563v170.664063c-.015625 14.132812-11.464844 25.585937-25.597657 25.601562zm-256-204.800781c-4.710937.003906-8.53125 3.824219-8.535156 8.535156v170.664063c.003906 4.710937 3.824219 8.53125 8.535156 8.535156h256c4.710938-.003906 8.527344-3.824219 8.53125-8.535156v-170.664063c-.003906-4.710937-3.820312-8.53125-8.53125-8.535156zm0 0"></path><path d="m85.339844 366.933594c-14.136719 0-25.597656-11.460938-25.597656-25.601563 0-14.136719 11.460937-25.597656 25.597656-25.597656 14.140625 0 25.601562 11.460937 25.601562 25.597656-.015625 14.132813-11.46875 25.585938-25.601562 25.601563zm0-34.132813c-4.710938 0-8.53125 3.820313-8.53125 8.53125 0 4.714844 3.820312 8.535157 8.53125 8.535157 4.714844 0 8.535156-3.820313 8.535156-8.535157-.003906-4.710937-3.824219-8.527343-8.535156-8.53125zm0 0"></path><path d="m187.742188 162.292969c-10.355469 0-19.691407-6.238281-23.652344-15.804688-3.964844-9.566406-1.773438-20.578125 5.546875-27.898437 7.324219-7.320313 18.335937-9.511719 27.902343-5.550782 9.5625 3.964844 15.800782 13.296876 15.800782 23.652344-.015625 14.132813-11.46875 25.585938-25.597656 25.601563zm0-34.132813c-4.714844 0-8.535157 3.820313-8.535157 8.53125 0 4.714844 3.820313 8.535156 8.535157 8.535156 4.710937 0 8.53125-3.820312 8.53125-8.535156-.003907-4.710937-3.820313-8.527344-8.53125-8.53125zm0 0"></path><path d="m324.273438 162.292969c-14.136719 0-25.597657-11.460938-25.597657-25.601563 0-14.136718 11.460938-25.597656 25.597657-25.597656 14.140624 0 25.601562 11.460938 25.601562 25.597656-.015625 14.132813-11.46875 25.585938-25.601562 25.601563zm0-34.132813c-4.710938 0-8.53125 3.820313-8.53125 8.53125 0 4.714844 3.820312 8.535156 8.53125 8.535156 4.714843 0 8.535156-3.820312 8.535156-8.535156-.003906-4.710937-3.824219-8.527344-8.535156-8.53125zm0 0"></path><path d="m256.007812 213.332031c-23.925781 0-42.667968-14.5-42.667968-33.015625 0-1.707031.167968-3.410156.5-5.082031.949218-4.558594 3.828125-8.480469 7.886718-10.753906 4.5625-2.585938 10.023438-3.070313 14.96875-1.324219 12.585938 3.890625 26.054688 3.886719 38.640626-.007812 4.941406-1.742188 10.394531-1.253907 14.949218 1.332031 4.058594 2.269531 6.933594 6.183593 7.882813 10.734375.335937 1.679687.503906 3.390625.507812 5.101562 0 18.515625-18.742187 33.015625-42.667969 33.015625zm-25.535156-34.113281c-.042968.363281-.0625.730469-.066406 1.097656 0 8.640625 11.726562 15.949219 25.601562 15.949219s25.597657-7.308594 25.597657-15.949219c0-.367187-.023438-.734375-.066407-1.097656-.199218-.042969-.40625-.023438-.597656.054688-16.222656 5.128906-33.632812 5.132812-49.855468.011718-.195313-.078125-.40625-.101562-.613282-.066406zm0 0"></path><path d="m211.335938 95.617188c-11.378907-1.726563-22.984376-1.269532-34.191407 1.355468-11.339843 3.039063-21.957031 8.320313-31.21875 15.535156l-.097656.074219c-.992187.722657-2.324219.78125-3.378906.148438-1.054688-.632813-1.628907-1.835938-1.457031-3.050781 3.191406-15.816407 15.167968-28.402344 30.804687-32.382813 15.484375-4.847656 32.382813-.453125 43.542969 11.324219 1.128906 1.34375 1.328125 3.238281.5 4.789062-.828125 1.546875-2.519532 2.429688-4.261719 2.234375zm0 0"></path><path d="m296.671875 88.625c11.160156-11.78125 28.054687-16.175781 43.542969-11.324219 15.636718 3.976563 27.609375 16.5625 30.804687 32.378907.167969 1.214843-.40625 2.414062-1.457031 3.046874-1.050781.628907-2.378906.574219-3.375-.144531l-.105469-.078125c-9.257812-7.214844-19.875-12.496094-31.210937-15.535156-11.210938-2.621094-22.816406-3.082031-34.195313-1.355469l-.230469.027344c-1.746093.203125-3.4375-.679687-4.269531-2.226563-.832031-1.550781-.636719-3.449218.496094-4.792968zm0 0"></path><path d="m179.207031 375.464844c-3.449219 0-6.5625-2.078125-7.882812-5.265625-1.320313-3.1875-.589844-6.859375 1.851562-9.300781l17.066407-17.066407c3.347656-3.230469 8.667968-3.1875 11.960937.105469s3.335937 8.613281.105469 11.960938l-17.066406 17.066406c-1.601563 1.605468-3.769532 2.503906-6.035157 2.5zm0 0"></path><path d="m196.273438 409.601562c-3.449219-.003906-6.5625-2.082031-7.882813-5.269531s-.589844-6.859375 1.851563-9.296875l51.199218-51.203125c3.347656-3.230469 8.671875-3.1875 11.960938.105469 3.292968 3.292969 3.339844 8.613281.105468 11.960938l-51.199218 51.203124c-1.601563 1.601563-3.769532 2.5-6.035156 2.5zm0 0"></path></svg>