<svg id="fi_13587615" viewBox="0 0 64 64" xmlns="http://www.w3.org/2000/svg" data-name="Layer 2"><g fill="#506070"><path d="m57.79 5.77h-51.6a2.7 2.7 0 0 0 -2.7 2.7v35.61a2.68 2.68 0 0 0 1 2.09 3 3 0 0 0 .37.25 3.17 3.17 0 0 0 .42.19l.24.08h.2a2.42 2.42 0 0 0 .47 0 75.42 75.42 0 0 0 13-1.54 73.09 73.09 0 0 1 12.81-1.45 73.47 73.47 0 0 1 12.77 1.52 74.68 74.68 0 0 0 13 1.55 2.42 2.42 0 0 0 .47 0h.2a3.61 3.61 0 0 0 .46-.17l.2-.1a2.4 2.4 0 0 0 .37-.25 2.68 2.68 0 0 0 1-2.09v-35.69a2.7 2.7 0 0 0 -2.68-2.7zm1.7 38.31a1.7 1.7 0 0 1 -1.7 1.69 74.27 74.27 0 0 1 -12.87-1.53 73.88 73.88 0 0 0 -12.92-1.54 74.44 74.44 0 0 0 -13 1.54 74 74 0 0 1 -12.81 1.53 1.7 1.7 0 0 1 -1.7-1.69v-35.61a1.7 1.7 0 0 1 1.7-1.7h51.6a1.7 1.7 0 0 1 1.7 1.7z"></path><path d="m60.49 44.08v10.24a2.7 2.7 0 0 1 -2.7 2.68h-5.79v-1h5.8a1.7 1.7 0 0 0 1.7-1.69v-8.14a2.4 2.4 0 0 1 -.37.25l-.2.1a3.61 3.61 0 0 1 -.46.17h-.2a2.42 2.42 0 0 1 -.47 0 74.68 74.68 0 0 1 -13-1.55 73.47 73.47 0 0 0 -12.8-1.44 73.09 73.09 0 0 0 -12.81 1.53 75.42 75.42 0 0 1 -13 1.54 2.42 2.42 0 0 1 -.47 0h-.2l-.24-.08a3.17 3.17 0 0 1 -.42-.19 3 3 0 0 1 -.37-.25v8.15a1.7 1.7 0 0 0 1.7 1.6h5.81v1h-5.81a2.7 2.7 0 0 1 -2.7-2.69v-10.23h1a1.7 1.7 0 0 0 1.7 1.69 74 74 0 0 0 12.81-1.53 74.44 74.44 0 0 1 13-1.54 73.88 73.88 0 0 1 12.94 1.54 74.27 74.27 0 0 0 12.87 1.53 1.7 1.7 0 0 0 1.7-1.69z"></path><path d="m44.88 15.06a9.6 9.6 0 0 0 -.59-.83 15.48 15.48 0 0 0 -24.69.14c-.21.28-.41.57-.59.86a15.33 15.33 0 0 0 -2.51 8.43 15.51 15.51 0 0 0 13.5 15.34c.42.06.85.1 1.28.12h.75.75c.43 0 .86-.06 1.28-.12a15.51 15.51 0 0 0 13.44-15.34 15.32 15.32 0 0 0 -2.62-8.6zm-10.11 22.83c-.43.09-.87.15-1.32.2a15.05 15.05 0 0 1 -2.9 0c-.45-.05-.89-.11-1.32-.2a14.5 14.5 0 1 1 5.54 0z"></path><path d="m53.66 5.77-.95 1-7.83 8.29-.34.36-.72-.69.47-.5 7.05-7.46h-37.8l6.06 7.6.46.58-.78.62-.27-.34-6.75-8.46-.8-1z"></path><path d="m36.32 35.09a.51.51 0 0 0 -.44-.26h-7.76a.51.51 0 0 0 -.44.26.49.49 0 0 0 0 .51l1.52 2.29.8 1.11 1.61 2.44a.51.51 0 0 0 .84 0l1.55-2.44.74-1.13 1.52-2.29a.49.49 0 0 0 .06-.49zm-2.87 3-.7 1-.75 1.19-.75-1.14-.7-1-1.5-2.26h5.95z"></path><path d="m11.49 49v9h41v-9zm40 8h-39v-7h39z"></path><path d="m17 51.6v2.06a1.94 1.94 0 0 0 1.94 1.94h2.12a1.94 1.94 0 0 0 1.94-1.94v-2.06zm5 2.06a.94.94 0 0 1 -.94.94h-2.12a.94.94 0 0 1 -.94-.94v-1.06h4z"></path><path d="m25 51.6v2.06a1.94 1.94 0 0 0 1.94 1.94h2.12a1.94 1.94 0 0 0 1.94-1.94v-2.06zm5 2.06a.94.94 0 0 1 -.94.94h-2.12a.94.94 0 0 1 -.94-.94v-1.06h4z"></path><path d="m28.49 44.77v3h7v-3zm6 2h-5v-1h5z"></path><path d="m33 51.6v2.06a1.94 1.94 0 0 0 1.94 1.94h2.12a1.94 1.94 0 0 0 1.94-1.94v-2.06zm5 2.06a.94.94 0 0 1 -.94.94h-2.12a.94.94 0 0 1 -.94-.94v-1.06h4z"></path><path d="m41 51.6v2.06a1.94 1.94 0 0 0 1.94 1.94h2.12a1.94 1.94 0 0 0 1.94-1.94v-2.06zm5 2.06a.94.94 0 0 1 -.94.94h-2.12a.94.94 0 0 1 -.94-.94v-1.06h4z"></path><path d="m52 34.25a4 4 0 1 0 4 4 4 4 0 0 0 -4-4zm0 7a3 3 0 1 1 3-3 3 3 0 0 1 -3 3z"></path><path d="m31.5 12.45a3 3 0 1 0 3 3 3 3 0 0 0 -3-3zm0 5a2 2 0 1 1 2-2 2 2 0 0 1 -2 2z"></path><path d="m12 34.25a4 4 0 1 0 4 4 4 4 0 0 0 -4-4zm0 7a3 3 0 1 1 3-3 3 3 0 0 1 -3 3z"></path><path d="m28.12 19.3h6.87v1h-6.87z"></path><path d="m57.79 5.77h-51.6a2.7 2.7 0 0 0 -2.7 2.7v35.61a2.68 2.68 0 0 0 1 2.09 3 3 0 0 0 .37.25 3.17 3.17 0 0 0 .42.19l.24.08h.2a2.42 2.42 0 0 0 .47 0 75.42 75.42 0 0 0 13-1.54 73.09 73.09 0 0 1 12.81-1.45 73.47 73.47 0 0 1 12.77 1.52 74.68 74.68 0 0 0 13 1.55 2.42 2.42 0 0 0 .47 0h.2a3.61 3.61 0 0 0 .46-.17l.2-.1a2.4 2.4 0 0 0 .37-.25 2.68 2.68 0 0 0 1-2.09v-35.69a2.7 2.7 0 0 0 -2.68-2.7zm1.7 38.31a1.7 1.7 0 0 1 -1.7 1.69 74.27 74.27 0 0 1 -12.87-1.53 73.88 73.88 0 0 0 -12.92-1.54 74.44 74.44 0 0 0 -13 1.54 74 74 0 0 1 -12.81 1.53 1.7 1.7 0 0 1 -1.7-1.69v-35.61a1.7 1.7 0 0 1 1.7-1.7h51.6a1.7 1.7 0 0 1 1.7 1.7z"></path></g><path d="m51.34 6.77-7.05 7.46a15.48 15.48 0 0 0 -24.69.14l-6.06-7.6z" fill="#fff"></path><path d="m57.79 6.77h-5.08l-7.83 8.29a15.32 15.32 0 0 1 2.62 8.6 15.51 15.51 0 0 1 -13.5 15.34l-1.61 2.44a.51.51 0 0 1 -.84 0l-1.55-2.44a15.51 15.51 0 0 1 -13.5-15.34 15.33 15.33 0 0 1 2.5-8.43l-6.74-8.46h-6.07a1.7 1.7 0 0 0 -1.7 1.7v35.61a1.7 1.7 0 0 0 1.7 1.69 74 74 0 0 0 12.81-1.53 74.44 74.44 0 0 1 13-1.54 73.88 73.88 0 0 1 12.94 1.54 74.27 74.27 0 0 0 12.87 1.53 1.7 1.7 0 0 0 1.7-1.69v-35.61a1.7 1.7 0 0 0 -1.72-1.7z" fill="#fff"></path><circle cx="51.99" cy="38.25" fill="#fff" r="4"></circle><path d="m60.49 44.08v10.24a2.7 2.7 0 0 1 -2.7 2.68h-5.79v-1h5.8a1.7 1.7 0 0 0 1.7-1.69v-8.14a2.4 2.4 0 0 1 -.37.25l-.2.1a3.61 3.61 0 0 1 -.46.17h-.2a2.42 2.42 0 0 1 -.47 0 74.68 74.68 0 0 1 -13-1.55 73.47 73.47 0 0 0 -12.8-1.44 73.09 73.09 0 0 0 -12.81 1.53 75.42 75.42 0 0 1 -13 1.54 2.42 2.42 0 0 1 -.47 0h-.2l-.24-.08a3.17 3.17 0 0 1 -.42-.19 3 3 0 0 1 -.37-.25v8.15a1.7 1.7 0 0 0 1.7 1.6h5.81v1h-5.81a2.7 2.7 0 0 1 -2.7-2.69v-10.23h1a1.7 1.7 0 0 0 1.7 1.69 74 74 0 0 0 12.81-1.53 74.44 74.44 0 0 1 13-1.54 73.88 73.88 0 0 1 12.94 1.54 74.27 74.27 0 0 0 12.87 1.53 1.7 1.7 0 0 0 1.7-1.69z" fill="#506070"></path><path d="m32 9.16a14.5 14.5 0 0 0 -2.77 28.73c.43.09.87.15 1.32.2a15.05 15.05 0 0 0 2.9 0c.45-.05.89-.11 1.32-.2a14.5 14.5 0 0 0 -2.77-28.73zm-.5 3.29a3 3 0 1 1 -3 3 3 3 0 0 1 3-3zm3.5 7.85h-6.88v-1h6.88z" fill="#fff"></path><path d="m53.66 5.77-.95 1-7.83 8.29-.34.36-.72-.69.47-.5 7.05-7.46h-37.8l6.06 7.6.46.58-.78.62-.27-.34-6.75-8.46-.8-1z" fill="#506070"></path><path d="m36.32 35.09a.51.51 0 0 0 -.44-.26h-7.76a.51.51 0 0 0 -.44.26.49.49 0 0 0 0 .51l1.52 2.29.8 1.11 1.61 2.44a.51.51 0 0 0 .84 0l1.55-2.44.74-1.13 1.52-2.29a.49.49 0 0 0 .06-.49zm-2.87 3-.7 1-.75 1.19-.75-1.14-.7-1-1.5-2.26h5.95z" fill="#506070"></path><path d="m34.95 35.83-1.5 2.26-.7 1.05-.75 1.14-.75-1.14-.7-1.05-1.5-2.26z" fill="#c1d2e4"></path><path d="m11.49 49v9h41v-9zm40 8h-39v-7h39z" fill="#506070"></path><path d="m12.49 50v7h39v-7zm10.51 3.66a1.94 1.94 0 0 1 -1.94 1.94h-2.12a1.94 1.94 0 0 1 -1.94-1.94v-2.06h6zm8 0a1.94 1.94 0 0 1 -1.94 1.94h-2.12a1.94 1.94 0 0 1 -1.94-1.94v-2.06h6zm8 0a1.94 1.94 0 0 1 -1.94 1.94h-2.12a1.94 1.94 0 0 1 -1.94-1.94v-2.06h6zm8 0a1.94 1.94 0 0 1 -1.94 1.94h-2.12a1.94 1.94 0 0 1 -1.94-1.94v-2.06h6z" fill="#758696"></path><path d="m17 51.6v2.06a1.94 1.94 0 0 0 1.94 1.94h2.12a1.94 1.94 0 0 0 1.94-1.94v-2.06zm5 2.06a.94.94 0 0 1 -.94.94h-2.12a.94.94 0 0 1 -.94-.94v-1.06h4z" fill="#506070"></path><path d="m25 51.6v2.06a1.94 1.94 0 0 0 1.94 1.94h2.12a1.94 1.94 0 0 0 1.94-1.94v-2.06zm5 2.06a.94.94 0 0 1 -.94.94h-2.12a.94.94 0 0 1 -.94-.94v-1.06h4z" fill="#506070"></path><path d="m28.49 44.77v3h7v-3zm6 2h-5v-1h5z" fill="#506070"></path><path d="m59.12 46.42-.2.1a3.61 3.61 0 0 1 -.46.17h-.2a2.42 2.42 0 0 1 -.47 0 74.68 74.68 0 0 1 -13-1.55 73.47 73.47 0 0 0 -12.79-1.44 73.09 73.09 0 0 0 -12.81 1.53 75.42 75.42 0 0 1 -13 1.54 2.42 2.42 0 0 1 -.47 0h-.2l-.24-.08a2 2 0 0 1 -.42-.19 3 3 0 0 1 -.37-.25v8.15a1.7 1.7 0 0 0 1.7 1.6h5.3v-7h41v7h5.3a1.7 1.7 0 0 0 1.7-1.69v-8.14a2.4 2.4 0 0 1 -.37.25zm-23.63 1.35h-7v-3h7z" fill="#c1d2e4"></path><path d="m33 51.6v2.06a1.94 1.94 0 0 0 1.94 1.94h2.12a1.94 1.94 0 0 0 1.94-1.94v-2.06zm5 2.06a.94.94 0 0 1 -.94.94h-2.12a.94.94 0 0 1 -.94-.94v-1.06h4z" fill="#506070"></path><path d="m41 51.6v2.06a1.94 1.94 0 0 0 1.94 1.94h2.12a1.94 1.94 0 0 0 1.94-1.94v-2.06zm5 2.06a.94.94 0 0 1 -.94.94h-2.12a.94.94 0 0 1 -.94-.94v-1.06h4z" fill="#506070"></path><circle cx="51.99" cy="38.25" fill="#c1d2e4" r="3"></circle><path d="m31.5 12.45a3 3 0 1 0 3 3 3 3 0 0 0 -3-3zm0 5a2 2 0 1 1 2-2 2 2 0 0 1 -2 2z" fill="#dd3624"></path><circle cx="11.99" cy="38.25" fill="#c1d2e4" r="3"></circle><path d="m28.12 19.3h6.87v1h-6.87z" fill="#c1d2e4"></path><path d="m44.88 15.06a9.6 9.6 0 0 0 -.59-.83 15.48 15.48 0 0 0 -24.69.14c-.21.28-.41.57-.59.86a15.33 15.33 0 0 0 -2.51 8.43 15.51 15.51 0 0 0 13.5 15.34c.42.06.85.1 1.28.12h.75.75c.43 0 .86-.06 1.28-.12a15.51 15.51 0 0 0 13.44-15.34 15.32 15.32 0 0 0 -2.62-8.6zm-10.11 22.83c-.43.09-.87.15-1.32.2a15.05 15.05 0 0 1 -2.9 0c-.45-.05-.89-.11-1.32-.2a14.5 14.5 0 1 1 5.54 0z" fill="#506070"></path></svg>