<svg id="fi_13587850" viewBox="0 0 64 64" xmlns="http://www.w3.org/2000/svg" data-name="Layer 2"><g fill="#31409f"><path d="m9.76 3.5v39.24h44.7v-39.24zm1 38.24v-37.24h42.7v37.24z"></path><path d="m9.75 41.74v18.76h44.71v-18.76zm43.71 17.76h-42.71v-16.76h42.71z"></path><path d="m31.94 14.15a9.25 9.25 0 1 0 9.24 9.24 9.25 9.25 0 0 0 -9.24-9.24zm0 17.49a8.25 8.25 0 1 1 8.24-8.25 8.25 8.25 0 0 1 -8.24 8.25z"></path><path d="m19 8.74a2.52 2.52 0 0 0 -1 0 3.22 3.22 0 0 0 0 6.36 2.52 2.52 0 0 0 1 0 3.22 3.22 0 0 0 0-6.36zm-.5 5.41a2.23 2.23 0 1 1 2.23-2.23 2.23 2.23 0 0 1 -2.28 2.23z"></path><path d="m18.45 33.28a3.23 3.23 0 1 0 3.23 3.23 3.23 3.23 0 0 0 -3.23-3.23zm0 5.46a2.23 2.23 0 1 1 2.23-2.23 2.23 2.23 0 0 1 -2.23 2.23z"></path><path d="m17.95 4h1v5.19h-1z"></path><path d="m46.27 4v28.64h-.5a3.87 3.87 0 0 0 -3.87 3.87 3.11 3.11 0 0 0 .06.62l.09.52-.52.07a67.47 67.47 0 0 1 -9.42.65 67.47 67.47 0 0 1 -9.42-.65l-.52-.07.1-.52a4 4 0 0 0 .05-.62 3.87 3.87 0 0 0 -3.87-3.87h-.45v-18h1v17a4.88 4.88 0 0 1 4.37 4.85 2.81 2.81 0 0 1 0 .29 67.34 67.34 0 0 0 17.6 0 2.81 2.81 0 0 1 0-.29 4.88 4.88 0 0 1 4.37-4.85v-27.64z"></path><path d="m45.77 33.28a3.23 3.23 0 1 0 3.23 3.23 3.23 3.23 0 0 0 -3.23-3.23zm0 5.46a2.23 2.23 0 1 1 2.23-2.23 2.23 2.23 0 0 1 -2.23 2.23z"></path><path d="m36 6.5v3.19h7.56v-3.19zm6.56 2.19h-5.56v-1.19h5.56z"></path><path d="m13.51 44.25v14.11h37.05v-14.11zm36.05 13.11h-35.05v-12.11h35.05z"></path><path d="m18 52.74v3.18h11.88v-3.18zm10.93 2.18h-9.93v-1.18h9.93z"></path><path d="m33.25 52.74v3.18h11.92v-3.18zm10.92 2.18h-9.92v-1.18h9.92z"></path></g><path d="m19 4.5v4.24a3.22 3.22 0 0 1 0 6.36v16.56a4.88 4.88 0 0 1 4.37 4.85 2.81 2.81 0 0 1 0 .29 67.34 67.34 0 0 0 17.6 0 2.81 2.81 0 0 1 0-.29 4.88 4.88 0 0 1 4.37-4.85v-27.16zm13 28.14a9.25 9.25 0 1 1 9.24-9.25 9.25 9.25 0 0 1 -9.3 9.25zm11.6-23h-7.6v-3.14h7.56z" fill="#7985ca"></path><path d="m46.27 4.5v28.14h-.5a3.87 3.87 0 0 0 -3.87 3.87 3.11 3.11 0 0 0 .06.62l.09.52-.52.07a67.47 67.47 0 0 1 -9.42.65 67.47 67.47 0 0 1 -9.42-.65l-.52-.07.1-.52a4 4 0 0 0 .05-.62 3.87 3.87 0 0 0 -3.87-3.87h-.45v-17.54a3.22 3.22 0 0 1 0-6.36v-4.24h-7.24v37.24h42.7v-37.24zm-27.82 35.24a3.23 3.23 0 1 1 3.23-3.23 3.23 3.23 0 0 1 -3.23 3.23zm27.32 0a3.23 3.23 0 1 1 3.23-3.23 3.23 3.23 0 0 1 -3.23 3.23z" fill="#7985ca"></path><path d="m9.75 41.74v18.76h44.71v-18.76zm43.71 17.76h-42.71v-16.76h42.71z" fill="#31409f"></path><path d="m10.75 42.74v16.76h42.71v-16.76zm39.81 15.62h-37.05v-14.11h37.05z" fill="#5c6bc0"></path><path d="m31.94 14.15a9.25 9.25 0 1 0 9.24 9.24 9.25 9.25 0 0 0 -9.24-9.24z" fill="#31409f"></path><path d="m31.94 31.64a8.25 8.25 0 1 1 8.24-8.25 8.25 8.25 0 0 1 -8.24 8.25z" fill="#31409f"></path><path d="m19 8.74a2.52 2.52 0 0 0 -1 0 3.22 3.22 0 0 0 0 6.36 2.52 2.52 0 0 0 1 0 3.22 3.22 0 0 0 0-6.36zm-.5 5.41a2.23 2.23 0 1 1 2.23-2.23 2.23 2.23 0 0 1 -2.28 2.23z" fill="#5c6bc0"></path><path d="m20.68 11.92a2.23 2.23 0 1 1 -2.23-2.23 2.23 2.23 0 0 1 2.23 2.23z" fill="#eee5c6"></path><path d="m18.45 33.28a3.23 3.23 0 1 0 3.23 3.23 3.23 3.23 0 0 0 -3.23-3.23z" fill="#31409f"></path><path d="m18.45 38.74a2.23 2.23 0 1 1 2.23-2.23 2.23 2.23 0 0 1 -2.23 2.23z" fill="#5c6bc0"></path><path d="m17.95 4h1v5.19h-1z" fill="#5c6bc0"></path><path d="m46.27 4v28.64h-.5a3.87 3.87 0 0 0 -3.87 3.87 3.11 3.11 0 0 0 .06.62l.09.52-.52.07a67.47 67.47 0 0 1 -9.42.65 67.47 67.47 0 0 1 -9.42-.65l-.52-.07.1-.52a4 4 0 0 0 .05-.62 3.87 3.87 0 0 0 -3.87-3.87h-.45v-18h1v17a4.88 4.88 0 0 1 4.37 4.85 2.81 2.81 0 0 1 0 .29 67.34 67.34 0 0 0 17.6 0 2.81 2.81 0 0 1 0-.29 4.88 4.88 0 0 1 4.37-4.85v-27.64z" fill="#5c6bc0"></path><path d="m45.77 33.28a3.23 3.23 0 1 0 3.23 3.23 3.23 3.23 0 0 0 -3.23-3.23z" fill="#31409f"></path><path d="m45.77 38.74a2.23 2.23 0 1 1 2.23-2.23 2.23 2.23 0 0 1 -2.23 2.23z" fill="#5c6bc0"></path><path d="m35.98 6.5h7.56v3.19h-7.56z" fill="#5c6bc0"></path><path d="m13.51 44.25v14.11h37.05v-14.11zm36.05 13.11h-35.05v-12.11h35.05z" fill="#31409f"></path><path d="m14.51 45.25h35.05v12.11h-35.05z" fill="#eee5c6"></path><path d="m20.09 47.3a2 2 0 1 0 2 2 2 2 0 0 0 -2-2z" fill="#31409f"></path><circle cx="27.74" cy="49.3" fill="#31409f" r="2"></circle><circle cx="35.39" cy="49.3" fill="#31409f" r="2"></circle><path d="m43 47.3a2 2 0 1 0 2 2 2 2 0 0 0 -2-2z" fill="#31409f"></path><path d="m18.92 53.33h10v2h-10z" fill="#31409f"></path><path d="m34.21 53.33h10v2h-10z" fill="#31409f"></path><path d="m9.76 3.5v39.24h44.7v-39.24zm1 38.24v-37.24h42.7v37.24z" fill="#31409f"></path></svg>