<svg version="1.1" id="fi_1033050" xmlns="http://www.w3.org/2000/svg" xmlns:xlink="http://www.w3.org/1999/xlink" x="0px" y="0px" viewBox="0 0 512 512" style="enable-background:new 0 0 512 512;" xml:space="preserve">
<g>
	<path style="fill:#4F4F74;" d="M467.075,127.125h-67.1v45.947h80.956v-19.305v-12.786
		C480.932,133.322,474.724,127.125,467.075,127.125z"></path>
    <path style="fill:#4F4F74;" d="M45.954,127.125c-7.649,0-13.856,6.197-13.856,13.856v12.786v11.653h62.093v-38.295
		C94.191,127.125,45.954,127.125,45.954,127.125z"></path>
</g>
    <g>
	<path style="fill:#3E436D;" d="M446.054,141.414c-3.525,0-6.765-2.059-8.254-5.239l-4.23-9.05h-33.596v45.947h80.956v-19.305
		v-12.353H446.054z"></path>
        <path style="fill:#3E436D;" d="M94.191,127.125H79.52l-4.226,9.043c-1.491,3.187-4.732,5.246-8.257,5.246H32.098v12.353v11.653
		h62.093V127.125z"></path>
</g>
    <path style="fill:#82DBBA;" d="M408.552,118.056c4.077,0,7.855,2.327,10.027,6.166l1.359,2.903l6.671,14.278
	c3.531,7.546,11.118,12.364,19.446,12.364h34.877h10.85c11.169,0,20.218,9.059,20.218,20.228v145.14
	c0,11.169-9.049,20.228-20.218,20.228h-37.914c-14.875,0-29.236,5.837-39.633,16.471c-22.987,23.512-55.054,38.11-90.529,38.11
	H189.385c-35.474,0-67.541-14.597-90.529-38.11c-10.397-10.634-24.758-16.471-39.633-16.471H20.218
	C9.049,339.364,0,330.305,0,319.135v-145.14c0-11.169,9.049-20.228,20.218-20.228h11.88h34.939c8.328,0,15.915-4.818,19.446-12.364
	l6.66-14.258l1.369-2.924c2.172-3.84,5.96-6.166,10.027-6.166L408.552,118.056L408.552,118.056z"></path>
    <g>
	<circle style="fill:#5BCE95;" cx="433.125" cy="254.528" r="16.471"></circle>
        <circle style="fill:#5BCE95;" cx="466.067" cy="203.056" r="16.471"></circle>
        <path style="fill:#5BCE95;" d="M91.02,217.087v25.324c0,0.968-0.782,1.75-1.75,1.75H74.24c-0.968,0-1.75,0.782-1.75,1.75v15.03
		c0,0.968-0.782,1.75-1.75,1.75H45.416c-0.968,0-1.75-0.782-1.75-1.75v-15.03c0-0.968-0.782-1.75-1.75-1.75h-15.03
		c-0.968,0-1.75-0.782-1.75-1.75v-25.324c0-0.968,0.782-1.75,1.75-1.75h15.03c0.968,0,1.75-0.782,1.75-1.75v-15.03
		c0-0.968,0.782-1.75,1.75-1.75H70.74c0.968,0,1.75,0.782,1.75,1.75v15.03c0,0.968,0.782,1.75,1.75,1.75h15.03
		C90.237,215.337,91.02,216.12,91.02,217.087z"></path>
        <path style="fill:#5BCE95;" d="M474.217,303.848c-14.875,0-29.236,5.837-39.633,16.471c-22.987,23.512-55.054,38.11-90.529,38.11
		H209.734c-35.474,0-67.541-14.597-90.529-38.11c-10.397-10.634-24.758-16.471-39.633-16.471H32.095
		c-6.488,0-11.747-5.259-11.747-11.747V153.767h-0.13C9.049,153.767,0,162.826,0,173.995v145.14
		c0,11.169,9.049,20.228,20.218,20.228h39.005c14.875,0,29.236,5.837,39.633,16.471c22.987,23.512,55.054,38.11,90.529,38.11
		h134.321c35.474,0,67.541-14.597,90.529-38.11c10.397-10.634,24.758-16.471,39.633-16.471h37.914
		c11.169,0,20.218-9.059,20.218-20.228v-15.287H474.217z"></path>
</g>
    <path style="fill:#4F4F74;" d="M393.008,176.785v135.999c0,6.65-2.687,13.033-7.453,17.686
	c-16.389,16.039-38.532,25.262-61.848,25.262H189.385c-24.223,0-47.179-9.955-63.732-27.167c-4.344-4.519-6.66-10.603-6.66-16.872
	V176.785c0-8.493,6.877-15.369,15.369-15.369h243.276C386.131,161.415,393.008,168.292,393.008,176.785z"></path>
    <path style="fill:#3E436D;" d="M343.523,345.087H209.202c-24.223,0-47.179-9.955-63.732-27.167
	c-4.344-4.519-6.66-10.603-6.66-16.872V166.141c0-1.65,0.267-3.236,0.746-4.725h-5.193c-8.493,0-15.369,6.877-15.369,15.369v134.908
	c0,6.269,2.316,12.353,6.66,16.872c16.553,17.212,39.51,27.167,63.732,27.167h134.321c18.668,0,36.575-5.925,51.387-16.514
	C365.141,343.032,354.465,345.087,343.523,345.087z"></path>
    <path style="fill:#7CCAFD;" d="M365.203,192.194v111.471c0,1.918-1.57,3.488-3.488,3.488H149.256c-1.918,0-3.488-1.57-3.488-3.488
	V192.194c0-1.918,1.57-3.488,3.488-3.488h212.459C363.633,188.706,365.203,190.276,365.203,192.194z"></path>
    <path style="fill:#41C2E5;" d="M266.366,288.973c-55.147,0-100.267-45.12-100.267-100.267l0,0h-16.844
	c-1.918,0-3.488,1.57-3.488,3.488v111.471c0,1.918,1.57,3.488,3.488,3.488h212.459c1.918,0,3.488-1.57,3.488-3.488v-14.692H266.366z
	"></path>
    <path style="fill:#4F4F74;" d="M92.834,207.822v25.324c0,0.968-0.782,1.75-1.75,1.75h-15.03c-0.968,0-1.75,0.782-1.75,1.75v15.03
	c0,0.968-0.782,1.75-1.75,1.75H47.231c-0.968,0-1.75-0.782-1.75-1.75v-15.03c0-0.968-0.782-1.75-1.75-1.75h-15.03
	c-0.968,0-1.75-0.782-1.75-1.75v-25.324c0-0.968,0.782-1.75,1.75-1.75h15.03c0.968,0,1.75-0.782,1.75-1.75v-15.03
	c0-0.968,0.782-1.75,1.75-1.75h25.324c0.968,0,1.75,0.782,1.75,1.75v15.03c0,0.968,0.782,1.75,1.75,1.75h15.03
	C92.052,206.072,92.834,206.855,92.834,207.822z"></path>
    <path style="fill:#3E436D;" d="M56.943,242.103c-0.968,0-1.75-0.782-1.75-1.75v-15.03c0-0.968-0.782-1.75-1.75-1.75h-15.03
	c-0.968,0-1.75-0.782-1.75-1.75v-15.75h-7.963c-0.968,0-1.75,0.782-1.75,1.75v25.324c0,0.968,0.782,1.75,1.75,1.75h15.03
	c0.968,0,1.75,0.782,1.75,1.75v15.03c0,0.968,0.782,1.75,1.75,1.75h25.324c0.968,0,1.75-0.782,1.75-1.75v-9.574H56.943z"></path>
    <g>
	<circle style="fill:#50C998;" cx="87.173" cy="279.677" r="9.265"></circle>
        <circle style="fill:#50C998;" cx="87.173" cy="307.472" r="9.265"></circle>
</g>
    <circle style="fill:#358DCD;" cx="438.725" cy="250.338" r="16.471"></circle>
    <circle style="fill:#DD1B1B;" cx="471.667" cy="198.866" r="16.471"></circle>
    <path style="fill:#098BAA;" d="M449.877,257.544c-9.1,0-16.471-7.371-16.471-16.471c0-2.401,0.525-4.674,1.446-6.729
	c-7.227,1.743-12.599,8.23-12.599,15.994c0,9.1,7.371,16.471,16.471,16.471c6.7,0,12.451-4.001,15.025-9.742
	C452.506,257.368,451.214,257.544,449.877,257.544z"></path>
    <path style="fill:#CC0202;" d="M482.819,206.072c-9.1,0-16.471-7.371-16.471-16.471c0-2.401,0.525-4.674,1.446-6.729
	c-7.227,1.743-12.599,8.23-12.599,15.994c0,9.1,7.371,16.471,16.471,16.471c6.7,0,12.451-4.001,15.025-9.742
	C485.448,205.896,484.156,206.072,482.819,206.072z"></path>
    <g>
	<path style="fill:#50C998;" d="M429.46,322.913c-4.265,0-7.721-3.457-7.721-7.721v-16.471c0-4.264,3.456-7.721,7.721-7.721
		s7.721,3.457,7.721,7.721v16.471C437.181,319.456,433.725,322.913,429.46,322.913z"></path>
        <path style="fill:#50C998;" d="M453.137,322.913c-4.265,0-7.721-3.457-7.721-7.721v-16.471c0-4.264,3.456-7.721,7.721-7.721
		s7.721,3.457,7.721,7.721v16.471C460.858,319.456,457.402,322.913,453.137,322.913z"></path>
        <path style="fill:#50C998;" d="M476.814,322.913c-4.265,0-7.721-3.457-7.721-7.721v-16.471c0-4.264,3.456-7.721,7.721-7.721
		s7.721,3.457,7.721,7.721v16.471C484.535,319.456,481.079,322.913,476.814,322.913z"></path>
</g>
    <g>
</g>
    <g>
</g>
    <g>
</g>
    <g>
</g>
    <g>
</g>
    <g>
</g>
    <g>
</g>
    <g>
</g>
    <g>
</g>
    <g>
</g>
    <g>
</g>
    <g>
</g>
    <g>
</g>
    <g>
</g>
    <g>
</g>
</svg>