<svg height="512" viewBox="0 0 64 64" width="512" xmlns="http://www.w3.org/2000/svg" id="fi_2094405"><path d="m17 2h30a2 2 0 0 1 2 2v52a6 6 0 0 1 -6 6h-26a2 2 0 0 1 -2-2v-56a2 2 0 0 1 2-2z" fill="#e0e0e2"></path><path d="m42 31h-24v-23h28v19a4 4 0 0 1 -4 4z" fill="#57565c"></path><path d="m21 12h22v15h-22z" fill="#1a6fb0"></path><path d="m28 39v4h-3v3h-4v-3h-3v-4h3v-3h4v3z" fill="#57565c"></path><circle cx="35" cy="45" fill="#d80027" r="3"></circle><circle cx="43" cy="39" fill="#d80027" r="3"></circle><path d="m46 55-3-3" fill="#c6c5ca"></path><path d="m44 57-3-3" fill="#c6c5ca"></path><path d="m42 59-3-3" fill="#c6c5ca"></path><path d="m24 54 2.5-2.5" fill="#c6c5ca"></path><path d="m32 54 2.5-2.5" fill="#c6c5ca"></path><g fill="#231f20"><path d="m43 63h-26a3 3 0 0 1 -3-3v-56a3 3 0 0 1 3-3h30a3 3 0 0 1 3 3v52a7.008 7.008 0 0 1 -7 7zm-26-60a1 1 0 0 0 -1 1v56a1 1 0 0 0 1 1h26a5.006 5.006 0 0 0 5-5v-52a1 1 0 0 0 -1-1z"></path><path d="m42 32h-24a1 1 0 0 1 -1-1v-23a1 1 0 0 1 1-1h28a1 1 0 0 1 1 1v19a5.006 5.006 0 0 1 -5 5zm-23-2h23a3 3 0 0 0 3-3v-18h-26z"></path><path d="m43 28h-22a1 1 0 0 1 -1-1v-15a1 1 0 0 1 1-1h22a1 1 0 0 1 1 1v15a1 1 0 0 1 -1 1zm-21-2h20v-13h-20z"></path><path d="m25 47h-4a1 1 0 0 1 -1-1v-2h-2a1 1 0 0 1 -1-1v-4a1 1 0 0 1 1-1h2v-2a1 1 0 0 1 1-1h4a1 1 0 0 1 1 1v2h2a1 1 0 0 1 1 1v4a1 1 0 0 1 -1 1h-2v2a1 1 0 0 1 -1 1zm-3-2h2v-2a1 1 0 0 1 1-1h2v-2h-2a1 1 0 0 1 -1-1v-2h-2v2a1 1 0 0 1 -1 1h-2v2h2a1 1 0 0 1 1 1z"></path><path d="m35 49a4 4 0 1 1 4-4 4 4 0 0 1 -4 4zm0-6a2 2 0 1 0 2 2 2 2 0 0 0 -2-2z"></path><path d="m43 43a4 4 0 1 1 4-4 4 4 0 0 1 -4 4zm0-6a2 2 0 1 0 2 2 2 2 0 0 0 -2-2z"></path><path d="m46 56a1 1 0 0 1 -.707-.293l-3-3a1 1 0 0 1 1.414-1.414l3 3a1 1 0 0 1 -.707 1.707z"></path><path d="m44 58a1 1 0 0 1 -.707-.293l-3-3a1 1 0 0 1 1.414-1.414l3 3a1 1 0 0 1 -.707 1.707z"></path><path d="m42 60a1 1 0 0 1 -.707-.293l-3-3a1 1 0 0 1 1.414-1.414l3 3a1 1 0 0 1 -.707 1.707z"></path><path d="m24 55a1 1 0 0 1 -.707-1.707l2.5-2.5a1 1 0 0 1 1.414 1.414l-2.5 2.5a1 1 0 0 1 -.707.293z"></path><path d="m32 55a1 1 0 0 1 -.707-1.707l2.5-2.5a1 1 0 0 1 1.414 1.414l-2.5 2.5a1 1 0 0 1 -.707.293z"></path><path d="m24 6h-6a1 1 0 0 1 0-2h6a1 1 0 0 1 0 2z"></path><path d="m28 6h-1a1 1 0 0 1 0-2h1a1 1 0 0 1 0 2z"></path></g></svg>