<svg version="1.1" id="fi_588248" xmlns="http://www.w3.org/2000/svg" xmlns:xlink="http://www.w3.org/1999/xlink" x="0px" y="0px" viewBox="0 0 512 512" style="enable-background:new 0 0 512 512;" xml:space="preserve">
<path id="SVGCleanerId_0" style="fill:#EAE8E8;" d="M454.04,306.46H57.96C30.092,306.46,7.5,283.869,7.5,256
	c0-27.868,22.591-50.46,50.459-50.46H454.04c27.868,0,50.459,22.592,50.459,50.46C504.5,283.869,481.908,306.46,454.04,306.46z"></path>
    <g>
	<path id="SVGCleanerId_0_1_" style="fill:#EAE8E8;" d="M454.04,306.46H57.96C30.092,306.46,7.5,283.869,7.5,256
		c0-27.868,22.591-50.46,50.459-50.46H454.04c27.868,0,50.459,22.592,50.459,50.46C504.5,283.869,481.908,306.46,454.04,306.46z"></path>
</g>
    <path style="fill:#D3D1D1;" d="M34.855,256.001c0-27.868,22.591-50.46,50.459-50.46H57.96c-27.868,0-50.459,22.592-50.459,50.46
	c0,27.869,22.591,50.46,50.459,50.46h27.355C57.446,306.46,34.855,283.869,34.855,256.001z"></path>
    <g>
	<path style="fill:#EA473B;" d="M454.04,313.961H57.96C26.001,313.961,0,287.959,0,256c0-31.96,26.001-57.961,57.96-57.961H454.04
		c31.959,0,57.96,26.001,57.96,57.961C512,287.959,485.999,313.961,454.04,313.961z M57.96,213.041
		c-23.687,0-42.959,19.271-42.959,42.96c0,23.688,19.271,42.96,42.959,42.96H454.04c23.687,0,42.959-19.271,42.959-42.96
		s-19.271-42.96-42.959-42.96L57.96,213.041L57.96,213.041z"></path>
        <path style="fill:#EA473B;" d="M141.651,227.068h-12.628c-1.104,0-2,0.895-2,2v5.976c0,1.105,0.896,2,2,2h12.628
		c1.104,0,2-0.895,2-2v-5.976C143.651,227.963,142.755,227.068,141.651,227.068z"></path>
        <path style="fill:#EA473B;" d="M141.651,243.031h-12.628c-1.104,0-2,0.895-2,2v37.901c0,1.104,0.896,2,2,2h12.628
		c1.104,0,2-0.896,2-2v-37.901C143.651,243.926,142.755,243.031,141.651,243.031z"></path>
        <path style="fill:#EA473B;" d="M230.615,239.58v-5.523c0-1.104-0.896-2-2-2h-12.628c-1.105,0-2,0.896-2,2v5.523h-7.789
		c-1.104,0-2,0.896-2,2v2.817c0,1.105,0.896,2,2,2h7.789v36.535c0,1.104,0.895,2,2,2h12.628c1.104,0,2-0.896,2-2v-36.535h7.831
		c1.105,0,2-0.895,2-2C240.447,238.526,240.817,239.58,230.615,239.58z"></path>
        <path style="fill:#EA473B;" d="M113.882,227.068h-12.628c-1.104,0-2,0.895-2,2v36.549c-27.34-40.371-25.651-38.549-27.168-38.549
		H58.521c-1.104,0-2,0.895-2,2v53.864c0,1.104,0.896,2,2,2h12.628c1.104,0,2-0.896,2-2v-36.535l25.511,37.657
		c0.373,0.549,0.993,0.878,1.656,0.878h13.567c1.104,0,2-0.896,2-2v-53.864C115.882,227.963,114.986,227.068,113.882,227.068z"></path>
        <path style="fill:#EA473B;" d="M169.922,248.484v-3.452c0-1.105-0.895-2-2-2h-12.628c-1.104,0-2,0.895-2,2v37.901
		c0,1.104,0.896,2,2,2h12.628c1.105,0,2-0.896,2-2v-26.047c2.397-7.396,17.127-10.557,17.127,5.433v20.613c0,1.104,0.895,2,2,2
		h12.628c1.105,0,2-0.896,2-2v-20.613c0-0.367-0.064-9.047-5.659-14.65C191.827,241.464,177.826,240.664,169.922,248.484z"></path>
        <path style="fill:#EA473B;" d="M311.988,248.484c0-6.828,1.307-5.452-14.628-5.452c-1.104,0-2,0.895-2,2v37.901
		c0,1.104,0.896,2,2,2h12.628c1.105,0,2-0.896,2-2v-26.048c2.398-7.39,17.127-10.558,17.127,5.434v20.613c0,1.104,0.896,2,2,2
		h12.627c1.104,0,2-0.896,2-2v-20.613c0-0.367-0.065-9.047-5.658-14.651C333.919,241.494,319.913,240.64,311.988,248.484z"></path>
        <path style="fill:#EA473B;" d="M430.984,243.031c-13.511,0-24.502,9.399-24.502,20.95c0,11.553,10.992,20.951,24.502,20.951
		c13.507,0,24.495-9.399,24.495-20.951C455.48,252.43,444.491,243.031,430.984,243.031z M438.741,273.715
		c-0.131,0.189-0.23,0.4-0.291,0.632c-2.082,7.9-12.863,7.888-14.937,0c-0.059-0.222-0.152-0.427-0.275-0.608l-0.016-17.904
		c0-4.492,3.48-8.147,7.759-8.147c4.278,0,7.76,3.655,7.76,8.147v17.88H438.741z"></path>
        <path style="fill:#EA473B;" d="M264.949,243.031c-13.511,0-24.503,9.399-24.503,20.95c0,21.134,32.909,28.985,45.59,10.621
		c0.423-0.613,0.471-1.408,0.125-2.066c-0.749-1.428-1.309-1.071-11.457-1.071c-1.104,0-2,0.896-2,2v0.251
		c-0.131,0.189-0.23,0.4-0.291,0.632c-0.934,3.546-3.935,5.929-7.468,5.929s-6.535-2.383-7.469-5.929
		c-0.059-0.222-0.152-0.425-0.275-0.608l-0.016-9.758h30.134C293.134,263.981,285.961,243.031,264.949,243.031z M272.704,258.494
		h-15.52v-2.659c0-4.492,3.481-8.147,7.76-8.147c4.278,0,7.759,3.655,7.759,8.147V258.494z"></path>
        <path style="fill:#EA473B;" d="M397.554,227.068h-12.628c-1.104,0-2,0.895-2,2v17.878c-13.129-9.922-31.344,0.083-31.344,17.035
		c0,16.95,18.216,26.96,31.344,17.035c0,4.931-0.539,3.916,14.628,3.916c1.104,0,2-0.896,2-2v-53.864
		C399.554,227.963,398.659,227.068,397.554,227.068z M382.981,271.554c-0.13,0.188-0.23,0.4-0.29,0.631
		c-2.082,7.9-12.863,7.891-14.937,0c-0.059-0.221-0.152-0.427-0.275-0.608l-0.016-13.581c0-4.493,3.48-8.148,7.76-8.148
		c4.277,0,7.758,3.655,7.758,8.148v13.558H382.981z"></path>
</g>
    <g>
</g>
    <g>
</g>
    <g>
</g>
    <g>
</g>
    <g>
</g>
    <g>
</g>
    <g>
</g>
    <g>
</g>
    <g>
</g>
    <g>
</g>
    <g>
</g>
    <g>
</g>
    <g>
</g>
    <g>
</g>
    <g>
</g>
</svg>