<svg height="512" viewBox="0 0 48 48" width="512" xmlns="http://www.w3.org/2000/svg" id="fi_2951774"><g id="control-pad,-game-console,-gamepad,-joypad" fill="none" fill-rule="nonzero"><path id="Path" d="m32 13h-16c-6.07513225 0-11 4.9248678-11 11s4.92486775 11 11 11h16c6.0751322 0 11-4.9248678 11-11s-4.9248678-11-11-11z" fill="#2eaff0"></path><path id="Shape" d="m31 18v12h-14v-12zm5 7c.5522847 0 1 .4477153 1 1s-.4477153 1-1 1-1-.4477153-1-1 .4477153-1 1-1zm-23-4v2h2v2h-2v2h-2v-2h-2v-2h2v-2zm25 2c.5522847 0 1 .4477153 1 1s-.4477153 1-1 1-1-.4477153-1-1 .4477153-1 1-1zm-4 0c.5522847 0 1 .4477153 1 1s-.4477153 1-1 1-1-.4477153-1-1 .4477153-1 1-1zm2-2c.5522847 0 1 .4477153 1 1s-.4477153 1-1 1-1-.4477153-1-1 .4477153-1 1-1z" fill="#a5e1ff"></path></g></svg>