<svg id="fi_7690828" enable-background="new 0 0 512 512" height="512" viewBox="0 0 512 512" width="512" xmlns="http://www.w3.org/2000/svg"><g><g><g clip-rule="evenodd" fill-rule="evenodd"><path d="m68.501 300.999c-8.285 0-15 6.716-15 15 0 8.285 6.715 15 15 15s15-6.716 15-15-6.716-15-15-15zm-16.001-29.999c8.285 0 15-6.716 15-15s-6.716-15-15-15c-8.285 0-15 6.715-15 15s6.715 15 15 15z" fill="#fdef8e"></path><path d="m113.501 121v270h284.999v-270zm30 225v-180c0-8.25 6.75-15 15-15h194.999c8.25 0 15 6.75 15 15v180c0 8.25-6.75 15-15 15h-195c-8.25 0-14.999-6.75-14.999-15z" fill="#fdef8e"></path><path d="m143.501 166v180c0 8.25 6.75 15 15 15h194.999c8.25 0 15-6.75 15-15v-180c0-8.25-6.75-15-15-15h-195c-8.25 0-14.999 6.75-14.999 15z" fill="#82f1f6"></path><path d="m398.499 121v270h91.001c8.249 0 15-6.751 15-15v-225h-68.501zm-390.999 30v225c0 8.25 6.751 15 15 15h91.001v-270l-37.499 30zm45 120c-8.285 0-15-6.716-15-15s6.715-15 15-15 15 6.715 15 15-6.716 15-15 15zm1.001 44.999c0-8.284 6.715-15 15-15s15 6.716 15 15c0 8.285-6.716 15-15 15-8.285.001-15-6.715-15-15zm405.999-74.999c8.284 0 15 6.715 15 15s-6.716 15-15 15c-8.285 0-15-6.716-15-15s6.716-15 15-15zm-16.001 59.999c8.284 0 15 6.716 15 15 0 8.285-6.716 15-15 15-8.285 0-15-6.716-15-15s6.715-15 15-15z" fill="#fff"></path><path d="m398.499 121 37.499 30h68.502v-15c0-8.249-6.75-15-15-15zm-390.999 30h68.501l37.499-30h-91c-8.25 0-15 6.75-15 15z" fill="#bababd"></path><path d="m458.499 315.999c0-8.284-6.716-15-15-15-8.285 0-15 6.716-15 15 0 8.285 6.715 15 15 15 8.285.001 15-6.715 15-15zm16.001-59.999c0-8.284-6.716-15-15-15-8.285 0-15 6.715-15 15s6.716 15 15 15c8.285 0 15-6.715 15-15z" fill="#fdef8e"></path><path d="m7.5 151v225c0 8.25 6.751 15 15 15h22.5c-8.249 0-15-6.75-15-15v-225z" fill="#b6e6fc"></path><path d="m7.5 151h22.5v-15c0-8.25 6.75-15 15-15h-22.5c-8.25 0-15 6.75-15 15z" fill="#79787e"></path><path d="m143.501 166v180c0 8.25 6.75 15 15 15h22.499c-8.25 0-15-6.75-15-15v-180c0-8.25 6.75-15 15-15h-22.5c-8.25 0-14.999 6.75-14.999 15z" fill="#00e7f0"></path></g><g><path d="m346 218.5h-15v-15h15zm0-30h-15v-15.001h15z" fill="#fff"></path></g></g><g><path d="m489.5 113.5h-467c-12.407 0-22.5 10.094-22.5 22.5v240c0 12.406 10.093 22.5 22.5 22.5h422.174v-15h-38.674v-246.895l27.369 21.895h63.631v217.5c0 4.136-3.365 7.5-7.5 7.5h-29.826v15h29.826c12.407 0 22.5-10.094 22.5-22.5v-240c0-12.406-10.093-22.5-22.5-22.5zm-467 15h69.62l-18.75 15h-58.37v-7.5c0-4.136 3.365-7.5 7.5-7.5zm98.5 255v-210h-15v210h-83.5c-4.135 0-7.5-3.364-7.5-7.5v-217.5h63.632l27.368-21.895v21.895h15v-30h270v255zm317.63-240-18.75-15h69.62c4.135 0 7.5 3.364 7.5 7.5v7.5z"></path><path d="m459.5 278.5c12.407 0 22.5-10.094 22.5-22.5s-10.093-22.5-22.5-22.5-22.5 10.094-22.5 22.5 10.093 22.5 22.5 22.5zm0-30c4.136 0 7.5 3.364 7.5 7.5s-3.364 7.5-7.5 7.5c-4.135 0-7.5-3.364-7.5-7.5s3.365-7.5 7.5-7.5z"></path><path d="m420.999 315.999c0 12.406 10.093 22.5 22.5 22.5s22.5-10.094 22.5-22.5-10.093-22.5-22.5-22.5-22.5 10.094-22.5 22.5zm22.5-7.5c4.135 0 7.5 3.364 7.5 7.5s-3.365 7.5-7.5 7.5c-4.136 0-7.5-3.364-7.5-7.5s3.364-7.5 7.5-7.5z"></path><path d="m68.501 293.499c-12.407 0-22.5 10.094-22.5 22.5s10.093 22.5 22.5 22.5 22.5-10.094 22.5-22.5-10.093-22.5-22.5-22.5zm0 30c-4.135 0-7.5-3.364-7.5-7.5s3.365-7.5 7.5-7.5c4.136 0 7.5 3.364 7.5 7.5s-3.364 7.5-7.5 7.5z"></path><path d="m75 256c0-12.406-10.093-22.5-22.5-22.5s-22.5 10.094-22.5 22.5 10.093 22.5 22.5 22.5 22.5-10.094 22.5-22.5zm-30 0c0-4.136 3.364-7.5 7.5-7.5 4.135 0 7.5 3.364 7.5 7.5s-3.365 7.5-7.5 7.5c-4.136 0-7.5-3.364-7.5-7.5z"></path><path d="m353.5 143.5h-195c-12.407 0-22.5 10.094-22.5 22.5v180c0 12.406 10.093 22.5 22.5 22.5h195c12.407 0 22.5-10.094 22.5-22.5v-180c0-12.406-10.094-22.5-22.5-22.5zm7.5 202.5c0 4.136-3.365 7.5-7.5 7.5h-195c-4.135 0-7.5-3.364-7.5-7.5v-180c0-4.136 3.365-7.5 7.5-7.5h195c4.135 0 7.5 3.364 7.5 7.5z"></path></g></g></svg>