<svg height="512pt" viewBox="-4 0 512 512" width="512pt" xmlns="http://www.w3.org/2000/svg" id="fi_1191137"><path d="m486.726562 370.109375c6.089844-3.628906 8.171876-10.269531 8.171876-17.867187v-321.457032c0-11.480468-9.316407-20.785156-20.8125-20.785156h-443.273438c-11.496094 0-20.8125 9.304688-20.8125 20.785156v321.457032c0 7.597656 2.082031 14.242187 8.175781 17.867187" fill="#43b0fc"></path><path d="m395.324219 51.214844h58.308593v280.597656h-402.363281v-280.597656h237.179688" fill="#ede6f5"></path><path d="m338.050781 61.210938c-.660156 0-1.3125-.0625-1.960937-.191407-.640625-.128906-1.269532-.320312-1.871094-.570312s-1.179688-.558594-1.730469-.917969c-.539062-.371094-1.058593-.792969-1.519531-1.25-1.859375-1.859375-2.929688-4.441406-2.929688-7.070312 0-.652344.070313-1.3125.199219-1.949219.128907-.640625.320313-1.273438.570313-1.871094.25-.609375.558594-1.191406.921875-1.730469.359375-.550781.777343-1.058594 1.238281-1.519531s.980469-.878906 1.519531-1.242187c.550781-.359376 1.128907-.667969 1.730469-.917969s1.230469-.441407 1.871094-.570313c1.289062-.261718 2.617187-.261718 3.90625 0 .640625.128906 1.273437.320313 1.871094.570313.601562.25 1.179687.558593 1.730468.917969.539063.363281 1.050782.78125 1.511719 1.242187.46875.460937.878906.96875 1.25 1.519531.359375.539063.667969 1.121094.917969 1.730469.25.597656.441406 1.230469.570312 1.871094.128906.636719.199219 1.296875.199219 1.949219 0 .648437-.070313 1.308593-.199219 1.960937-.128906.628906-.320312 1.257813-.570312 1.867187-.25.601563-.558594 1.179688-.917969 1.722657-.371094.546875-.78125 1.058593-1.25 1.519531-.460937.457031-.972656.878906-1.511719 1.25-.550781.359375-1.128906.667969-1.730468.917969-.601563.25-1.230469.441406-1.871094.570312-.648438.128907-1.296875.191407-1.945313.191407zm0 0"></path><path d="m373.355469 276.09375h-241.8125c-62.382813 0-112.949219 50.570312-112.949219 112.953125s50.566406 112.953125 112.949219 112.953125c51.285156 0 94.574219-34.179688 108.363281-80.996094h25.085938c13.785156 46.816406 57.078124 80.996094 108.363281 80.996094 62.378906 0 112.949219-50.570312 112.949219-112.953125.003906-62.382813-50.570313-112.953125-112.949219-112.953125zm0 0" fill="#52607e"></path><path d="m198.816406 389.050781c0 38.875-31.515625 70.386719-70.386718 70.386719-38.875 0-70.390626-31.511719-70.390626-70.386719 0-38.871093 31.515626-70.386719 70.390626-70.386719 38.871093 0 70.386718 31.515626 70.386718 70.386719zm0 0" fill="#7ccafd"></path><path d="m128.429688 469.4375c-44.328126 0-80.390626-36.058594-80.390626-80.386719 0-44.324219 36.0625-80.386719 80.390626-80.386719 44.324218 0 80.386718 36.0625 80.386718 80.386719 0 44.328125-36.0625 80.386719-80.386718 80.386719zm0-140.773438c-33.296876 0-60.390626 27.089844-60.390626 60.386719 0 33.300781 27.089844 60.386719 60.390626 60.386719 33.296874 0 60.386718-27.085938 60.386718-60.386719 0-33.296875-27.089844-60.386719-60.386718-60.386719zm0 0"></path><path d="m157.90625 409.6875c-2.558594 0-5.117188-.976562-7.070312-2.929688-3.90625-3.90625-3.90625-10.238281 0-14.144531l3.464843-3.464843-3.464843-3.464844c-3.902344-3.902344-3.90625-10.234375 0-14.140625s10.238281-3.90625 14.144531 0l10.535156 10.535156c1.875 1.875 2.929687 4.417969 2.929687 7.070313 0 2.652343-1.054687 5.199218-2.929687 7.074218l-10.535156 10.535156c-1.957031 1.953126-4.515625 2.929688-7.074219 2.929688zm0 0"></path><path d="m98.949219 409.480469c-2.558594 0-5.117188-.976563-7.070313-2.929688l-10.535156-10.535156c-1.875-1.875-2.929688-4.421875-2.929688-7.074219s1.054688-5.195312 2.929688-7.070312l10.535156-10.535156c3.90625-3.902344 10.238282-3.90625 14.140625 0 3.90625 3.90625 3.90625 10.238281 0 14.140624l-3.464843 3.464844 3.46875 3.464844c3.902343 3.90625 3.902343 10.238281 0 14.144531-1.957032 1.953125-4.515626 2.929688-7.074219 2.929688zm0 0"></path><path d="m128.324219 439.0625c-2.558594 0-5.117188-.976562-7.070313-2.929688l-10.535156-10.535156c-3.90625-3.90625-3.90625-10.238281-.003906-14.144531 3.90625-3.902344 10.238281-3.902344 14.144531 0l3.464844 3.46875 3.464843-3.46875c3.90625-3.902344 10.238282-3.902344 14.144532 0 3.902344 3.90625 3.902344 10.238281-.003906 14.144531l-10.535157 10.535156c-1.953125 1.953126-4.511719 2.929688-7.070312 2.929688zm0 0"></path><path d="m139.066406 369.566406c-2.558594 0-5.117187-.972656-7.070312-2.925781l-3.464844-3.46875-3.464844 3.46875c-3.90625 3.902344-10.238281 3.90625-14.144531 0-3.902344-3.90625-3.902344-10.238281.003906-14.144531l10.535157-10.535156c3.90625-3.90625 10.234374-3.90625 14.140624 0l10.539063 10.535156c3.90625 3.90625 3.90625 10.238281 0 14.144531-1.953125 1.953125-4.511719 2.925781-7.074219 2.925781zm0 0"></path><path d="m372.164062 396.558594c-9.300781-9.300782-24.382812-9.300782-33.683593 0-9.300781 9.300781-9.300781 24.378906 0 33.679687s24.382812 9.300781 33.683593 0c9.300782-9.300781 9.300782-24.378906 0-33.679687zm0 0" fill="#ffea6e"></path><path d="m419.914062 347.648438c-9.300781-9.300782-24.378906-9.300782-33.679687 0-9.300781 9.300781-9.300781 24.378906 0 33.679687s24.378906 9.300781 33.679687 0c9.300782-9.300781 9.300782-24.378906 0-33.679687zm0 0" fill="#f05f90"></path><path d="m372.164062 347.648438c-9.300781-9.300782-24.378906-9.300782-33.679687 0-9.300781 9.300781-9.300781 24.378906 0 33.679687s24.378906 9.300781 33.679687 0c9.300782-9.300781 9.300782-24.378906 0-33.679687zm0 0" fill="#ede6f5"></path><path d="m419.914062 396.558594c-9.300781-9.300782-24.378906-9.300782-33.679687 0-9.300781 9.300781-9.300781 24.378906 0 33.679687s24.378906 9.300781 33.679687 0c9.300782-9.300781 9.300782-24.378906 0-33.679687zm0 0" fill="#00d2d7"></path><path d="m474.085938 0h-443.273438c-16.992188 0-30.8125 13.808594-30.8125 30.785156v321.457032c0 12.246093 4.464844 19.480468 9.285156 23.71875-.457031 4.300781-.691406 8.667968-.691406 13.085937 0 67.796875 55.152344 122.953125 122.949219 122.953125 27.085937 0 52.773437-8.636719 74.292969-24.976562 18.792968-14.277344 33.261718-33.964844 41.300781-56.019532h10.625c8.039062 22.054688 22.507812 41.742188 41.300781 56.019532 21.515625 16.339843 47.207031 24.976562 74.292969 24.976562 67.796875 0 122.953125-55.15625 122.953125-122.953125 0-4.421875-.238282-8.789063-.695313-13.089844 4.820313-4.238281 9.285157-11.46875 9.285157-23.71875v-321.453125c0-16.976562-13.824219-30.785156-30.8125-30.785156zm-100.730469 492c-45.355469 0-85.972657-30.355469-98.769531-73.824219-1.253907-4.253906-5.15625-7.171875-9.59375-7.171875h-25.085938c-4.4375 0-8.339844 2.917969-9.59375 7.171875-12.796875 43.46875-53.414062 73.824219-98.769531 73.824219-56.765625 0-102.953125-46.183594-102.953125-102.953125s46.183594-102.953125 102.953125-102.953125h241.8125c56.765625 0 102.949219 46.183594 102.949219 102.953125.003906 56.769531-46.183594 102.953125-102.949219 102.953125zm90.277343-186.339844v-254.445312c0-5.523438-4.480468-10-10-10h-58.308593c-5.523438 0-10 4.476562-10 10 0 5.519531 4.476562 10 10 10h48.308593v226.996094c-19.933593-13.933594-44.167968-22.113282-70.277343-22.113282h-241.808594c-26.113281 0-50.347656 8.179688-70.277344 22.113282v-226.996094h227.179688c5.523437 0 10-4.480469 10-10 0-5.523438-4.476563-10-10-10h-237.179688c-5.523437 0-10 4.476562-10 10v254.445312c-8.632812 9.339844-15.839843 20.019532-21.269531 31.683594v-306.558594c0-5.945312 4.851562-10.785156 10.8125-10.785156h443.273438c5.960937 0 10.8125 4.839844 10.8125 10.785156v306.558594c-5.429688-11.667969-12.632813-22.34375-21.265626-31.683594zm0 0"></path><path d="m426.992188 388.398438c13.183593-13.183594 13.183593-34.636719 0-47.824219-13.175782-13.171875-34.601563-13.179688-47.789063-.035157-13.1875-13.148437-34.613281-13.132812-47.789063.039063-13.183593 13.183594-13.183593 34.636719 0 47.820313.183594.1875.371094.367187.558594.546874-.1875.175782-.375.359376-.558594.542969-13.183593 13.1875-13.183593 34.640625 0 47.824219 6.59375 6.589844 15.253907 9.886719 23.914063 9.886719 8.644531 0 17.285156-3.285157 23.875-9.851563 6.585937 6.566406 15.230469 9.851563 23.875 9.851563 8.660156 0 17.320313-3.296875 23.910156-9.890625 13.1875-13.183594 13.1875-34.636719 0-47.820313-.183593-.183593-.367187-.367187-.554687-.542969.1875-.179687.375-.363281.558594-.546874zm-33.679688-33.679688c2.691406-2.695312 6.226562-4.039062 9.769531-4.039062 3.535157 0 7.074219 1.347656 9.765625 4.039062 5.386719 5.386719 5.386719 14.152344 0 19.539062-5.382812 5.386719-14.152344 5.386719-19.535156 0-5.386719-5.386718-5.386719-14.152343 0-19.539062zm-47.753906 0c5.386718-5.386719 14.152344-5.386719 19.539062 0 5.386719 5.386719 5.386719 14.152344 0 19.539062-5.386718 5.386719-14.152344 5.386719-19.539062 0-5.386719-5.386718-5.386719-14.152343 0-19.539062zm19.539062 68.449219c-5.386718 5.386719-14.152344 5.386719-19.539062 0-5.386719-5.386719-5.386719-14.152344 0-19.539063 2.695312-2.691406 6.230468-4.039062 9.769531-4.039062s7.074219 1.347656 9.769531 4.039062c2.609375 2.609375 4.046875 6.082032 4.046875 9.769532 0 3.691406-1.4375 7.160156-4.046875 9.769531zm47.75 0c-5.382812 5.386719-14.148437 5.386719-19.535156 0-2.609375-2.609375-4.046875-6.078125-4.046875-9.769531 0-3.6875 1.4375-7.160157 4.046875-9.769532 2.691406-2.691406 6.226562-4.039062 9.769531-4.039062 3.535157 0 7.074219 1.347656 9.765625 4.039062 5.386719 5.386719 5.386719 14.152344 0 19.539063zm0 0"></path><path d="m311.226562 166.863281-78.828124-45.511719c-9.8125-5.664062-22.082032 1.417969-22.082032 12.753907v91.015625c0 11.335937 12.269532 18.417968 22.082032 12.753906l78.828124-45.511719c9.8125-5.664062 9.8125-19.832031 0-25.5zm0 0" fill="#f05f90"></path><path d="m225.039062 249.886719c-4.246093 0-8.492187-1.117188-12.363281-3.351563-7.738281-4.46875-12.359375-12.472656-12.359375-21.410156v-91.019531c0-8.9375 4.621094-16.941407 12.359375-21.410157 7.742188-4.46875 16.984375-4.46875 24.722657 0l78.828124 45.507813c7.738282 4.46875 12.359376 12.472656 12.359376 21.410156 0 8.941407-4.621094 16.945313-12.359376 21.414063l-78.828124 45.507812c-3.871094 2.234375-8.117188 3.351563-12.359376 3.351563zm.011719-120.53125c-1.019531 0-1.855469.359375-2.375.660156-.878906.507813-2.359375 1.714844-2.359375 4.089844v91.019531c0 2.371094 1.480469 3.582031 2.359375 4.089844.882813.507812 2.667969 1.1875 4.722657 0l78.828124-45.511719c2.054688-1.183594 2.359376-3.070313 2.359376-4.089844s-.308594-2.902343-2.359376-4.089843l-78.828124-45.511719c-.839844-.484375-1.636719-.65625-2.347657-.65625zm0 0"></path></svg>