<svg id="fi_5752065" enable-background="new 0 0 74 74" height="512" viewBox="0 0 74 74" width="512" xmlns="http://www.w3.org/2000/svg"><g><g><path d="m62.43 55.4v10.75c0 1.57-1.28 2.85-2.85 2.85h-45.21c-1.57 0-2.85-1.28-2.85-2.85v-10.75z" fill="#4a4b98"></path></g><g><path d="m59.58 69.5h-45.21c-1.85 0-3.35-1.5-3.35-3.35v-10.75c0-.28.22-.5.5-.5h50.91c.28 0 .5.22.5.5v10.75c0 1.85-1.5 3.35-3.35 3.35zm-47.56-13.6v10.25c0 1.3 1.05 2.35 2.35 2.35h45.21c1.3 0 2.35-1.05 2.35-2.35v-10.25z"></path></g><g opacity=".1"><g><path d="m57.24 55.4c0 5.3-4.3 9.59-9.59 9.59h-36.13v1.16c0 1.57 1.28 2.85 2.85 2.85h45.21c1.57 0 2.85-1.28 2.85-2.85v-10.75z"></path></g></g><g><path d="m58.31 32.84 4.12 22.56c.32 1.75-1.02 3.36-2.8 3.36h-45.26c-1.78 0-3.12-1.61-2.8-3.36l4.12-22.56c.25-1.35 1.43-2.34 2.8-2.34h37.02c1.38 0 2.56.99 2.8 2.34z" fill="#02b9ef"></path></g><g><path d="m59.63 59.26h-45.26c-1 0-1.94-.44-2.57-1.21-.64-.77-.9-1.77-.72-2.75l4.12-22.56c.29-1.59 1.68-2.75 3.3-2.75h37.02c1.62 0 3.01 1.16 3.3 2.75l4.12 22.56c.18.98-.08 1.98-.72 2.75-.66.77-1.59 1.21-2.59 1.21zm-41.14-28.26c-1.14 0-2.11.81-2.31 1.93l-4.12 22.56c-.13.69.06 1.39.51 1.93s1.11.85 1.81.85h45.26c.7 0 1.36-.31 1.81-.85s.63-1.24.51-1.93l-4.12-22.56c-.2-1.12-1.18-1.93-2.31-1.93z"></path></g><g><path d="m16.08 54.48 3.6-19.7h34.64l3.6 19.7z" fill="#303149"></path></g><g><path d="m57.92 54.98h-41.84c-.15 0-.29-.07-.38-.18-.1-.11-.13-.26-.11-.41l3.6-19.71c.04-.24.25-.41.49-.41h34.64c.24 0 .45.17.49.41l3.6 19.71c.03.15-.01.3-.11.41-.09.12-.23.18-.38.18zm-41.24-1h40.64l-3.42-18.71h-33.8z"></path></g><g opacity=".1"><g><path d="m59.63 58.75h-45.26c-1.78 0-3.12-1.61-2.81-3.36l.17-.91h19.86c13.06 0 23.06-11.25 21.89-23.97h2.02c1.38 0 2.57.98 2.81 2.34l4.12 22.55c.32 1.74-1.02 3.35-2.8 3.35z"></path></g></g><g><g><g><path d="m18.97 51c0 1.35 1.8 2.45 3.99 2.45 2.21 0 3.99-1.1 3.99-2.45v-2.16h-7.98z" fill="#df1c1c"></path></g><g><path d="m22.96 53.96c-2.52 0-4.49-1.3-4.49-2.95v-2.16c0-.28.22-.5.5-.5h7.98c.28 0 .5.22.5.5v2.15c0 1.66-1.97 2.96-4.49 2.96zm-3.49-4.61v1.65c0 1.06 1.6 1.95 3.49 1.95s3.49-.89 3.49-1.95v-1.66h-6.98z"></path></g><g><path d="m26.95 48.85c0 1.35-1.78 2.45-3.99 2.45-2.2 0-3.99-1.1-3.99-2.45s1.8-2.45 3.99-2.45c2.21 0 3.99 1.09 3.99 2.45z" fill="#ed3b3b"></path></g><g><path d="m22.96 51.8c-2.52 0-4.49-1.3-4.49-2.95s1.97-2.95 4.49-2.95 4.49 1.3 4.49 2.95-1.97 2.95-4.49 2.95zm0-4.9c-1.89 0-3.49.89-3.49 1.95s1.6 1.95 3.49 1.95 3.49-.89 3.49-1.95-1.6-1.95-3.49-1.95z"></path></g></g><g><g><path d="m47.05 51c0 1.35 1.8 2.45 3.99 2.45 2.21 0 3.99-1.1 3.99-2.45v-2.16h-7.98z" fill="#f93"></path></g><g><path d="m51.04 53.96c-2.52 0-4.49-1.3-4.49-2.95v-2.16c0-.28.22-.5.5-.5h7.98c.28 0 .5.22.5.5v2.15c0 1.66-1.97 2.96-4.49 2.96zm-3.49-4.61v1.65c0 1.06 1.6 1.95 3.49 1.95s3.49-.89 3.49-1.95v-1.66h-6.98z"></path></g><g><path d="m55.03 48.85c0 1.35-1.78 2.45-3.99 2.45-2.2 0-3.99-1.1-3.99-2.45s1.8-2.45 3.99-2.45c2.21 0 3.99 1.09 3.99 2.45z" fill="#fcbb34"></path></g><g><path d="m51.04 51.8c-2.52 0-4.49-1.3-4.49-2.95s1.97-2.95 4.49-2.95 4.49 1.3 4.49 2.95-1.97 2.95-4.49 2.95zm0-4.9c-1.89 0-3.49.89-3.49 1.95s1.6 1.95 3.49 1.95 3.49-.89 3.49-1.95-1.6-1.95-3.49-1.95z"></path></g></g></g><g><path d="m44.48 44.18c0 2.8-3.28 4.98-7.49 4.98-4.19 0-7.48-2.18-7.48-4.98 0-2.79 3.28-4.97 7.48-4.97 4.21 0 7.49 2.18 7.49 4.97z" fill="#d2d1d4"></path></g><g><path d="m37 49.66c-4.47 0-7.98-2.41-7.98-5.48s3.5-5.47 7.98-5.47 7.99 2.4 7.99 5.47c-.01 3.07-3.52 5.48-7.99 5.48zm0-9.95c-3.91 0-6.98 1.96-6.98 4.47s3.06 4.48 6.98 4.48 6.99-1.97 6.99-4.48c-.01-2.51-3.08-4.47-6.99-4.47z"></path></g><g><g><path d="m40.82 22.33v20.41c0 2.18-1.77 3.93-3.94 3.93-2.18 0-3.93-1.75-3.93-3.93v-20.41z" fill="#fff"></path></g><g><path d="m36.88 47.18c-2.44 0-4.43-1.99-4.43-4.43v-20.42c0-.28.22-.5.5-.5h7.88c.28 0 .5.22.5.5v20.42c-.01 2.44-2 4.43-4.45 4.43zm-3.43-24.35v19.92c0 1.89 1.54 3.43 3.43 3.43 1.9 0 3.44-1.54 3.44-3.43v-19.92z"></path></g><g opacity=".1"><g><path d="m40.83 22.34v20.41c0 2.18-1.77 3.93-3.95 3.93-1.68 0-3.11-1.04-3.66-2.52.56.3 1.2.47 1.88.47 2.17 0 3.93-1.75 3.93-3.93v-18.36z"></path></g></g></g><g><g><path d="m47.39 15.5c0 5.8-4.71 10.5-10.5 10.5-5.8 0-10.51-4.7-10.51-10.5s4.71-10.5 10.51-10.5c5.79 0 10.5 4.7 10.5 10.5z" fill="#df1c1c"></path></g><g><path d="m36.89 26.5c-6.07 0-11.01-4.93-11.01-11s4.94-11 11.01-11c6.06 0 11 4.93 11 11s-4.94 11-11 11zm0-21c-5.52 0-10.01 4.49-10.01 10s4.49 10 10.01 10c5.51 0 10-4.49 10-10s-4.49-10-10-10z"></path></g><g opacity=".1"><g><path d="m47.39 15.49c0 5.8-4.71 10.5-10.5 10.5-2.37 0-4.58-.79-6.35-2.13.92.27 1.89.41 2.89.41 5.79 0 10.5-4.7 10.5-10.5 0-3.43-1.63-6.45-4.17-8.38 4.41 1.26 7.63 5.31 7.63 10.1z"></path></g></g></g></g></svg>