<svg enable-background="new 0 0 512 512" viewBox="0 0 512 512" xmlns="http://www.w3.org/2000/svg" id="fi_11892551"><g id="guides"></g><g id="icon"><path d="m431.356 112h-350.712l-56.644 122.729v107.918l34.412 57.353h395.177l34.411-57.353v-107.918z" fill="#231f20"></path><path d="m416 136h-320l-48 104h416z" fill="#f0eeef"></path><path d="m440 376h-368l-24-40v-24h416v24z" fill="#878787"></path><path d="m48 240h416v8h-416z" fill="#3d4951"></path><path d="m48 240h416v72h-416z" fill="#c6c8c3"></path><path d="m48 240h416v8h-416z" fill="#f9f9f9"></path><path d="m48 312h416v8h-416z" fill="#939393"></path><path d="m48 304h416v8h-416z" fill="#b5b5b5"></path><g><path d="m96 336h48v24h-48z" fill="#686868"></path><path d="m104 344h32v8h-32z" fill="#878787"></path><path d="m104 336h32v8h-32z" fill="#b5b5b5"></path></g><g><path d="m152 336h48v24h-48z" fill="#686868"></path><path d="m160 344h32v8h-32z" fill="#878787"></path><path d="m160 336h32v8h-32z" fill="#b5b5b5"></path></g><path d="m80 344h8v8h-8z" fill="#686868"></path><path d="m304 312h80v64h-80z" fill="#313233"></path><path d="m304 240h80v72h-80z" fill="#313233"></path><path d="m304 216h80v32h-80z" fill="#3b3d3f"></path><path d="m304 136h64l16 80h-80z" fill="#3b3d3f"></path><path d="m304 312h80v8h-80z" fill="#3b3d3f"></path><path d="m304 240h80v8h-80z" fill="#484a4c"></path><path d="m304 304h80v8h-80z" fill="#28292b"></path><path d="m304 216h80v4h-80z" fill="#28292b"></path><path d="m304 220h80v4h-80z" fill="#484a4c"></path><path d="m128 216h176v4h-176z" fill="#d8d8d8"></path><path d="m128 220h176v4h-176z" fill="#f9f9f9"></path><path d="m132 216h4v64h-4z" fill="#f9f9f9"></path><path d="m128 248h4v40h-4z" fill="#b5b5b5"></path><path d="m132 248h4v40h-4z" fill="#e0e0e0"></path><path d="m128 216h4v24h-4z" fill="#d8d8d8"></path><path d="m128 240h4v8h-4z" fill="#e2e2e2"></path><path d="m132 240h4v8h-4z" fill="#f0eeef"></path><path d="m128 292h176v4h-176z" fill="#e0e0e0"></path><path d="m128 288h176v4h-176z" fill="#b5b5b5"></path><path d="m304 292h80v4h-80z" fill="#484a4c" transform="matrix(-1 0 0 -1 688 588)"></path><path d="m304 288h80v4h-80z" fill="#28292b" transform="matrix(-1 0 0 -1 688 580)"></path><path d="m380 248h4v48h-4z" fill="#484a4c"></path><path d="m376 248h4v40h-4z" fill="#28292b"></path><path d="m380 216h4v24h-4z" fill="#484a4c"></path><path d="m376 216h4v24h-4z" fill="#28292b"></path><path d="m376 240h4v8h-4z" fill="#333435"></path><path d="m380 240h4v8h-4z" fill="#4e4f51"></path><g><path d="m369.6 144h-65.6v4h66.4z" fill="#28292b"></path><path d="m370.4 148h-66.4v4h67.2z" fill="#484a4c"></path></g><path d="m304 160v56h80l-11.2-56z" fill="#f0eeef"></path><path d="m240 280h32v8h-32z" fill="#e0e0e0"></path><path d="m152 264h40v8h-40z" fill="#e04b5d"></path><g><g><path d="m320 328h48v32h-48z" fill="#38393a"></path><path d="m324 332h8l8 8v16h-16z" fill="#28292b"></path><g fill="#231f20"><circle cx="328.8" cy="350.4" r="1.6"></circle><circle cx="335.2" cy="350.4" r="1.6"></circle><circle cx="328.8" cy="344" r="1.6"></circle><circle cx="335.2" cy="344" r="1.6"></circle><circle cx="328.8" cy="337.6" r="1.6"></circle></g></g><g><path d="m348 332h8l8 8v16h-16z" fill="#28292b"></path><g fill="#231f20"><circle cx="352.8" cy="350.4" r="1.6"></circle><circle cx="359.2" cy="350.4" r="1.6"></circle><circle cx="352.8" cy="344" r="1.6"></circle><circle cx="359.2" cy="344" r="1.6"></circle><circle cx="352.8" cy="337.6" r="1.6"></circle></g></g></g><g fill="#c9c9c9"><path d="m373.6 164h-69.6v4h70.4z"></path><path d="m375.2 172h-71.2v4h72z"></path><path d="m376.8 180h-72.8v4h73.6z"></path><path d="m378.4 188h-74.4v4h75.2z"></path><path d="m380 196h-76v4h76.8z"></path><path d="m381.6 204h-77.6v4h78.4z"></path><path d="m304 212v4h80l-.8-4z"></path></g></g></svg>