<?xml version="1.0" encoding="iso-8859-1"?>
<!-- Generator: Adobe Illustrator 19.0.0, SVG Export Plug-In . SVG Version: 6.00 Build 0)  -->
<svg version="1.1" id="Capa_1" xmlns="http://www.w3.org/2000/svg" xmlns:xlink="http://www.w3.org/1999/xlink" x="0px" y="0px"
	 viewBox="0 0 511.997 511.997" style="enable-background:new 0 0 511.997 511.997;" xml:space="preserve">
<path style="fill:#F2D422;" d="M40.983,402.547c-43.062-12.143-50.232-37.39-30.625-51.943
	c20.522-15.2,40.632-20.577,176.535-68.893l5.497,49.67l-97.232,34.818c-16.256,5.853-18.727,14.077-5.545,18.369
	c13.188,4.306,37.054,3.11,53.301-2.714l51.313-18.732l-7.334,48.975c-2.799,0.51-5.896,0.988-8.786,1.492
	C134.095,420.753,87.212,417.779,40.983,402.547"/>
<g>
	<path style="fill:#F4BD25;" d="M142.914,381.853c-13.339,4.781-31.812,6.441-45.297,4.498
		c-5.155,11.755,34.238,16.231,61.333,6.519l32.605-11.902l2.672-17.847L142.914,381.853z"/>
	<path style="fill:#F4BD25;" d="M26.393,361.621c18.179-13.464,49.052-23.571,49.052-23.571l113.227-40.254l-1.78-16.086
		C51.273,329.925,30.925,335.37,10.358,350.603c-16.616,12.333-13.991,32.343,13.401,45.552
		C12.313,384.39,13.952,370.855,26.393,361.621z"/>
</g>
<path style="fill:#4A94CC;" d="M262.563,418.736l156.453-55.774c16.257-5.816,18.716-14.074,5.542-18.368
	c-13.184-4.343-37.04-3.062-53.266,2.737L263.218,385.42l12.72-57.963l5.545-1.864c0,0,27.527-9.721,66.222-14.015
	c38.737-4.257,86.164,0.599,123.431,14.706c41.932,13.266,46.662,32.784,36.002,46.235c-10.679,13.454-36.784,23.056-36.784,23.056
	l-194.417,69.844L262.563,418.736z"/>
<g>
	<path style="fill:#2884BC;" d="M432.809,350.549c1.295,4.027-3.453,8.713-13.793,12.412l-156.453,55.774l4.46,15.564
		l174.991-62.936C464.303,363.39,459.072,351.964,432.809,350.549z"/>
	<path style="fill:#2884BC;" d="M304.484,333.994c0,0,27.527-9.721,66.222-14.015c35.76-3.931,78.906-0.075,114.647,11.636
		c-38.014-16.969-91.357-25.126-137.645-20.038c-38.696,4.293-66.222,14.015-66.222,14.015l-5.545,1.864l-4.356,19.846
		L304.484,333.994z"/>
</g>
<path style="fill:#EA473B;" d="M309.429,77.661c-26.253-8.868-72.527-22.9-109.047-30.853c-1.8-0.347-13.49-2.027-13.49,13.148
	v377.232l88.961,28.233V135.684c0-15.405,6.876-25.761,18.01-22.192c14.507,4.035,17.343,18.273,17.343,33.705v123.848
	c0,7.326,5.263,10.161,5.992,10.519c52.577,22.058,93.08-5.282,93.08-73.368C410.28,135.661,384.759,103.455,309.429,77.661z"/>
<g>
	<path style="fill:#D82B27;" d="M338.945,281.562c-0.729-0.358-5.992-3.193-5.992-10.519V147.196
		c0-15.431-2.837-29.669-17.343-33.705c-5.725-1.835-10.322,0.019-13.439,4.341c7.356,6.361,9.037,17.507,9.037,29.363v123.848
		c0,7.326,5.263,10.161,5.992,10.519c16.174,6.786,31.204,8.89,44.265,6.577C354.285,287.013,346.749,284.836,338.945,281.562z"/>
	<path style="fill:#D82B27;" d="M208.638,437.186c0-403.227-1.437-382.852,3.354-387.727c-3.95-0.94-7.834-1.83-11.609-2.652
		c-1.8-0.347-13.49-2.027-13.49,13.148v377.232l21.745,6.901V437.186z"/>
</g>
<polygon style="fill:#29A53D;" points="186.892,381.557 186.892,365.857 163.841,374.242 "/>
<polygon style="fill:#2884BC;" points="186.892,297.451 186.892,281.71 163.498,290.027 "/>
<polygon style="fill:#F2D422;" points="288.669,409.385 275.94,413.919 275.94,465.419 364.726,433.522 "/>
<polygon style="fill:#F4BD25;" points="275.94,431.093 313.971,417.414 288.733,409.405 275.94,413.967 "/>
<path style="fill:#3BBC56;" d="M284.713,324.529c-2.096,0.664-3.228,1.062-3.228,1.062l-5.545,1.864v53.477l88.371-31.142
	L284.713,324.529z"/>
<path style="fill:#29A53D;" d="M304.484,333.994c0,0,1.75-0.618,4.982-1.61l-24.753-7.856c-0.013,0.004-0.029,0.009-0.043,0.013
	c-1.285,0.407-2.205,0.713-2.715,0.887h-0.001c-0.201,0.068-0.336,0.115-0.407,0.14c-0.031,0.011-0.061,0.022-0.061,0.022
	l-5.545,1.864v18.085L304.484,333.994z"/>
<path style="fill:#3BBC56;" d="M412.794,365.177L282.03,411.75l76.086,24.147c120.34-43.232,116.173-41.222,127.906-47.479
	L412.794,365.177z"/>
<polygon style="fill:#29A53D;" points="282.098,411.771 307.366,419.79 437.455,373.003 412.797,365.178 "/>
<path style="fill:#3BBC56;" d="M169.391,287.932c-124.948,44.421-119.15,42.129-129.987,46.819l76.127,24.159l71.362-25.524v-39.899
	L169.391,287.932z"/>
<path style="fill:#29A53D;" d="M39.404,334.751l24.15,7.665c7.011-2.767,11.89-4.365,11.89-4.365l111.448-39.621v-4.944
	l-17.502-5.554C36.689,335.11,52.459,329.217,39.404,334.751z"/>
<g>
</g>
<g>
</g>
<g>
</g>
<g>
</g>
<g>
</g>
<g>
</g>
<g>
</g>
<g>
</g>
<g>
</g>
<g>
</g>
<g>
</g>
<g>
</g>
<g>
</g>
<g>
</g>
<g>
</g>
</svg>
