<svg height="384pt" viewBox="-2 0 384 384.248" width="384pt" xmlns="http://www.w3.org/2000/svg"><path d="m363.691406 304.246094c0 35.347656-28.652344 64-64 64-35.34375 0-64-28.652344-64-64 0-35.34375 28.65625-64 64-64 35.347656 0 64 28.65625 64 64zm0 0" fill="#cce4ff"/><path d="m235.691406 16.246094h128v128h-128zm0 0" fill="#cce4ff"/><path d="m27.691406 144.246094h128l-64-112zm0 0" fill="#cce4ff"/><g fill="#007aff"><path d="m299.691406 224.246094c-44.113281 0-80 35.890625-80 80 0 44.113281 35.886719 80 80 80 44.113282 0 80-35.886719 80-80 0-44.109375-35.886718-80-80-80zm0 128c-26.472656 0-48-21.527344-48-48 0-26.46875 21.527344-48 48-48s48 21.53125 48 48c0 26.472656-21.527344 48-48 48zm0 0"/><path d="m.125 160.246094h183.144531l-91.578125-160.246094zm55.136719-32 36.429687-63.75 36.433594 63.75zm0 0"/><path d="m219.691406 160.246094h160v-160h-160zm32-128h96v96h-96zm0 0"/><path d="m35.691406 382.878906 56-56 56 56 22.632813-22.632812-56-56 56-56-22.632813-22.628906-56 56-56-56-22.632812 22.628906 56 56-56 56zm0 0"/></g></svg>