<?xml version="1.0" encoding="iso-8859-1"?>
<!-- Generator: Adobe Illustrator 19.0.0, SVG Export Plug-In . SVG Version: 6.00 Build 0)  -->
<svg version="1.1" id="Capa_1" xmlns="http://www.w3.org/2000/svg" xmlns:xlink="http://www.w3.org/1999/xlink" x="0px" y="0px"
	 viewBox="0 0 512.001 512.001" style="enable-background:new 0 0 512.001 512.001;" xml:space="preserve">
<path style="fill:#4A94CC;" d="M512,339.911c0,6.828-5.535,12.363-12.363,12.363H12.363C5.536,352.274,0,346.74,0,339.911V172.089
	c0-6.827,5.536-12.363,12.363-12.363h487.275c6.828,0,12.363,5.536,12.363,12.363L512,339.911L512,339.911z"/>
<path style="fill:#2884BC;" d="M20.605,339.911V172.089c0-6.827,5.536-12.363,12.363-12.363H12.363
	C5.536,159.727,0,165.262,0,172.089v167.822c0,6.828,5.536,12.363,12.363,12.363h20.605C26.14,352.274,20.605,346.74,20.605,339.911
	z"/>
<g>
	<path style="fill:#F4F4F4;" d="M123.961,240.249c0-5.562-1.956-18.497-20.065-18.497H51.095c-1.138,0-2.06,0.923-2.06,2.061v4.347
		c0,1.138,0.923,2.06,2.06,2.06c0.122,0,48.64,0.003,48.762-0.005c7.455-0.548,10.022,5.164,10.022,10.034
		c0,5.112-1.223,9.889-10.017,10.227l-33.308,0.001c-10.316,0-17.519,7.949-17.519,19.331V288.3c0,1.138,0.923,2.06,2.06,2.06
		h10.063c1.138,0,2.06-0.923,2.06-2.06v-19.276c0-5.649,3.074-9.298,7.83-9.298h32.847
		C117.21,259.727,123.961,253.173,123.961,240.249z"/>
	<path style="fill:#F4F4F4;" d="M197.018,221.752H168.59c-12.276,0-19.037,6.604-19.037,18.595v31.32
		c0,6.058-3.519,10.128-8.756,10.128h-24.721c-1.138,0-2.06,0.923-2.06,2.061v4.347c0,1.138,0.923,2.06,2.06,2.06h28.634
		c13.084,0,19.445-6.083,19.445-18.597v-31.32c0-6.197,2.385-10.35,8.638-10.122l24.226-0.002c1.138,0,2.061-0.923,2.061-2.06
		v-4.349C199.078,222.674,198.155,221.752,197.018,221.752z"/>
	<path style="fill:#F4F4F4;" d="M281.836,221.662c-0.761,0-1.46,0.419-1.818,1.09c-4.096,7.676-24.595,46.085-25.844,48.447
		c-1.665,3.179-4.802,2.635-6.26-0.285l-25.946-48.169c-0.359-0.668-1.055-1.084-1.814-1.084c-12.112,0-12.273-0.32-13.067,0.999
		c-0.372,0.619-0.393,1.389-0.054,2.027c1.099,2.073,30.466,57.455,31.63,59.458c2.183,3.754,4.965,6.384,9.509,6.384
		c4.791,0,7.854-4.377,10.101-8.062c1.145-1.87,27.675-52.066,30.697-57.783c0.337-0.639,0.316-1.408-0.057-2.026
		C288.135,221.372,287.279,221.662,281.836,221.662z"/>
	<path style="fill:#F4F4F4;" d="M462.055,287.505c-3.131-5.904-30.617-57.728-31.61-59.434l-0.088-0.149
		c-1.149-1.974-3.54-6.079-9.118-6.379c-5.435-0.302-8.848,5.306-10.316,7.727c-1.563,2.563-29.566,55.585-30.968,58.238
		c-0.338,0.639-0.316,1.408,0.056,2.026c0.756,1.256,1.523,0.997,7.082,0.997c1.663,0,1.33-0.156,8.828-14.512l43.914,0.129
		c7.714,14.155,7.431,14.383,9.063,14.383h11.335c0.722,0,1.392-0.379,1.766-0.998C462.373,288.913,462.393,288.145,462.055,287.505
		z M435.302,267.561l-34.62-0.091c0.04-0.077,13.423-25.224,14.136-26.57c1.674-3.188,4.816-2.637,6.276,0.286L435.302,267.561z"/>
	<path style="fill:#F4F4F4;" d="M364.672,229.853l25.311,0.054c0.001,0,0.002,0,0.004,0c1.132,0,2.052-0.913,2.061-2.045
		l0.032-4.313c0.004-0.549-0.212-1.078-0.6-1.467c-0.386-0.389-0.913-0.608-1.461-0.608c-0.002,0-0.002,0-0.003,0l-1.188,0.002
		c-9.387,0.011-36.089,0.043-41.101,0.043h-22.172c-1.137,0-2.06,0.923-2.06,2.06v4.223c0,1.136,0.921,2.058,2.056,2.06
		l25.051,0.049v57.948c0,1.138,0.923,2.06,2.06,2.06h10.161c1.137,0,2.06-0.923,2.06-2.06l-0.001-48.305L364.672,229.853z"/>
	<path style="fill:#F4F4F4;" d="M312.144,221.892h-10.398c-1.138,0-2.06,0.923-2.06,2.06v64.293c0,1.138,0.923,2.06,2.06,2.06
		h10.398c1.139,0,2.06-0.923,2.06-2.06v-64.293C314.204,222.815,313.283,221.892,312.144,221.892z"/>
</g>
<g>
</g>
<g>
</g>
<g>
</g>
<g>
</g>
<g>
</g>
<g>
</g>
<g>
</g>
<g>
</g>
<g>
</g>
<g>
</g>
<g>
</g>
<g>
</g>
<g>
</g>
<g>
</g>
<g>
</g>
</svg>
