<svg id="fi_13587642" viewBox="0 0 64 64" xmlns="http://www.w3.org/2000/svg" data-name="Layer 2"><g fill="#506070"><path d="m58.21 3.5h-52.42a2.3 2.3 0 0 0 -2.29 2.29v36.42a2.29 2.29 0 0 0 2.29 2.29h52.42a2.29 2.29 0 0 0 2.29-2.29v-36.42a2.3 2.3 0 0 0 -2.29-2.29zm1.29 38.71a1.29 1.29 0 0 1 -1.29 1.29h-52.42a1.29 1.29 0 0 1 -1.29-1.29v-36.42a1.29 1.29 0 0 1 1.29-1.29h52.42a1.29 1.29 0 0 1 1.29 1.29z"></path><path d="m60.5 18v36.42a2.3 2.3 0 0 1 -2.29 2.29h-52.42a2.3 2.3 0 0 1 -2.29-2.29v-36.42h1v36.42a1.29 1.29 0 0 0 1.29 1.29h52.42a1.29 1.29 0 0 0 1.29-1.29v-36.42z"></path><path d="m11.5 3.5v41h41v-41zm40 40h-39v-39h39z"></path><path d="m46.29 14.88a3.59 3.59 0 0 0 -3.29-3.42 138.4 138.4 0 0 0 -22.21 0 3.57 3.57 0 0 0 -3.23 3.23 48 48 0 0 0 2 18.82 3.69 3.69 0 0 0 2.92 2.49 43.89 43.89 0 0 0 9.52 1 45 45 0 0 0 9.55-1 3.73 3.73 0 0 0 2.92-2.62 57.46 57.46 0 0 0 1.82-18.5zm-2.84 18.21a2.74 2.74 0 0 1 -2.16 1.91 43.17 43.17 0 0 1 -18.59 0 2.69 2.69 0 0 1 -2.11-1.76 46.92 46.92 0 0 1 -2-18.43 2.56 2.56 0 0 1 2.32-2.34c3.69-.3 7.4-.47 11.09-.47s7.31.15 10.94.44a2.58 2.58 0 0 1 2.33 2.47 56.3 56.3 0 0 1 -1.82 18.18z"></path><path d="m52.26 34.15-.76.45a38.39 38.39 0 0 1 -14.84 4.7l-.45.05h-.55c-.6.06-1.23.1-1.86.13s-1.28 0-1.92 0-1.05 0-1.57 0h-.09q-.79 0-1.56-.09h-.54-.46a38.57 38.57 0 0 1 -15.16-4.66l-.76-.44.52-.86.24.14a37.58 37.58 0 0 0 15.16 4.79h.55a41.71 41.71 0 0 0 7.9-.06l.55-.06a36.9 36.9 0 0 0 14.84-4.81l.24-.14z"></path><path d="m32 20.33c-11.5 0-11.5 1.13-11.5 1.5s0 1.5 11.5 1.5 11.5-1.13 11.5-1.5 0-1.5-11.5-1.5zm0 2a69.86 69.86 0 0 1 -9.5-.5 71.6 71.6 0 0 1 9.5-.5 71.6 71.6 0 0 1 9.5.5 69.86 69.86 0 0 1 -9.5.5z"></path><path d="m36.11 38.35a41.71 41.71 0 0 1 -7.9.06h-.55v2a1.14 1.14 0 0 0 1.13 1.14h6.73a1.14 1.14 0 0 0 1.14-1.14v-2zm-.45 2a.15.15 0 0 1 -.14.14h-6.73a.13.13 0 0 1 -.13-.14v-.86q.77.06 1.56.09h.09 1.57s1.28 0 1.92 0 1.26-.07 1.86-.13z"></path><path d="m16.81 39.53a1.79 1.79 0 0 0 -2.48.37 1.78 1.78 0 0 0 -.33 2.47 1.26 1.26 0 0 0 .91.36 2.24 2.24 0 0 0 1.56-.73 2.37 2.37 0 0 0 .67-1.21 1.35 1.35 0 0 0 -.33-1.26zm-.65 1.07a1.48 1.48 0 0 1 -.4.7c-.43.44-.92.5-1.06.36s-.08-.63.35-1.06a1.28 1.28 0 0 1 .84-.43.29.29 0 0 1 .21.07.4.4 0 0 1 .06.36z"></path><path d="m49.76 39.53a2.08 2.08 0 0 0 -2.76 2.84 1.27 1.27 0 0 0 .92.36 1.45 1.45 0 0 0 .35 0 2.41 2.41 0 0 0 1.16-.73 2.25 2.25 0 0 0 .7-1.55 1.24 1.24 0 0 0 -.37-.92zm-1 1.77a1.5 1.5 0 0 1 -.7.41c-.17 0-.3 0-.36-.05s-.12-.66.3-1.06a1.32 1.32 0 0 1 .85-.43.31.31 0 0 1 .21.07.28.28 0 0 1 .07.21 1.31 1.31 0 0 1 -.41.85z"></path><path d="m18.93 40.86h1v1h-1z"></path><path d="m20.93 40.86h1v1h-1z"></path><path d="m22.93 40.86h1v1h-1z"></path><path d="m40.39 40.86h1v1h-1z"></path><path d="m42.39 40.86h1v1h-1z"></path><path d="m44.39 40.86h1v1h-1z"></path><path d="m4 21.33h8v1h-8z"></path><path d="m18.5 53.34v2.87h-1v-2.46l-5.04-5.04h-8.46v-1h8.87z"></path><path d="m60 47.71v1h-8.46l-5.04 5.04v2.46h-1v-2.87l5.63-5.63z"></path><path d="m23.75 51.53v3h6v-3zm5 2h-4v-1h4z"></path><path d="m34.57 51.53v3h6v-3zm5 2h-4v-1h4z"></path><path d="m16.16 4 6 6h19.68l6-6zm25.27 5h-18.86l-4-4h26.86z"></path><path d="m24.38 5.76v2.5h15v-2.5zm14 1.5h-13v-.5h13z"></path><path d="m58.21 3.5h-52.42a2.3 2.3 0 0 0 -2.29 2.29v36.42a2.29 2.29 0 0 0 2.29 2.29h52.42a2.29 2.29 0 0 0 2.29-2.29v-36.42a2.3 2.3 0 0 0 -2.29-2.29zm1.29 38.71a1.29 1.29 0 0 1 -1.29 1.29h-52.42a1.29 1.29 0 0 1 -1.29-1.29v-36.42a1.29 1.29 0 0 1 1.29-1.29h52.42a1.29 1.29 0 0 1 1.29 1.29z"></path></g><path d="m59.5 5.79v36.42a1.29 1.29 0 0 1 -1.29 1.29h-5.71v-39h5.71a1.29 1.29 0 0 1 1.29 1.29z" fill="#fff"></path><path d="m11.5 22.33v21.17h-5.71a1.29 1.29 0 0 1 -1.29-1.29v-19.88z" fill="#fff"></path><path d="m11.5 4.5v16.83h-7v-15.54a1.29 1.29 0 0 1 1.29-1.29z" fill="#fff"></path><path d="m60.5 18v36.42a2.3 2.3 0 0 1 -2.29 2.29h-52.42a2.3 2.3 0 0 1 -2.29-2.29v-36.42h1v36.42a1.29 1.29 0 0 0 1.29 1.29h52.42a1.29 1.29 0 0 0 1.29-1.29v-36.42z" fill="#506070"></path><path d="m11.5 3.5v41h41v-41zm40 40h-39v-39h39z" fill="#506070"></path><path d="m36.66 39.3v1a1.14 1.14 0 0 1 -1.14 1.14h-6.73a1.14 1.14 0 0 1 -1.13-1.14v-1a38.57 38.57 0 0 1 -15.16-4.57v8.77h39v-8.9a38.39 38.39 0 0 1 -14.84 4.7zm-19.52 1.49a2.37 2.37 0 0 1 -.67 1.21 2.24 2.24 0 0 1 -1.56.73 1.26 1.26 0 0 1 -.91-.36 1.78 1.78 0 0 1 .33-2.47 1.79 1.79 0 0 1 2.48-.37 1.35 1.35 0 0 1 .33 1.26zm2.79 1.07h-1v-1h1zm2 0h-1v-1h1zm2 0h-1v-1h1zm17.46 0h-1v-1h1zm2 0h-1v-1h1zm2 0h-1v-1h1zm4 .14a2.41 2.41 0 0 1 -1.21.69 1.45 1.45 0 0 1 -.35 0 1.27 1.27 0 0 1 -.92-.36 2.08 2.08 0 0 1 2.81-2.84 1.24 1.24 0 0 1 .37.92 2.25 2.25 0 0 1 -.66 1.59z" fill="#fff"></path><path d="m47.34 4.5-5.5 5.5h-19.68l-5.5-5.5h-4.16v29.07a37.58 37.58 0 0 0 15.16 4.79h.55a41.71 41.71 0 0 0 7.9-.06l.55-.06a36.9 36.9 0 0 0 14.84-4.81v-28.93zm-2.92 28.86a3.73 3.73 0 0 1 -2.92 2.64 45 45 0 0 1 -9.5 1 43.89 43.89 0 0 1 -9.47-1 3.69 3.69 0 0 1 -2.85-2.45 48 48 0 0 1 -2-18.82 3.57 3.57 0 0 1 3.23-3.23 138.4 138.4 0 0 1 22.21 0 3.59 3.59 0 0 1 3.25 3.42 57.46 57.46 0 0 1 -1.95 18.44z" fill="#fff"></path><path d="m46.29 14.88a3.59 3.59 0 0 0 -3.29-3.42 138.4 138.4 0 0 0 -22.21 0 3.57 3.57 0 0 0 -3.23 3.23 48 48 0 0 0 2 18.82 3.69 3.69 0 0 0 2.92 2.49 43.89 43.89 0 0 0 9.52 1 45 45 0 0 0 9.55-1 3.73 3.73 0 0 0 2.92-2.62 57.46 57.46 0 0 0 1.82-18.5zm-2.84 18.21a2.74 2.74 0 0 1 -2.16 1.91 43.17 43.17 0 0 1 -18.59 0 2.69 2.69 0 0 1 -2.11-1.76 46.92 46.92 0 0 1 -2-18.43 2.56 2.56 0 0 1 2.32-2.34c3.69-.3 7.4-.47 11.09-.47s7.31.15 10.94.44a2.58 2.58 0 0 1 2.33 2.47 56.3 56.3 0 0 1 -1.82 18.18z" fill="#506070"></path><path d="m45.29 14.93a2.58 2.58 0 0 0 -2.29-2.47c-3.67-.29-7.33-.46-11-.46s-7.42.15-11.1.45a2.56 2.56 0 0 0 -2.32 2.34 46.92 46.92 0 0 0 2 18.43 2.69 2.69 0 0 0 2.12 1.78 43.17 43.17 0 0 0 18.59 0 2.74 2.74 0 0 0 2.16-1.91 56.3 56.3 0 0 0 1.84-18.16zm-13.29 8.4c-11.5 0-11.5-1.13-11.5-1.5s0-1.5 11.5-1.5 11.5 1.13 11.5 1.5 0 1.5-11.5 1.5z" fill="#fff"></path><path d="m52.26 34.15-.76.45a38.39 38.39 0 0 1 -14.84 4.7l-.45.05h-.55c-.6.06-1.23.1-1.86.13s-1.28 0-1.92 0-1.05 0-1.57 0h-.09q-.79 0-1.56-.09h-.54-.46a38.57 38.57 0 0 1 -15.16-4.66l-.76-.44.52-.86.24.14a37.58 37.58 0 0 0 15.16 4.79h.55a41.71 41.71 0 0 0 7.9-.06l.55-.06a36.9 36.9 0 0 0 14.84-4.81l.24-.14z" fill="#506070"></path><path d="m32 20.33c-11.5 0-11.5 1.13-11.5 1.5s0 1.5 11.5 1.5 11.5-1.13 11.5-1.5 0-1.5-11.5-1.5zm0 2a69.86 69.86 0 0 1 -9.5-.5 71.6 71.6 0 0 1 9.5-.5 71.6 71.6 0 0 1 9.5.5 69.86 69.86 0 0 1 -9.5.5z" fill="#758696"></path><ellipse cx="32" cy="21.83" fill="#506070" rx="9.5" ry=".5"></ellipse><path d="m36.11 38.35a41.71 41.71 0 0 1 -7.9.06h-.55v2a1.14 1.14 0 0 0 1.13 1.14h6.73a1.14 1.14 0 0 0 1.14-1.14v-2z" fill="#fe533f"></path><path d="m35.66 40.31a.15.15 0 0 1 -.14.14h-6.73a.13.13 0 0 1 -.13-.14v-.86q.77.06 1.56.09h.09 1.57s1.28 0 1.92 0 1.26-.07 1.86-.13z" fill="#fe533f"></path><path d="m16.81 39.53a1.79 1.79 0 0 0 -2.48.37 1.78 1.78 0 0 0 -.33 2.47 1.26 1.26 0 0 0 .91.36 2.24 2.24 0 0 0 1.56-.73 2.37 2.37 0 0 0 .67-1.21 1.35 1.35 0 0 0 -.33-1.26z" fill="#758696"></path><path d="m49.76 39.53a2.08 2.08 0 0 0 -2.76 2.84 1.27 1.27 0 0 0 .92.36 1.45 1.45 0 0 0 .35 0 2.41 2.41 0 0 0 1.16-.73 2.25 2.25 0 0 0 .7-1.55 1.24 1.24 0 0 0 -.37-.92z" fill="#758696"></path><path d="m18.93 40.86h1v1h-1z" fill="#506070"></path><path d="m20.93 40.86h1v1h-1z" fill="#506070"></path><path d="m22.93 40.86h1v1h-1z" fill="#506070"></path><path d="m40.39 40.86h1v1h-1z" fill="#506070"></path><path d="m42.39 40.86h1v1h-1z" fill="#506070"></path><path d="m44.39 40.86h1v1h-1z" fill="#506070"></path><path d="m4 21.33h8v1h-8z" fill="#506070"></path><path d="m17.5 53.75v2h-11.71a1.29 1.29 0 0 1 -1.29-1.33v-5.71h8z" fill="#c1d2e4"></path><path d="m18.5 53.34v2.87h-1v-2.46l-5.04-5.04h-8.46v-1h8.87z" fill="#506070"></path><path d="m59.5 48.71v5.71a1.29 1.29 0 0 1 -1.29 1.29h-11.71v-2l5-5z" fill="#c1d2e4"></path><path d="m60 47.71v1h-8.46l-5.04 5.04v2.46h-1v-2.87l5.63-5.63z" fill="#506070"></path><path d="m23.75 51.53h6v3h-6z" fill="#506070"></path><path d="m24.75 52.53h4v1h-4z" fill="#2b353e"></path><path d="m34.57 51.53h6v3h-6z" fill="#506070"></path><path d="m35.57 52.53h4v1h-4z" fill="#2b353e"></path><path d="m58.21 44.5h-52.42a2.29 2.29 0 0 1 -1.29-.4v3.61h8.37l5.63 5.63v2.37h27v-2.37l5.63-5.63h8.37v-3.61a2.29 2.29 0 0 1 -1.29.4zm-28.46 10h-6v-3h6zm10.82 0h-6v-3h6z" fill="#c1d2e4"></path><path d="m16.16 4 6 6h19.68l6-6zm25.27 5h-18.86l-4-4h26.86z" fill="#506070"></path><path d="m18.57 5 4 4h18.86l4-4zm20.81 3.26h-15v-2.5h15z" fill="#fff"></path><path d="m24.38 5.76h15v2.5h-15z" fill="#758696"></path><path d="m25.38 6.76h13v.5h-13z" fill="#506070"></path></svg>