<svg version="1.1" id="fi_871390" xmlns="http://www.w3.org/2000/svg" xmlns:xlink="http://www.w3.org/1999/xlink" x="0px" y="0px" viewBox="0 0 512 512" style="enable-background:new 0 0 512 512;" xml:space="preserve">
<g>
	<path style="fill:#015E82;" d="M323.834,180.667H256L216,257l40,74.262l67.834-0.07c8.271,0,15,6.729,15,15s-6.729,15-15,15H256
		l-40,75.404L256,512h67.834c91.349,0,165.666-74.318,165.666-165.667S415.183,180.667,323.834,180.667z"></path>
    <polygon style="fill:#015E82;" points="474.5,150.522 474.5,90.193 444.5,75.263 474.5,60.193 474.5,0 256,0 216,75.263
		256,150.579 	"></polygon>
</g>
    <g>
	<polygon style="fill:#007CAA;" points="37.5,361.193 37.5,421.667 67.5,436.737 37.5,451.667 37.5,512 256,512 256,361.193 	"></polygon>
        <path style="fill:#007CAA;" d="M188.166,180.667c-8.271,0-15-6.761-15-15.07c0-8.271,6.729-15,15.004-15L256,150.58V0h-67.834
		C96.817,0,22.5,74.318,22.5,165.667s74.317,165.667,165.682,165.667l67.818-0.07V180.667H188.166z"></path>
</g>
    <g>
	<path style="fill:#AAE8FD;" d="M323.834,271c41.539,0,75.333,33.794,75.333,75.334c0,41.539-33.794,75.333-75.333,75.333H256
		l-20,15l20,15h67.834c58.081,0,105.333-47.252,105.333-105.333c0-58.082-47.252-105.334-105.333-105.334H256l-20,15l20,15H323.834z
		"></path>
        <polygon style="fill:#AAE8FD;" points="474.5,90.193 474.5,60.193 256,60.247 236,75.247 256,90.247 	"></polygon>
</g>
    <g>
	<rect x="37.5" y="421.67" style="fill:#FFFFFF;" width="218.5" height="30"></rect>
        <path style="fill:#FFFFFF;" d="M112.833,165.596c0-41.539,33.794-75.333,75.337-75.333L256,90.247v-30l-67.834,0.017
		c-58.081,0-105.333,47.252-105.333,105.333c0,58.12,47.252,105.403,105.333,105.403H256v-30h-67.834
		C146.627,241,112.833,207.174,112.833,165.596z"></path>
</g>
    <g>
</g>
    <g>
</g>
    <g>
</g>
    <g>
</g>
    <g>
</g>
    <g>
</g>
    <g>
</g>
    <g>
</g>
    <g>
</g>
    <g>
</g>
    <g>
</g>
    <g>
</g>
    <g>
</g>
    <g>
</g>
    <g>
</g>
</svg>