<svg enable-background="new 0 0 512 512" viewBox="0 0 512 512" xmlns="http://www.w3.org/2000/svg" id="fi_11895030"><g id="guides"></g><g id="icon"><path d="m238.059 128-8 8h-132.118l-8-8h-49.941v256h432v-256z" fill="#231f20"></path><path d="m64 328h16l8 8h152l8-8h200v32h-384z" fill="#394443"></path><path d="m64 152h16v168h-16z" fill="#4a5554"></path><path d="m64 328h16l8 8h151.958v-8h-151.958l-8-8h-16z" fill="#5d6867"></path><path d="m80 152 8 8v168l-8-8z" fill="#394443"></path><path d="m248 152h200v48h-200z" fill="#4a5554"></path><path d="m248 152-8 8v48l8-8z" fill="#394443"></path><path d="m88 160h152v168h-152z" fill="#424c4b"></path><path d="m240 208 8-8h200v8z" fill="#5d6867"></path><path d="m240 208h208v104h-208z" fill="#424c4b"></path><path d="m240 328 8-8v8l-8 8z" fill="#5d6867"></path><path d="m248 320h200v8h-200z" fill="#5d6867"></path><path d="m248 304h200v16h-200z" fill="#4a5554"></path><path d="m248 304-8 8v16l8-8z" fill="#394443"></path><path d="m96 168h136v152h-136z" fill="#212827"></path><path d="m232 216h208v88h-208z" fill="#212827"></path><g><path d="m64 344h384v4h-384z" fill="#212827"></path><path d="m64 348h384v4h-384z" fill="#424c4b"></path></g><g fill="none" stroke="#898a8e" stroke-linecap="round" stroke-linejoin="round" stroke-miterlimit="10"><path d="m232 296v-72"></path><path d="m240 296v-72"></path><path d="m248 296v-72"></path><path d="m256 296v-72"></path><path d="m264 296v-72"></path><path d="m272 296v-72"></path><path d="m280 296v-72"></path><path d="m288 296v-72"></path><path d="m296 296v-72"></path><path d="m304 296v-72"></path><path d="m312 296v-72"></path></g><path d="m128 176h72v8h-72z" fill="#898a8e"></path><path d="m120 184h-12c-2.209 0-4 1.791-4 4v120c0 2.209 1.791 4 4 4h112c2.209 0 4-1.791 4-4v-120c0-2.209-1.791-4-4-4h-12" fill="none" stroke="#ff2e2e" stroke-miterlimit="10"></path><g fill="#898a8e"><path d="m112 193.47v109.06l50.635-54.53z"></path><path d="m214.635 192h-101.27l50.635 54.53z"></path><path d="m113.365 304h101.27l-50.635-54.53z"></path><path d="m216 302.53v-109.06l-50.635 54.53z"></path></g><path d="m192 288h-56c-8.837 0-16-7.163-16-16v-48c0-8.837 7.163-16 16-16h56c8.837 0 16 7.163 16 16v48c0 8.837-7.163 16-16 16z" fill="#212827"></path><g><path d="m192 280h-56c-4.418 0-8-3.582-8-8v-56c0-4.418 3.582-8 8-8h56c4.418 0 8 3.582 8 8v56c0 4.418-3.582 8-8 8z" fill="#394443"></path><path d="m192 272h-56c-4.418 0-8-3.582-8-8v-56c0-4.418 3.582-8 8-8h56c4.418 0 8 3.582 8 8v56c0 4.418-3.582 8-8 8z" fill="#4a5554"></path></g><circle cx="164" cy="236" fill="#394443" r="12"></circle><g style="fill:none;stroke:#394443;stroke-linecap:round;stroke-linejoin:round;stroke-miterlimit:10;stroke-width:2"><g><path d="m164 208v8"></path><path d="m164 256v8"></path></g><g><path d="m192 236h-8"></path><path d="m144 236h-8"></path></g><g><path d="m183.799 255.799-5.657-5.657"></path><path d="m149.858 221.858-5.657-5.657"></path></g><g><path d="m144.201 255.799 5.657-5.657"></path><path d="m178.142 221.858 5.657-5.657"></path></g></g><path d="m320 248h48v48h-48z" fill="#898a8e"></path><g><path d="m328 272c0 8.837 7.163 16 16 16s16-7.163 16-16v-8h-32z" fill="#394443"></path><circle cx="344" cy="264" fill="#4a5554" r="16"></circle></g><path d="m376 248h48v48h-48z" fill="#898a8e"></path><g><path d="m384 272c0 8.837 7.163 16 16 16s16-7.163 16-16v-8h-32z" fill="#394443"></path><circle cx="400" cy="264" fill="#4a5554" r="16"></circle></g><g fill="#ff2e2e"><path d="m376 224h48v16h-48z"></path><path d="m320 224h48v16h-48z"></path></g></g></svg>