<svg version="1.1" id="fi_588253" xmlns="http://www.w3.org/2000/svg" xmlns:xlink="http://www.w3.org/1999/xlink" x="0px" y="0px" viewBox="0 0 512 512" style="enable-background:new 0 0 512 512;" xml:space="preserve">
<path style="fill:#4A94CC;" d="M512,339.911c0,6.827-5.536,12.363-12.363,12.363H12.363C5.536,352.274,0,346.738,0,339.911V172.089
	c0-6.828,5.536-12.363,12.363-12.363h487.274c6.827,0,12.363,5.534,12.363,12.363V339.911z"></path>
    <path style="fill:#2884BC;" d="M20.605,339.911V172.089c0-6.828,5.536-12.363,12.363-12.363H12.363
	C5.536,159.726,0,165.261,0,172.089V339.91c0,6.827,5.536,12.363,12.363,12.363h20.605
	C26.141,352.274,20.605,346.738,20.605,339.911z"></path>
    <g>
	<path style="fill:#F4F4F4;" d="M401.313,279.204h-10.254c-1.423,0-2.576,1.153-2.576,2.576v9.19c0,1.423,1.153,2.576,2.576,2.576
		c3.619,0,25.298,0,28.919,0c1.895,0,3.144-1.984,2.32-3.692l-20.204-60.268c-5.493-18.244-9.94-17.903-15.321-0.178
		c-29.546,87.025-28.136,81.44-27.034,82.975c0.483,0.675,1.262,1.076,2.093,1.076h11.397c1.103,0,2.085-0.703,2.439-1.748
		l18.265-53.807L401.313,279.204z"></path>
        <path style="fill:#F4F4F4;" d="M332.248,201.184h-53.74c-14.931,0-27.076,12.106-27.076,26.989v58.299
		c0,14.879,12.146,26.985,27.076,26.985h53.74c1.423,0,2.576-1.153,2.576-2.576v-67.367c0-1.423-1.153-2.576-2.576-2.576h-38.361
		c-1.423,0-2.576,1.153-2.576,2.576v7.738c0,1.423,1.153,2.576,2.576,2.576h26.67v45.416h-40.721
		c-7.795,0-14.136-6.322-14.136-14.094v-55.651c0-7.773,6.34-14.096,14.136-14.096h52.412c1.423,0,2.576-1.153,2.576-2.576v-9.066
		C334.824,202.337,333.671,201.184,332.248,201.184z"></path>
        <path style="fill:#F4F4F4;" d="M332.248,221.06h-48.422c-6.866,0-12.452,5.569-12.452,12.413v47.698
		c0,6.844,5.586,12.412,12.452,12.412h28.483c1.423,0,2.576-1.153,2.576-2.576v-28.945c0-1.423-1.153-2.576-2.576-2.576h-18.422
		c-1.423,0-2.576,1.153-2.576,2.576v9.068c0,1.423,1.153,2.576,2.576,2.576h6.725v5.659h-10.141c-2.66,0-4.825-2.162-4.825-4.819
		v-34.45c0-2.657,2.165-4.818,4.825-4.818h41.777c1.423,0,2.576-1.153,2.576-2.576v-9.067
		C334.824,222.213,333.671,221.06,332.248,221.06z"></path>
        <path style="fill:#F4F4F4;" d="M240.53,201.184h-53.744c-14.929,0-27.074,12.106-27.074,26.989v57.676
		c0,14.879,12.146,26.985,27.074,26.985h53.744c1.423,0,2.576-1.153,2.576-2.576v-9.068c0-1.423-1.153-2.576-2.576-2.576h-52.412
		c-7.793,0-14.134-6.319-14.134-14.087v-55.029c0-7.773,6.34-14.096,14.134-14.096h52.412c1.423,0,2.576-1.153,2.576-2.576v-9.066
		C243.106,202.337,241.953,201.184,240.53,201.184z"></path>
        <path style="fill:#F4F4F4;" d="M240.53,221.06h-48.426c-6.866,0-12.452,5.569-12.452,12.413v17.778
		c0,1.423,1.153,2.576,2.576,2.576h46.339c1.423,0,2.576-1.153,2.576-2.576v-7.738c0-1.423-1.153-2.576-2.576-2.576h-34.646v-0.841
		c0-2.657,2.165-4.818,4.825-4.818h41.783c1.423,0,2.576-1.153,2.576-2.576v-9.067C243.106,222.213,241.953,221.06,240.53,221.06z"></path>
        <path style="fill:#F4F4F4;" d="M240.53,279.366h-41.783c-2.66,0-4.825-2.162-4.825-4.819v-0.84h34.646
		c1.423,0,2.576-1.153,2.576-2.576v-7.745c0-1.423-1.153-2.576-2.576-2.576h-46.339c-1.423,0-2.576,1.153-2.576,2.576v17.786
		c0,6.844,5.586,12.412,12.452,12.412h48.426c1.423,0,2.576-1.153,2.576-2.576v-9.067
		C243.106,280.519,241.953,279.366,240.53,279.366z"></path>
        <path style="fill:#F4F4F4;" d="M418.391,216.609c-6.946-24.055-41.315-23.885-48.19-0.053
		c-33.264,101.012-31.541,94.31-30.437,95.834c0.995,1.38,1.526,1.067,10.872,1.067c1.103,0,2.083-0.7,2.439-1.743
		c0.03-0.089,31.505-92.193,31.529-92.284c2.98-10.64,16.385-10.641,19.365,0c0.014,0.046,0.028,0.093,0.042,0.138l27.175,79.513
		l-40.125,0.007c-1.423,0-2.576,1.153-2.576,2.576l-0.002,9.216c0,1.424,1.156,2.577,2.576,2.577c0.078,0,55.686,0,55.686,0
		c1.423,0,2.576-1.153,2.576-2.576C449.32,310.339,418.56,217.124,418.391,216.609z"></path>
        <path style="fill:#F4F4F4;" d="M147.48,201.184H99.055c-20.058,0-36.377,16.267-36.377,36.261c0,20.55,18.427,35.565,34.213,36.095
		c6.963,0.21,3.736,0.167,15.458,0.167c4.623,0,4.625,6.982,0,6.982H65.254c-1.423,0-2.576,1.153-2.576,2.576v7.744
		c0,1.423,1.153,2.576,2.576,2.576c0.093,0,48.347,0.002,48.44-0.001c9.212-0.333,16.426-7.822,16.426-17.049
		c0-9.399-7.673-17.046-17.102-17.046H92.69c-9.69-3.682-15.741-12.613-15.741-21.381c0-12.308,11.037-22.706,24.1-22.706h46.431
		c1.423,0,2.576-1.153,2.576-2.576v-9.066C150.056,202.337,148.903,201.184,147.48,201.184z"></path>
        <path style="fill:#F4F4F4;" d="M147.48,221.066l-48.299-0.004c-9.288,0.336-16.566,7.824-16.566,17.049
		c0,9.399,7.675,17.045,17.11,17.045h20.319l0.145,0.055c9.184,3.494,15.597,12.264,15.597,21.327
		c0,12.307-11.035,22.704-24.098,22.704H65.254c-1.423,0-2.576,1.153-2.576,2.576v9.068c0,1.423,1.153,2.576,2.576,2.576h48.426
		c20.058,0,36.377-16.268,36.377-36.262c0-20.473-18.317-35.535-34.213-36.096c-7.038-0.21-3.797-0.167-15.456-0.167
		c-4.623,0-4.628-6.981,0-6.981h47.093c1.423,0,2.576-1.153,2.576-2.576v-7.739C150.056,222.219,148.903,221.066,147.48,221.066z"></path>
</g>
    <g>
</g>
    <g>
</g>
    <g>
</g>
    <g>
</g>
    <g>
</g>
    <g>
</g>
    <g>
</g>
    <g>
</g>
    <g>
</g>
    <g>
</g>
    <g>
</g>
    <g>
</g>
    <g>
</g>
    <g>
</g>
    <g>
</g>
</svg>