<svg id="fi_13587608" viewBox="0 0 64 64" xmlns="http://www.w3.org/2000/svg" data-name="Layer 2"><g fill="#2b353e"><path d="m39.38 39.69v-.64a2.36 2.36 0 0 1 -2.38 2.36h2.4a3 3 0 0 0 .33-.38 2.73 2.73 0 0 1 -.35-1.34zm0 0v-.64a2.36 2.36 0 0 1 -2.38 2.36h2.4a3 3 0 0 0 .33-.38 2.73 2.73 0 0 1 -.35-1.34zm0 0v-.64a2.36 2.36 0 0 1 -2.38 2.36h2.4a3 3 0 0 0 .33-.38 2.73 2.73 0 0 1 -.35-1.34zm0 0v-.64a2.36 2.36 0 0 1 -2.38 2.36h2.4a3 3 0 0 0 .33-.38 2.73 2.73 0 0 1 -.35-1.34zm0 0v-.64a2.36 2.36 0 0 1 -2.38 2.36h2.4a3 3 0 0 0 .33-.38 2.73 2.73 0 0 1 -.35-1.34zm0 0v-.64a2.36 2.36 0 0 1 -2.38 2.36h2.4a3 3 0 0 0 .33-.38 2.73 2.73 0 0 1 -.35-1.34zm.35-25a3.35 3.35 0 0 0 -2.73-1.41h-33.64a3.37 3.37 0 0 0 -3.36 3.36v22.41a3.36 3.36 0 0 0 1.23 2.59 1.35 1.35 0 0 0 .27.2 2.86 2.86 0 0 0 .42.24 4.22 4.22 0 0 0 .45.18 3.25 3.25 0 0 0 1 .15h33.63.34.2a1.86 1.86 0 0 0 .34-.07 1.13 1.13 0 0 0 .24-.08 1.43 1.43 0 0 0 .34-.14l.17-.09.31-.19a1.25 1.25 0 0 0 .19-.15l.24-.22s0 0 0 0a3 3 0 0 0 .33-.38 3.31 3.31 0 0 0 .65-2v-22.45a3.3 3.3 0 0 0 -.62-1.97zm-.35 24.38a2.36 2.36 0 0 1 -2.38 2.34h-33.64a2.36 2.36 0 0 1 -2.36-2.36v-22.41a2.36 2.36 0 0 1 2.36-2.36h33.64a2.36 2.36 0 0 1 2.36 2.36zm0 .64v-.64a2.36 2.36 0 0 1 -2.38 2.34h2.4a3 3 0 0 0 .33-.38 2.73 2.73 0 0 1 -.35-1.34zm0 0v-.64a2.36 2.36 0 0 1 -2.38 2.34h2.4a3 3 0 0 0 .33-.38 2.73 2.73 0 0 1 -.35-1.34zm0 0v-.64a2.36 2.36 0 0 1 -2.38 2.34h2.4a3 3 0 0 0 .33-.38 2.73 2.73 0 0 1 -.35-1.34zm0 0v-.64a2.36 2.36 0 0 1 -2.38 2.34h2.4a3 3 0 0 0 .33-.38 2.73 2.73 0 0 1 -.35-1.34zm0 0v-.64a2.36 2.36 0 0 1 -2.38 2.34h2.4a3 3 0 0 0 .33-.38 2.73 2.73 0 0 1 -.35-1.34z"></path><path d="m39.38 38.53v.52h1v-.52zm21.9-25.25h-19.19a2.73 2.73 0 0 0 -2.71 2.72v23.69a2.73 2.73 0 0 0 .35 1.31 4 4 0 0 0 .23.34 1.29 1.29 0 0 0 .16.18 2.4 2.4 0 0 0 .59.46 1.49 1.49 0 0 0 .36.17 1.25 1.25 0 0 0 .25.09 2.29 2.29 0 0 0 .36.07 2.22 2.22 0 0 0 .37 0h4.77.83.13c.25 0 .51 0 .76-.06s.59-.06.88-.11l.75-.13a16.62 16.62 0 0 0 2.53-.71c.27-.1.53-.2.78-.31l.64-.29.6-.3a16.45 16.45 0 0 0 2.48-1.57c.34-.26.66-.53 1-.81l.15-.14.6-.57.57-.59c.17-.19.34-.39.5-.59l.51-.64.45-.63.11-.16c.23-.36.46-.72.67-1.1s.34-.62.49-.94.21-.44.3-.67.21-.48.3-.73a17.15 17.15 0 0 0 1.09-6v-9.26a2.72 2.72 0 0 0 -2.66-2.72zm-14.42 28.13h-4.77a1.71 1.71 0 0 1 -1.71-1.72v-23.69a1.71 1.71 0 0 1 1.71-1.72h19.19a1.72 1.72 0 0 1 1.72 1.72v9.27a16.16 16.16 0 0 1 -16.14 16.14zm-7.48-2.88v.52h1v-.52zm0 0v.52h1v-.52z"></path><path d="m63 25.27a16.16 16.16 0 0 1 -16.14 16.14h-4.77a1.71 1.71 0 0 1 -1.71-1.72v-.64h-1a2.36 2.36 0 0 1 -2.38 2.36h-33.64a2.36 2.36 0 0 1 -2.36-2.36h-1v4.31a3.37 3.37 0 0 0 3.36 3.36h43.5a17.16 17.16 0 0 0 17.14-17.14v-4.31zm-16.14 20.45h-43.5a2.36 2.36 0 0 1 -2.36-2.36v-1.92l.23.2a1.35 1.35 0 0 0 .27.2 2.86 2.86 0 0 0 .42.24 4.22 4.22 0 0 0 .45.18 3.25 3.25 0 0 0 1 .15h33.63.34.2a1.86 1.86 0 0 0 .34-.07 1.13 1.13 0 0 0 .24-.08 1.43 1.43 0 0 0 .34-.14l.17-.09.31-.19a1.25 1.25 0 0 0 .19-.15l.24-.22s0 0 0 0a3 3 0 0 0 .33-.38 4 4 0 0 0 .23.34 1.29 1.29 0 0 0 .16.18 2.4 2.4 0 0 0 .59.46 1.49 1.49 0 0 0 .36.17 1.25 1.25 0 0 0 .25.09 2.29 2.29 0 0 0 .36.07 2.22 2.22 0 0 0 .37 0h4.77.83.13c.25 0 .51 0 .76-.06s.59-.06.88-.11l.75-.13a16.62 16.62 0 0 0 2.53-.71c.27-.1.53-.2.78-.31l.64-.29.6-.3a16.45 16.45 0 0 0 2.48-1.57c.34-.26.66-.53 1-.81l.15-.14.6-.57.57-.59c.17-.19.34-.39.5-.59l.51-.64.45-.63.11-.16c.24-.36.46-.72.67-1.1s.34-.62.49-.94.21-.44.3-.67.21-.48.3-.73a16.17 16.17 0 0 1 -15.96 14.37z"></path><path d="m61.4 20a1.33 1.33 0 0 0 -.94-.39l-17.46-.02a1.34 1.34 0 0 0 -1.33 1.33v17.91a1.34 1.34 0 0 0 1.33 1.33h3.94a14.91 14.91 0 0 0 14.81-14.89v-4.31a1.31 1.31 0 0 0 -.35-.96zm-.65 5.25a13.9 13.9 0 0 1 -13.89 13.91h-3.94a.33.33 0 0 1 -.33-.33v-17.91a.33.33 0 0 1 .33-.33h17.51a.31.31 0 0 1 .32.32z"></path><path d="m43.31 13.85h1v3.38h-1z"></path><path d="m45.56 13.85h1v3.38h-1z"></path><path d="m47.81 13.85h1v3.38h-1z"></path><path d="m50.06 13.85h1v3.38h-1z"></path><path d="m52.31 13.85h1v3.38h-1z"></path><path d="m54.56 13.85h1v3.38h-1z"></path><path d="m56.81 13.85h1v3.38h-1z"></path><path d="m59.06 13.85h1v3.38h-1z"></path><path d="m.5 28.05h3.38v1h-3.38z"></path><path d="m.5 25.8h3.38v1h-3.38z"></path><path d="m.5 23.55h3.38v1h-3.38z"></path><path d="m.5 21.3h3.38v1h-3.38z"></path><path d="m.5 19.05h3.38v1h-3.38z"></path><path d="m.5 16.8h3.38v1h-3.38z"></path></g><path d="m56.25 30.3c-.88-1.12-3.09-.75-5.14.85a7.25 7.25 0 0 0 -2 2.42 2.21 2.21 0 0 0 0 2.37 1.86 1.86 0 0 0 1.54.65 3.58 3.58 0 0 0 .77-.09 7.19 7.19 0 0 0 2.84-1.41 5.41 5.41 0 0 0 2.39-3.74 1.67 1.67 0 0 0 -.4-1.05z" fill="#758696"></path><path d="m6.12 34.66h1.13v1h-1.13z" fill="#2b353e"></path><path d="m8.67 34.66h3.38v1h-3.38z" fill="#2b353e"></path><path d="m6.12 36.91h1.13v1h-1.13z" fill="#2b353e"></path><path d="m6.12 39.16h1.13v1h-1.13z" fill="#2b353e"></path><path d="m8.74 36.91v3.25h3.26v-3.25zm2.26 2.25h-1.26v-1.25h1.26z" fill="#2b353e"></path><path d="m30.08 20.17h-6.75a1.63 1.63 0 0 0 0 3.25h6.75a1.63 1.63 0 1 0 0-3.25zm0 2.25h-6.75a.63.63 0 0 1 0-1.25h6.75a.63.63 0 1 1 0 1.25z" fill="#2b353e"></path><path d="m40.38 32.84v5.69h-1v-5.69a1.47 1.47 0 0 0 -1.47-1.47h-1.42a11.74 11.74 0 0 1 -19.78 0h-14.24a1.47 1.47 0 0 0 -1.47 1.47v5.69h-1v-5.69a2.42 2.42 0 0 1 1-2 2.37 2.37 0 0 1 1.47-.5h14.8l.15.24a10.74 10.74 0 0 0 18.36 0l.14-.24h2a2.37 2.37 0 0 1 1.47.5 2.42 2.42 0 0 1 .99 2z" fill="#2b353e"></path><path d="m26.6 15a10.06 10.06 0 0 0 -3.76 19.39l.33.13.67.24v-7.36h5.75v7.27l.34-.14.34-.13.32-.14a10.06 10.06 0 0 0 -3.99-19.26zm4 18.2v-6.8h-7.76v6.88a9.06 9.06 0 1 1 7.75-.11z" fill="#2b353e"></path><path d="m26.6 16.66a8.37 8.37 0 0 0 -3.76 15.85l.29.14.35.16.36.17v-5.58h5.75v5.49l.72-.35.16-.08.12-.07a8.29 8.29 0 0 0 4.41-7.39 8.38 8.38 0 0 0 -8.4-8.34zm4 14.57v-4.83h-7.76v5a7.37 7.37 0 1 1 11.16-6.4 7.29 7.29 0 0 1 -3.41 6.23z" fill="#2b353e"></path><path d="m22.84 26.4v6.12l.29.13.35.16.36.13c.22.08.44.14.66.2l.33.08.33.06h.08c.23 0 .45.06.68.08s.45 0 .68 0a6.28 6.28 0 0 0 .75 0 7.05 7.05 0 0 0 1.51-.28 6.4 6.4 0 0 0 .62-.2h.11a6.51 6.51 0 0 0 .72-.31l.16-.07.12-.06v-6zm6.75 5.37-.12.05c-.13.05-.26.11-.4.15a4 4 0 0 1 -.81.24 7.23 7.23 0 0 1 -2.07.18h-.37a2.9 2.9 0 0 1 -.41-.06l-.41-.09-.38-.1-.32-.09a4.68 4.68 0 0 1 -.48-.18v-4.47h5.75z" fill="#2b353e"></path><path d="m29.47 31.82c-.13.05-.26.11-.4.15a5.78 5.78 0 0 1 -.81.24 7.23 7.23 0 0 1 -2.07.18h-.37a2.9 2.9 0 0 1 -.41-.06l-.41-.09-.38-.1-.32-.09a4.68 4.68 0 0 1 -.48-.18v1.07c.22.08.44.14.66.2l.33.08.33.06h.08c.23 0 .45.06.68.08a9.76 9.76 0 0 0 1.43 0 8.72 8.72 0 0 0 1.51-.28 6.4 6.4 0 0 0 .62-.2h.11v-1.11zm0 0c-.13.05-.26.11-.4.15a5.78 5.78 0 0 1 -.81.24 7.23 7.23 0 0 1 -2.07.18h-.37a2.9 2.9 0 0 1 -.41-.06l-.41-.09-.38-.1-.32-.09a4.68 4.68 0 0 1 -.48-.18v1.07c.22.08.44.14.66.2l.33.08.33.06h.08c.23 0 .45.06.68.08a9.76 9.76 0 0 0 1.43 0 8.72 8.72 0 0 0 1.51-.28 6.4 6.4 0 0 0 .62-.2h.11v-1.11zm.39-.18-.27.12-.12.05c-.13.05-.26.11-.4.15a5.78 5.78 0 0 1 -.81.24 7.23 7.23 0 0 1 -2.07.18h-.37a2.9 2.9 0 0 1 -.41-.06l-.41-.08-.38-.1-.32-.09a4.68 4.68 0 0 1 -.48-.18l-.29-.12-.71-.33v2.95l.33.12c.22.08.45.15.67.21a9.55 9.55 0 0 0 2.76.4 9.69 9.69 0 0 0 3-.47l.34-.1.34-.13.32-.13v-3zm-.27 1.94a9.05 9.05 0 0 1 -5.75.08v-.72c.22.08.44.14.66.2l.33.08.33.06h.08c.23 0 .45.06.68.08a9.76 9.76 0 0 0 1.43 0 8.72 8.72 0 0 0 1.51-.28 6.4 6.4 0 0 0 .62-.2h.11zm-.12-1.76c-.13.05-.26.11-.4.15a5.78 5.78 0 0 1 -.81.24 7.23 7.23 0 0 1 -2.07.18h-.37a2.9 2.9 0 0 1 -.41-.06l-.41-.09-.38-.1-.32-.09a4.68 4.68 0 0 1 -.48-.18v1.07c.22.08.44.14.66.2l.33.08.33.06h.08c.23 0 .45.06.68.08a9.76 9.76 0 0 0 1.43 0 8.72 8.72 0 0 0 1.51-.28 6.4 6.4 0 0 0 .62-.2h.11v-1.11zm0 0c-.13.05-.26.11-.4.15a5.78 5.78 0 0 1 -.81.24 7.23 7.23 0 0 1 -2.07.18h-.37a2.9 2.9 0 0 1 -.41-.06l-.41-.09-.38-.1-.32-.09a4.68 4.68 0 0 1 -.48-.18v1.07c.22.08.44.14.66.2l.33.08.33.06h.08c.23 0 .45.06.68.08a9.76 9.76 0 0 0 1.43 0 8.72 8.72 0 0 0 1.51-.28 6.4 6.4 0 0 0 .62-.2h.11v-1.11z" fill="#2b353e"></path><path d="m39.38 39.69v-.64a2.36 2.36 0 0 1 -2.38 2.36h2.4a3 3 0 0 0 .33-.38 2.73 2.73 0 0 1 -.35-1.34zm0 0v-.64a2.36 2.36 0 0 1 -2.38 2.36h2.4a3 3 0 0 0 .33-.38 2.73 2.73 0 0 1 -.35-1.34zm0 0v-.64a2.36 2.36 0 0 1 -2.38 2.36h2.4a3 3 0 0 0 .33-.38 2.73 2.73 0 0 1 -.35-1.34zm0 0v-.64a2.36 2.36 0 0 1 -2.38 2.36h2.4a3 3 0 0 0 .33-.38 2.73 2.73 0 0 1 -.35-1.34zm0 0v-.64a2.36 2.36 0 0 1 -2.38 2.36h2.4a3 3 0 0 0 .33-.38 2.73 2.73 0 0 1 -.35-1.34zm0 0v-.64a2.36 2.36 0 0 1 -2.38 2.36h2.4a3 3 0 0 0 .33-.38 2.73 2.73 0 0 1 -.35-1.34zm.35-25a3.35 3.35 0 0 0 -2.73-1.41h-33.64a3.37 3.37 0 0 0 -3.36 3.36v22.41a3.36 3.36 0 0 0 1.23 2.59 1.35 1.35 0 0 0 .27.2 2.86 2.86 0 0 0 .42.24 4.22 4.22 0 0 0 .45.18 3.25 3.25 0 0 0 1 .15h33.63.34.2a1.86 1.86 0 0 0 .34-.07 1.13 1.13 0 0 0 .24-.08 1.43 1.43 0 0 0 .34-.14l.17-.09.31-.19a1.25 1.25 0 0 0 .19-.15l.24-.22s0 0 0 0a3 3 0 0 0 .33-.38 3.31 3.31 0 0 0 .65-2v-22.45a3.3 3.3 0 0 0 -.62-1.97zm-.35 24.38a2.36 2.36 0 0 1 -2.38 2.34h-33.64a2.36 2.36 0 0 1 -2.36-2.36v-22.41a2.36 2.36 0 0 1 2.36-2.36h33.64a2.36 2.36 0 0 1 2.36 2.36zm0 .64v-.64a2.36 2.36 0 0 1 -2.38 2.34h2.4a3 3 0 0 0 .33-.38 2.73 2.73 0 0 1 -.35-1.34zm0 0v-.64a2.36 2.36 0 0 1 -2.38 2.34h2.4a3 3 0 0 0 .33-.38 2.73 2.73 0 0 1 -.35-1.34zm0 0v-.64a2.36 2.36 0 0 1 -2.38 2.34h2.4a3 3 0 0 0 .33-.38 2.73 2.73 0 0 1 -.35-1.34zm0 0v-.64a2.36 2.36 0 0 1 -2.38 2.34h2.4a3 3 0 0 0 .33-.38 2.73 2.73 0 0 1 -.35-1.34zm0 0v-.64a2.36 2.36 0 0 1 -2.38 2.34h2.4a3 3 0 0 0 .33-.38 2.73 2.73 0 0 1 -.35-1.34z" fill="#2b353e"></path><path d="m14.11 32.41v9h-1v-8h-8v8h-1v-9z" fill="#758696"></path><path d="m39.38 32.84v6.21a2.36 2.36 0 0 1 -2.38 2.36h-22.89v-9h-10v9h-.75a2.36 2.36 0 0 1 -2.36-2.36v-6.21a1.47 1.47 0 0 1 1.47-1.47h14.24a11.74 11.74 0 0 0 19.78 0h1.42a1.47 1.47 0 0 1 1.47 1.47z" fill="#506070"></path><path d="m37 14.28h-33.64a2.36 2.36 0 0 0 -2.36 2.36v.16h2.88v1h-2.88v1.25h2.88v1h-2.88v1.25h2.88v1h-2.88v1.25h2.88v1h-2.88v1.25h2.88v1h-2.88v1.25h2.88v1h-2.88v1.82a2.37 2.37 0 0 1 1.47-.5h14.8l.15.24a10.74 10.74 0 0 0 18.36 0l.14-.24h2a2.37 2.37 0 0 1 1.47.5v-14.23a2.36 2.36 0 0 0 -2.39-2.36zm-6.43 20-.32.13-.34.13-.34.14a9.69 9.69 0 0 1 -3 .47 9.55 9.55 0 0 1 -2.76-.4l-.67-.24-.33-.12a10.06 10.06 0 1 1 7.75-.1z" fill="#506070"></path><path d="m39.38 38.53v.52h1v-.52zm21.9-25.25h-19.19a2.73 2.73 0 0 0 -2.71 2.72v23.69a2.73 2.73 0 0 0 .35 1.31 4 4 0 0 0 .23.34 1.29 1.29 0 0 0 .16.18 2.4 2.4 0 0 0 .59.46 1.49 1.49 0 0 0 .36.17 1.25 1.25 0 0 0 .25.09 2.29 2.29 0 0 0 .36.07 2.22 2.22 0 0 0 .37 0h4.77.83.13c.25 0 .51 0 .76-.06s.59-.06.88-.11l.75-.13a16.62 16.62 0 0 0 2.53-.71c.27-.1.53-.2.78-.31l.64-.29.6-.3a16.45 16.45 0 0 0 2.48-1.57c.34-.26.66-.53 1-.81l.15-.14.6-.57.57-.59c.17-.19.34-.39.5-.59l.51-.64.45-.63.11-.16c.23-.36.46-.72.67-1.1s.34-.62.49-.94.21-.44.3-.67.21-.48.3-.73a17.15 17.15 0 0 0 1.09-6v-9.26a2.72 2.72 0 0 0 -2.66-2.72zm-14.42 28.13h-4.77a1.71 1.71 0 0 1 -1.71-1.72v-23.69a1.71 1.71 0 0 1 1.71-1.72h19.19a1.72 1.72 0 0 1 1.72 1.72v9.27a16.16 16.16 0 0 1 -16.14 16.14zm-7.48-2.88v.52h1v-.52zm0 0v.52h1v-.52z" fill="#2b353e"></path><path d="m61.28 14.28h-1.22v3h-1v-3h-1.25v3h-1v-3h-1.25v3h-1v-3h-1.25v3h-1v-3h-1.25v3h-1v-3h-1.25v3h-1v-3h-1.25v3h-1v-3h-1.25v3h-1v-3h-1.22a1.71 1.71 0 0 0 -1.71 1.72v23.69a1.71 1.71 0 0 0 1.71 1.72h4.77a16.16 16.16 0 0 0 16.14-16.14v-9.27a1.72 1.72 0 0 0 -1.72-1.72zm.47 11a14.91 14.91 0 0 1 -14.89 14.88h-3.94a1.34 1.34 0 0 1 -1.33-1.33v-17.91a1.34 1.34 0 0 1 1.41-1.33h17.51a1.33 1.33 0 0 1 .94.39 1.31 1.31 0 0 1 .38.94z" fill="#506070"></path><path d="m63 25.27a16.16 16.16 0 0 1 -16.14 16.14h-4.77a1.71 1.71 0 0 1 -1.71-1.72v-.64h-1a2.36 2.36 0 0 1 -2.38 2.36h-33.64a2.36 2.36 0 0 1 -2.36-2.36h-1v4.31a3.37 3.37 0 0 0 3.36 3.36h43.5a17.16 17.16 0 0 0 17.14-17.14v-4.31zm-16.14 20.45h-43.5a2.36 2.36 0 0 1 -2.36-2.36v-1.92l.23.2a1.35 1.35 0 0 0 .27.2 2.86 2.86 0 0 0 .42.24 4.22 4.22 0 0 0 .45.18 3.25 3.25 0 0 0 1 .15h33.63.34.2a1.86 1.86 0 0 0 .34-.07 1.13 1.13 0 0 0 .24-.08 1.43 1.43 0 0 0 .34-.14l.17-.09.31-.19a1.25 1.25 0 0 0 .19-.15l.24-.22s0 0 0 0a3 3 0 0 0 .33-.38 4 4 0 0 0 .23.34 1.29 1.29 0 0 0 .16.18 2.4 2.4 0 0 0 .59.46 1.49 1.49 0 0 0 .36.17 1.25 1.25 0 0 0 .25.09 2.29 2.29 0 0 0 .36.07 2.22 2.22 0 0 0 .37 0h4.77.83.13c.25 0 .51 0 .76-.06s.59-.06.88-.11l.75-.13a16.62 16.62 0 0 0 2.53-.71c.27-.1.53-.2.78-.31l.64-.29.6-.3a16.45 16.45 0 0 0 2.48-1.57c.34-.26.66-.53 1-.81l.15-.14.6-.57.57-.59c.17-.19.34-.39.5-.59l.51-.64.45-.63.11-.16c.24-.36.46-.72.67-1.1s.34-.62.49-.94.21-.44.3-.67.21-.48.3-.73a16.17 16.17 0 0 1 -15.96 14.37z" fill="#2b353e"></path><path d="m62.61 32c-.09.23-.19.45-.3.67s-.32.63-.49.94-.43.74-.67 1.1l-.11.16-.45.63-.51.64c-.16.2-.33.4-.5.59l-.57.59-.6.57-.15.14c-.32.28-.64.55-1 .81a16.45 16.45 0 0 1 -2.48 1.57l-.6.3-.64.29c-.25.11-.51.21-.78.31a16.62 16.62 0 0 1 -2.53.71l-.75.13c-.29 0-.58.08-.88.11s-.51 0-.76.06h-.13-.83-4.79a2.22 2.22 0 0 1 -.37 0 2.29 2.29 0 0 1 -.36-.07 1.25 1.25 0 0 1 -.25-.09 1.49 1.49 0 0 1 -.36-.17 2.4 2.4 0 0 1 -.59-.46 1.29 1.29 0 0 1 -.16-.18 4 4 0 0 1 -.23-.34 3 3 0 0 1 -.33.38s0 0 0 0l-.24.22a1.25 1.25 0 0 1 -.19.15l-.31.19-.17.09a1.43 1.43 0 0 1 -.34.14 1.13 1.13 0 0 1 -.24.08 1.86 1.86 0 0 1 -.34.07h-.2-.34-33.71a3.25 3.25 0 0 1 -1-.15 4.22 4.22 0 0 1 -.45-.18 2.86 2.86 0 0 1 -.42-.24 1.35 1.35 0 0 1 -.27-.2l-.22-.12v1.92a2.36 2.36 0 0 0 2.36 2.36h43.5a16.17 16.17 0 0 0 16-14.43c-.04.25-.14.49-.25.71z" fill="#2b353e"></path><path d="m61.4 20a1.33 1.33 0 0 0 -.94-.39l-17.46-.02a1.34 1.34 0 0 0 -1.33 1.33v17.91a1.34 1.34 0 0 0 1.33 1.33h3.94a14.91 14.91 0 0 0 14.81-14.89v-4.31a1.31 1.31 0 0 0 -.35-.96zm-.65 5.25a13.9 13.9 0 0 1 -13.89 13.91h-3.94a.33.33 0 0 1 -.33-.33v-17.91a.33.33 0 0 1 .33-.33h17.51a.31.31 0 0 1 .32.32z" fill="#2b353e"></path><path d="m60.69 20.72a.33.33 0 0 0 -.23-.09l-17.46-.04a.33.33 0 0 0 -.33.33v17.91a.33.33 0 0 0 .33.33h3.94a13.9 13.9 0 0 0 13.81-13.89v-4.32a.33.33 0 0 0 -.06-.23zm-6.49 14.37a7.19 7.19 0 0 1 -2.84 1.41 3.58 3.58 0 0 1 -.77.09 1.86 1.86 0 0 1 -1.54-.65 2.21 2.21 0 0 1 0-2.37 7.25 7.25 0 0 1 2-2.42c2-1.6 4.26-2 5.14-.85a1.67 1.67 0 0 1 .34 1.05 5.41 5.41 0 0 1 -2.33 3.74z" fill="#506070"></path><path d="m43.31 13.85h1v3.38h-1z" fill="#2b353e"></path><path d="m45.56 13.85h1v3.38h-1z" fill="#2b353e"></path><path d="m47.81 13.85h1v3.38h-1z" fill="#2b353e"></path><path d="m50.06 13.85h1v3.38h-1z" fill="#2b353e"></path><path d="m52.31 13.85h1v3.38h-1z" fill="#2b353e"></path><path d="m54.56 13.85h1v3.38h-1z" fill="#2b353e"></path><path d="m56.81 13.85h1v3.38h-1z" fill="#2b353e"></path><path d="m59.06 13.85h1v3.38h-1z" fill="#2b353e"></path><path d="m.5 28.05h3.38v1h-3.38z" fill="#2b353e"></path><path d="m.5 25.8h3.38v1h-3.38z" fill="#2b353e"></path><path d="m.5 23.55h3.38v1h-3.38z" fill="#2b353e"></path><path d="m.5 21.3h3.38v1h-3.38z" fill="#2b353e"></path><path d="m.5 19.05h3.38v1h-3.38z" fill="#2b353e"></path><path d="m.5 16.8h3.38v1h-3.38z" fill="#2b353e"></path><path d="m44.6 23.11h14v3h-14z" fill="#758696"></path><path d="m5.11 33.41v8h8v-8zm2.14 6.75h-1.13v-1h1.13zm0-2.25h-1.13v-1h1.13zm0-2.25h-1.13v-1h1.13zm4.75 4.5h-3.26v-3.25h3.26zm.06-4.5h-3.39v-1h3.38z" fill="#758696"></path><path d="m6.12 34.66h1.13v1h-1.13z" fill="#2b353e"></path><path d="m8.67 34.66h3.38v1h-3.38z" fill="#2b353e"></path><path d="m6.12 36.91h1.13v1h-1.13z" fill="#2b353e"></path><path d="m6.12 39.16h1.13v1h-1.13z" fill="#2b353e"></path><path d="m8.74 36.91v3.25h3.26v-3.25zm2.26 2.25h-1.26v-1.25h1.26z" fill="#2b353e"></path><path d="m30.08 20.17h-6.75a1.63 1.63 0 0 0 0 3.25h6.75a1.63 1.63 0 1 0 0-3.25zm0 2.25h-6.75a.63.63 0 0 1 0-1.25h6.75a.63.63 0 1 1 0 1.25z" fill="#2b353e"></path><path d="m40.38 32.84v5.69h-1v-5.69a1.47 1.47 0 0 0 -1.47-1.47h-1.42a11.74 11.74 0 0 1 -19.78 0h-14.24a1.47 1.47 0 0 0 -1.47 1.47v5.69h-1v-5.69a2.42 2.42 0 0 1 1-2 2.37 2.37 0 0 1 1.47-.5h14.8l.15.24a10.74 10.74 0 0 0 18.36 0l.14-.24h2a2.37 2.37 0 0 1 1.47.5 2.42 2.42 0 0 1 .99 2z" fill="#2b353e"></path><path d="m26.6 15a10.06 10.06 0 0 0 -3.76 19.39l.33.13.67.24v-7.36h5.75v7.27l.34-.14.34-.13.32-.14a10.06 10.06 0 0 0 -3.99-19.26zm4 18.2v-6.8h-7.76v6.88a9.06 9.06 0 1 1 7.75-.11z" fill="#2b353e"></path><path d="m35.66 25a9.14 9.14 0 0 1 -5.07 8.14v-.78a8.29 8.29 0 0 0 4.41-7.36 8.38 8.38 0 1 0 -12.13 7.48v.77a9.06 9.06 0 1 1 12.79-8.25z" fill="#506070"></path><path d="m26.6 16.66a8.37 8.37 0 0 0 -3.76 15.85l.29.14.35.16.36.17v-5.58h5.75v5.49l.72-.35.16-.08.12-.07a8.29 8.29 0 0 0 4.41-7.39 8.38 8.38 0 0 0 -8.4-8.34zm4 14.57v-4.83h-7.76v5a7.37 7.37 0 1 1 11.16-6.4 7.29 7.29 0 0 1 -3.41 6.23z" fill="#2b353e"></path><path d="m26.6 17.66a7.37 7.37 0 0 0 -3.76 13.72v-5h7.75v4.83a7.29 7.29 0 0 0 3.41-6.21 7.38 7.38 0 0 0 -7.4-7.34zm3.48 5.76h-6.75a1.63 1.63 0 0 1 0-3.25h6.75a1.63 1.63 0 1 1 0 3.25z" fill="#506070"></path><path d="m30.71 21.8a.63.63 0 0 1 -.63.62h-6.75a.63.63 0 0 1 0-1.25h6.75a.63.63 0 0 1 .63.63z" fill="#758696"></path><path d="m22.84 26.4v6.12l.29.13.35.16.36.13c.22.08.44.14.66.2l.33.08.33.06h.08c.23 0 .45.06.68.08s.45 0 .68 0a6.28 6.28 0 0 0 .75 0 7.05 7.05 0 0 0 1.51-.28 6.4 6.4 0 0 0 .62-.2h.11a6.51 6.51 0 0 0 .72-.31l.16-.07.12-.06v-6zm6.75 5.37-.12.05c-.13.05-.26.11-.4.15a4 4 0 0 1 -.81.24 7.23 7.23 0 0 1 -2.07.18h-.37a2.9 2.9 0 0 1 -.41-.06l-.41-.09-.38-.1-.32-.09a4.68 4.68 0 0 1 -.48-.18v-4.47h5.75z" fill="#2b353e"></path><path d="m29.59 27.4v4.37l-.12.05c-.13.05-.26.11-.4.15a5.78 5.78 0 0 1 -.81.24 7.23 7.23 0 0 1 -2.07.18h-.37a2.9 2.9 0 0 1 -.41-.06l-.41-.09-.38-.1-.32-.09a4.68 4.68 0 0 1 -.48-.18v-4.47z" fill="#506070"></path><path d="m29.47 31.82c-.13.05-.26.11-.4.15a5.78 5.78 0 0 1 -.81.24 7.23 7.23 0 0 1 -2.07.18h-.37a2.9 2.9 0 0 1 -.41-.06l-.41-.09-.38-.1-.32-.09a4.68 4.68 0 0 1 -.48-.18v1.07c.22.08.44.14.66.2l.33.08.33.06h.08c.23 0 .45.06.68.08a9.76 9.76 0 0 0 1.43 0 8.72 8.72 0 0 0 1.51-.28 6.4 6.4 0 0 0 .62-.2h.11v-1.11zm0 0c-.13.05-.26.11-.4.15a5.78 5.78 0 0 1 -.81.24 7.23 7.23 0 0 1 -2.07.18h-.37a2.9 2.9 0 0 1 -.41-.06l-.41-.09-.38-.1-.32-.09a4.68 4.68 0 0 1 -.48-.18v1.07c.22.08.44.14.66.2l.33.08.33.06h.08c.23 0 .45.06.68.08a9.76 9.76 0 0 0 1.43 0 8.72 8.72 0 0 0 1.51-.28 6.4 6.4 0 0 0 .62-.2h.11v-1.11zm.39-.18-.27.12-.12.05c-.13.05-.26.11-.4.15a5.78 5.78 0 0 1 -.81.24 7.23 7.23 0 0 1 -2.07.18h-.37a2.9 2.9 0 0 1 -.41-.06l-.41-.08-.38-.1-.32-.09a4.68 4.68 0 0 1 -.48-.18l-.29-.12-.71-.33v2.95l.33.12c.22.08.45.15.67.21a9.55 9.55 0 0 0 2.76.4 9.69 9.69 0 0 0 3-.47l.34-.1.34-.13.32-.13v-3zm-.27 1.94a9.05 9.05 0 0 1 -5.75.08v-.72c.22.08.44.14.66.2l.33.08.33.06h.08c.23 0 .45.06.68.08a9.76 9.76 0 0 0 1.43 0 8.72 8.72 0 0 0 1.51-.28 6.4 6.4 0 0 0 .62-.2h.11zm-.12-1.76c-.13.05-.26.11-.4.15a5.78 5.78 0 0 1 -.81.24 7.23 7.23 0 0 1 -2.07.18h-.37a2.9 2.9 0 0 1 -.41-.06l-.41-.09-.38-.1-.32-.09a4.68 4.68 0 0 1 -.48-.18v1.07c.22.08.44.14.66.2l.33.08.33.06h.08c.23 0 .45.06.68.08a9.76 9.76 0 0 0 1.43 0 8.72 8.72 0 0 0 1.51-.28 6.4 6.4 0 0 0 .62-.2h.11v-1.11zm0 0c-.13.05-.26.11-.4.15a5.78 5.78 0 0 1 -.81.24 7.23 7.23 0 0 1 -2.07.18h-.37a2.9 2.9 0 0 1 -.41-.06l-.41-.09-.38-.1-.32-.09a4.68 4.68 0 0 1 -.48-.18v1.07c.22.08.44.14.66.2l.33.08.33.06h.08c.23 0 .45.06.68.08a9.76 9.76 0 0 0 1.43 0 8.72 8.72 0 0 0 1.51-.28 6.4 6.4 0 0 0 .62-.2h.11v-1.11z" fill="#2b353e"></path><path d="m29.59 32.85v.73a9.05 9.05 0 0 1 -5.75.08v-.72c.22.08.44.14.66.2l.33.08.33.06h.08c.23 0 .45.06.68.08s.45 0 .68 0a6.28 6.28 0 0 0 .75 0 7.05 7.05 0 0 0 1.51-.28 6.4 6.4 0 0 0 .62-.2z" fill="#dd3624"></path></svg>