<svg enable-background="new 0 0 512 512" viewBox="0 0 512 512" xmlns="http://www.w3.org/2000/svg" id="fi_11895028"><g id="guides"></g><g id="icon"><path d="m376 128h-240c-66.168 0-120 53.832-120 120v24c0 66.168 53.832 120 120 120 26.072 0 51.297-8.464 71.997-24h96.006c20.7 15.536 45.925 24 71.997 24 66.168 0 120-53.832 120-120v-24c0-66.168-53.832-120-120-120z" fill="#231f20"></path><path d="m40 272c0 53.019 42.981 96 96 96 24.344 0 46.567-9.066 63.49-24h113.02c16.923 14.934 39.146 24 63.49 24 53.019 0 96-42.981 96-96v-24h-432z" fill="#bdbecb"></path><path d="m376 152h-240c-53.019 0-96 42.981-96 96s42.981 96 96 96c24.344 0 46.567-9.066 63.49-24h113.02c16.923 14.934 39.146 24 63.49 24 53.019 0 96-42.981 96-96s-42.981-96-96-96z" fill="#dad9e2"></path><g><path d="m376 344c-24.344 0-46.567-9.066-63.49-24h-113.02c-16.923 14.934-39.146 24-63.49 24-51.679 0-93.813-40.837-95.911-92-.054 1.327-.089 2.659-.089 4 0 53.019 42.981 96 96 96 24.344 0 46.567-9.066 63.49-24h113.02c16.923 14.934 39.146 24 63.49 24 53.019 0 96-42.981 96-96 0-1.341-.035-2.673-.089-4-2.098 51.163-44.232 92-95.911 92z" fill="#f2f2f2"></path></g><circle cx="136" cy="248" fill="#c7c6d1" r="56"></circle></g><g id="icon_00000016763504815626881790000016428037054234753457_"><circle cx="376" cy="248" fill="#a4a4bc" r="80"></circle><path d="m148 224v-24h-24v24h-24v32h24v24h24v-24h24v-32z" fill="#b8b8c1"></path><g><g><path d="m124 208h24v72h-24z" fill="#45454e"></path><path d="m124 208h24v72h-24z" fill="#45454e" transform="matrix(0 1 -1 0 380 108)"></path><g fill="#36363f"><path d="m124 280h24v8h-24z"></path><path d="m148 256h24v8h-24z"></path><path d="m100 256h24v8h-24z"></path></g></g><g fill="#36363f"><circle cx="136" cy="244" r="4"></circle><path d="m132 224h8l-4-8z"></path><path d="m140 264h-8l4 8z"></path><path d="m156 240v8l8-4z"></path><path d="m116 248v-8l-8 4z"></path></g></g><path d="m359.029 271.029c-9.373 9.373-9.373 24.569 0 33.941 9.373 9.373 24.569 9.373 33.941 0l40-40c9.373-9.373 9.373-24.569 0-33.941-9.373-9.373-24.569-9.373-33.941 0z" fill="#dad9e2"></path><path d="m208 168-8 16h104l8-16z" fill="#a4a4bc"></path><g><g><path d="m231.105 269.126-16.311 16.311c-1.501 1.501-1.501 3.936 0 5.437s3.936 1.501 5.437 0l16.311-16.311c1.501-1.501 1.501-3.936 0-5.437s-3.936-1.501-5.437 0z" fill="#b8b8c1"></path></g><g><path d="m231.105 273.126-16.311 16.311c-1.501 1.501-1.501 3.936 0 5.437s3.936 1.501 5.437 0l16.311-16.311c1.501-1.501 1.501-3.936 0-5.437s-3.936-1.501-5.437 0z" fill="#45454e"></path></g></g><g><g><path d="m271.105 269.126-16.311 16.311c-1.501 1.501-1.501 3.936 0 5.437s3.936 1.501 5.437 0l16.311-16.311c1.501-1.501 1.501-3.936 0-5.437s-3.936-1.501-5.437 0z" fill="#b8b8c1"></path></g><g><path d="m271.105 273.126-16.311 16.311c-1.501 1.501-1.501 3.936 0 5.437s3.936 1.501 5.437 0l16.311-16.311c1.501-1.501 1.501-3.936 0-5.437s-3.936-1.501-5.437 0z" fill="#45454e"></path></g></g><g><path d="m360 288c0 8.837 7.163 16 16 16s16-7.163 16-16v-8h-32z" fill="#4c237e"></path><circle cx="376" cy="280" fill="#7655aa" r="16"></circle></g><g><path d="m400 248c0 8.837 7.163 16 16 16s16-7.163 16-16v-8h-32z" fill="#4c237e"></path><circle cx="416" cy="240" fill="#7655aa" r="16"></circle></g><path d="m319.029 231.029c-9.373 9.373-9.373 24.569 0 33.941 9.373 9.373 24.569 9.373 33.941 0l40-40c9.373-9.373 9.373-24.569 0-33.941-9.373-9.373-24.569-9.373-33.941 0z" fill="#dad9e2"></path><g><path d="m320 248c0 8.837 7.163 16 16 16s16-7.163 16-16v-8h-32z" fill="#9a94d1"></path><circle cx="336" cy="240" fill="#aea9dc" r="16"></circle></g><g><path d="m360 208c0 8.837 7.163 16 16 16s16-7.163 16-16v-8h-32z" fill="#9a94d1"></path><circle cx="376" cy="200" fill="#aea9dc" r="16"></circle></g><g fill="#a4a4bc"><path d="m209.125 310.276c.062-.322.035-.563-.08-.726-.116-.16-.352-.337-.706-.529-.654-.267-1.13-.585-1.429-.955-.297-.369-.388-.849-.271-1.438.117-.586.396-1.039.835-1.359.439-.321.962-.481 1.567-.481.645 0 1.143.195 1.494.585.352.391.454.921.308 1.591l-.01.024h-1.343c.065-.333.036-.599-.088-.796s-.317-.296-.581-.296c-.176 0-.344.07-.503.211-.159.14-.259.31-.298.509-.062.307-.027.535.103.686.13.149.417.334.859.553.603.251 1.037.562 1.304.933s.339.864.215 1.479c-.124.608-.402 1.067-.835 1.374-.433.309-.955.462-1.567.462-.632 0-1.16-.177-1.584-.53-.426-.353-.557-.9-.394-1.643l.01-.024h1.343c-.085.413-.038.698.139.854.178.156.413.234.706.234.169 0 .335-.069.498-.207.163-.139.266-.308.308-.511z"></path><path d="m215.396 308.88h-2.246l-.405 2.012h2.646l-.22 1.108h-4.028l1.421-7.109h4.019l-.22 1.108h-2.642l-.352 1.772h2.246z"></path><path d="m217.735 310.892h2.451l-.22 1.108h-3.833l1.421-7.109h1.382z"></path><path d="m225.163 308.88h-2.246l-.405 2.012h2.646l-.22 1.108h-4.028l1.421-7.109h4.019l-.22 1.108h-2.642l-.352 1.772h2.246z"></path><path d="m230.833 309.582.01.029c-.195.817-.501 1.437-.918 1.858s-.974.633-1.67.633c-.671 0-1.202-.281-1.594-.845-.393-.563-.504-1.267-.335-2.109l.283-1.416c.186-.94.516-1.667.991-2.178s1.055-.767 1.738-.767c.693 0 1.223.23 1.587.69s.496 1.086.396 1.879h-1.372c.078-.481.062-.846-.052-1.092-.111-.246-.342-.369-.69-.369-.267 0-.511.168-.732.504-.222.335-.386.775-.493 1.319l-.283 1.427c-.12.583-.124 1.037-.01 1.361s.334.486.659.486c.29 0 .524-.113.703-.34s.329-.584.449-1.072h1.333z"></path><path d="m236.483 305.999h-1.504l-1.196 6.001h-1.372l1.196-6.001h-1.484l.22-1.108h4.36z"></path></g><g fill="#a4a4bc"><path d="m257.125 310.276c.062-.322.035-.563-.08-.726-.116-.16-.352-.337-.706-.529-.654-.267-1.13-.585-1.429-.955-.297-.369-.388-.849-.271-1.438.117-.586.396-1.039.835-1.359.439-.321.962-.481 1.567-.481.645 0 1.143.195 1.494.585.352.391.454.921.308 1.591l-.01.024h-1.343c.065-.333.036-.599-.088-.796s-.317-.296-.581-.296c-.176 0-.344.07-.503.211-.159.14-.259.31-.298.509-.062.307-.027.535.103.686.13.149.417.334.859.553.603.251 1.037.562 1.304.933s.339.864.215 1.479c-.124.608-.402 1.067-.835 1.374-.433.309-.955.462-1.567.462-.632 0-1.16-.177-1.584-.53-.426-.353-.557-.9-.394-1.643l.01-.024h1.343c-.085.413-.038.698.139.854.178.156.413.234.706.234.169 0 .335-.069.498-.207.163-.139.266-.308.308-.511z"></path><path d="m264.338 305.999h-1.504l-1.196 6.001h-1.372l1.196-6.001h-1.484l.22-1.108h4.36z"></path><path d="m267.01 310.481h-1.714l-.664 1.519h-1.387l3.315-7.109h1.431l.469 7.109h-1.387zm-1.226-1.108h1.182l-.093-2.397-.029-.005z"></path><path d="m271.215 309.173-.567 2.827h-1.377l1.421-7.104h2.231c.625 0 1.102.188 1.431.563.329.377.43.887.303 1.531-.081.4-.227.73-.438.988-.209.26-.485.467-.827.623.31.13.517.341.622.633.106.291.118.64.037 1.047l-.098.503c-.042.208-.063.421-.063.638 0 .216.044.375.132.476l-.02.103h-1.426c-.088-.101-.123-.264-.105-.488.019-.225.054-.471.105-.737l.098-.483c.075-.378.066-.658-.027-.842-.092-.185-.264-.276-.515-.276h-.917zm.22-1.109h.85c.234 0 .44-.088.617-.264.178-.176.299-.42.364-.732.068-.345.056-.608-.036-.791-.094-.183-.269-.273-.525-.273h-.854z"></path><path d="m279.78 305.999h-1.504l-1.196 6.001h-1.372l1.196-6.001h-1.484l.22-1.108h4.36z"></path></g><g fill="#dad9e2"><path d="m311.987 270.964.024.005 1.68-2.969h1.499l-2.847 4.585-.503 2.524h-1.372l.527-2.632-.995-4.477h1.504z"></path><path d="m401.223 185.48.029.005 1.274-2.485h1.592l-2.192 3.525 1.167 3.584h-1.66l-.493-2.534-.029-.005-1.309 2.539h-1.602l2.236-3.584-1.06-3.525h1.582z"></path><path d="m346.654 312 1.421-7.109h2.021c.661 0 1.166.166 1.517.498.35.332.463.813.339 1.445-.075.358-.208.665-.397.92-.191.256-.44.445-.75.569.339.091.561.282.666.573.106.292.122.635.047 1.028-.146.726-.436 1.253-.867 1.582s-1.003.493-1.716.493h-2.281zm2.006-3.135-.405 2.026h.898c.251 0 .462-.082.635-.247.173-.164.291-.405.356-.725.071-.361.071-.627-.003-.799-.072-.17-.236-.256-.49-.256h-.991zm.196-.971h.688c.247-.007.46-.091.637-.252.178-.162.298-.388.359-.678.068-.356.049-.605-.059-.749s-.31-.216-.605-.216h-.64z"></path><path d="m438.55 222.481h-1.714l-.664 1.519h-1.387l3.315-7.109h1.431l.469 7.109h-1.387zm-1.226-1.108h1.182l-.093-2.397-.029-.005z"></path></g></g></svg>