<svg id="fi_2329225" enable-background="new 0 0 64 64" height="512" viewBox="0 0 64 64" width="512" xmlns="http://www.w3.org/2000/svg"><g><g><g><path d="m25 55h-10v-7h10z" fill="#f0bc5e"></path></g></g><g><g><path d="m10 31c-1.654 0-3-1.346-3-3s1.346-3 3-3 3 1.346 3 3-1.346 3-3 3z" fill="#f0bc5e"></path></g></g><g><g><path d="m18 31c-1.654 0-3-1.346-3-3s1.346-3 3-3 3 1.346 3 3-1.346 3-3 3z" fill="#f0bc5e"></path></g></g><g><g><path d="m57 31h-8v-6h8z" fill="#f0bc5e"></path></g></g><g><path d="m47 6h4v12h-4z" fill="#f0bc5e"></path></g><g><path d="m8 51v3h-3v2h3v3h2v-3h3v-2h-3v-3z"></path><path d="m30 51h2v2h-2z"></path><path d="m30 57h2v2h-2z"></path><path d="m33 54h2v2h-2z"></path><path d="m27 54h2v2h-2z"></path><path d="m60 1h-56c-1.654 0-3 1.346-3 3v28c0 1.654 1.346 3 3 3h36v2h3v1c0 .551-.449 1-1 1h-38c-1.654 0-3 1.346-3 3s1.346 3 3 3h14c.551 0 1 .449 1 1v1h-10c-4.411 0-8 3.589-8 8s3.589 8 8 8c2.85 0 5.5-1.551 6.92-4h8.16c1.42 2.449 4.07 4 6.92 4 4.411 0 8-3.589 8-8s-3.589-8-8-8h-10v-1c0-1.654-1.346-3-3-3h-14c-.551 0-1-.449-1-1s.449-1 1-1h38c1.654 0 3-1.346 3-3v-1h3v-2h12c1.654 0 3-1.346 3-3v-28c0-1.654-1.346-3-3-3zm-23 54c0 3.309-2.691 6-6 6-2.297 0-4.423-1.346-5.415-3.43l-.271-.57h-10.628l-.271.57c-.992 2.084-3.118 3.43-5.415 3.43-3.309 0-6-2.691-6-6s2.691-6 6-6h22c3.309 0 6 2.691 6 6zm24-51v7h-6v-8h5c.551 0 1 .449 1 1zm-52 9h28v4h-28zm30 6v-6h4v8h-40v-8h4v6zm6-16h8v18h-8zm10 10h6v8h-6zm-51-10h39v8h-40v-7c0-.551.449-1 1-1zm42 32h-4v-4c0-1.103.897-2 2-2s2 .897 2 2zm14-2h-12v-2c0-2.206-1.794-4-4-4s-4 1.794-4 4v2h-36c-.551 0-1-.449-1-1v-9h58v9c0 .551-.449 1-1 1z"></path><path d="m47 5h4v2h-4z"></path><path d="m47 9h4v2h-4z"></path><path d="m47 13h4v2h-4z"></path><path d="m47 17h4v2h-4z"></path></g></g></svg>