<svg height="496pt" viewBox="0 -68 496 496" width="496pt" xmlns="http://www.w3.org/2000/svg" id="fi_1281152"><g fill="#57a4ff"><path d="m8 352h480v-240h-480zm24-208h432v176h-432zm0 0"></path><path d="m128 176h-32v40h-40v32h40v40h32v-40h40v-32h-40zm0 0"></path><path d="m192 312h112v-56h-112zm64-32c0-4.417969 3.582031-8 8-8h16c4.417969 0 8 3.582031 8 8v8c0 4.417969-3.582031 8-8 8h-16c-4.417969 0-8-3.582031-8-8zm-48 0c0-4.417969 3.582031-8 8-8h16c4.417969 0 8 3.582031 8 8v8c0 4.417969-3.582031 8-8 8h-16c-4.417969 0-8-3.582031-8-8zm0 0"></path><path d="m192 144h112v32h-112zm0 0"></path><path d="m192 200h112v32h-112zm0 0"></path><path d="m368 272c0 8.835938-7.164062 16-16 16s-16-7.164062-16-16 7.164062-16 16-16 16 7.164062 16 16zm0 0"></path><path d="m432 272c0 8.835938-7.164062 16-16 16s-16-7.164062-16-16 7.164062-16 16-16 16 7.164062 16 16zm0 0"></path><path d="m216 272h16c4.417969 0 8 3.582031 8 8v8c0 4.417969-3.582031 8-8 8h-16c-4.417969 0-8-3.582031-8-8v-8c0-4.417969 3.582031-8 8-8zm0 0"></path><path d="m264 272h16c4.417969 0 8 3.582031 8 8v8c0 4.417969-3.582031 8-8 8h-16c-4.417969 0-8-3.582031-8-8v-8c0-4.417969 3.582031-8 8-8zm0 0"></path></g><path d="m488 104h-232v-16c0-8.835938-7.164062-16-16-16h-56v-16h144c8.835938 0 16-7.164062 16-16v-24c0-8.835938-7.164062-16-16-16h-320c-4.417969 0-8 3.582031-8 8s3.582031 8 8 8h320v24h-144c-8.835938 0-16 7.164062-16 16v16c0 8.835938 7.164062 16 16 16h56v16h-232c-4.417969 0-8 3.582031-8 8v240c0 4.417969 3.582031 8 8 8h480c4.417969 0 8-3.582031 8-8v-240c0-4.417969-3.582031-8-8-8zm-8 240h-464v-224h464zm0 0" fill="#004fac"></path><path d="m168 208h-32v-32c0-4.417969-3.582031-8-8-8h-32c-4.417969 0-8 3.582031-8 8v32h-32c-4.417969 0-8 3.582031-8 8v32c0 4.417969 3.582031 8 8 8h32v32c0 4.417969 3.582031 8 8 8h32c4.417969 0 8-3.582031 8-8v-32h32c4.417969 0 8-3.582031 8-8v-32c0-4.417969-3.582031-8-8-8zm-8 32h-32c-4.417969 0-8 3.582031-8 8v32h-16v-32c0-4.417969-3.582031-8-8-8h-32v-16h32c4.417969 0 8-3.582031 8-8v-32h16v32c0 4.417969 3.582031 8 8 8h32zm0 0" fill="#004fac"></path><path d="m32 328h432c4.417969 0 8-3.582031 8-8v-176c0-4.417969-3.582031-8-8-8h-432c-4.417969 0-8 3.582031-8 8v176c0 4.417969 3.582031 8 8 8zm168-24v-40h96v40zm96-152v16h-96v-16zm-256 0h144v24c0 4.417969 3.582031 8 8 8h112c4.417969 0 8-3.582031 8-8v-24h144v160h-144v-56c0-4.417969-3.582031-8-8-8h-112c-4.417969 0-8 3.582031-8 8v56h-144zm0 0" fill="#004fac"></path><path d="m192 240h112c4.417969 0 8-3.582031 8-8v-32c0-4.417969-3.582031-8-8-8h-112c-4.417969 0-8 3.582031-8 8v32c0 4.417969 3.582031 8 8 8zm8-32h96v16h-96zm0 0" fill="#004fac"></path><path d="m352 248c-13.253906 0-24 10.746094-24 24s10.746094 24 24 24 24-10.746094 24-24-10.746094-24-24-24zm0 32c-4.417969 0-8-3.582031-8-8s3.582031-8 8-8 8 3.582031 8 8-3.582031 8-8 8zm0 0" fill="#004fac"></path><path d="m416 248c-13.253906 0-24 10.746094-24 24s10.746094 24 24 24 24-10.746094 24-24-10.746094-24-24-24zm0 32c-4.417969 0-8-3.582031-8-8s3.582031-8 8-8 8 3.582031 8 8-3.582031 8-8 8zm0 0" fill="#004fac"></path><path d="m216 272h16c4.417969 0 8 3.582031 8 8v8c0 4.417969-3.582031 8-8 8h-16c-4.417969 0-8-3.582031-8-8v-8c0-4.417969 3.582031-8 8-8zm0 0" fill="#004fac"></path><path d="m264 272h16c4.417969 0 8 3.582031 8 8v8c0 4.417969-3.582031 8-8 8h-16c-4.417969 0-8-3.582031-8-8v-8c0-4.417969 3.582031-8 8-8zm0 0" fill="#004fac"></path><path d="m328 224h112c4.417969 0 8-3.582031 8-8s-3.582031-8-8-8h-112c-4.417969 0-8 3.582031-8 8s3.582031 8 8 8zm0 0" fill="#004fac"></path></svg>