<svg version="1.1" id="fi_1030175" xmlns="http://www.w3.org/2000/svg" xmlns:xlink="http://www.w3.org/1999/xlink" x="0px" y="0px" viewBox="0 0 512.001 512.001" style="enable-background:new 0 0 512.001 512.001;" xml:space="preserve">
<path style="fill:#3A6682;" d="M359.865,238.743h-2.12c-21.055,0-38.184,17.129-38.184,38.184v156.85v24.244v13.711
	c0,5.662-4.606,10.269-10.269,10.269h-36.195c-8.284,0-15,6.716-15,15s6.716,15,15,15h36.195c22.204,0,40.269-18.064,40.269-40.269
	v-0.082c27.674-5.936,48.488-30.577,48.488-59.997V276.927C398.048,255.873,380.918,238.743,359.865,238.743z M368.048,411.652
	c0,12.708-7.597,23.676-18.488,28.601v-6.476v-156.85c0-4.513,3.671-8.184,8.184-8.184h2.12c4.513,0,8.184,3.671,8.184,8.184
	V411.652L368.048,411.652z"></path>
    <path style="fill:#F5F5F5;" d="M273.097,0H128.952c-8.284,0-15,6.716-15,15v417.908h174.145V15C288.097,6.716,281.381,0,273.097,0z"></path>
    <g>
	<path style="fill:#A7D2E3;" d="M113.952,432.908V497c0,8.284,6.716,15,15,15h144.145c8.284,0,15-6.716,15-15v-64.092H113.952z"></path>
        <path style="fill:#A7D2E3;" d="M273.097,0h-72.072v432.908h87.072V15C288.097,6.716,281.381,0,273.097,0z"></path>
</g>
    <path style="fill:#5792AB;" d="M201.024,432.908V512h72.072c8.284,0,15-6.716,15-15v-64.092H201.024z"></path>
    <g>
	<path style="fill:#477985;" d="M220.277,128.564h-4.253v-4.253c0-8.284-6.716-15-15-15s-15,6.716-15,15v4.253h-4.253
		c-8.284,0-15,6.716-15,15s6.716,15,15,15h4.253v4.253c0,8.284,6.716,15,15,15s15-6.716,15-15v-4.253h4.253c8.284,0,15-6.716,15-15
		S228.562,128.564,220.277,128.564z"></path>
        <path style="fill:#477985;" d="M201.024,408.478c-8.284,0-15-6.716-15-15v-17.637c0-8.284,6.716-15,15-15s15,6.716,15,15v17.637
		C216.024,401.762,209.309,408.478,201.024,408.478z"></path>
</g>
    <circle style="fill:#FF0059;" cx="173.16" cy="68.938" r="15"></circle>
    <circle style="fill:#D10042;" cx="228.89" cy="68.938" r="15"></circle>
    <g>
	<path style="fill:#26384A;" d="M220.277,128.564h-4.253v-4.253c0-8.284-6.716-15-15-15v68.506c8.284,0,15-6.716,15-15v-4.253h4.253
		c8.284,0,15-6.716,15-15S228.562,128.564,220.277,128.564z"></path>
        <path style="fill:#26384A;" d="M201.024,360.841v47.637c8.284,0,15-6.716,15-15v-17.637
		C216.024,367.557,209.309,360.841,201.024,360.841z"></path>
</g>
    <g>
</g>
    <g>
</g>
    <g>
</g>
    <g>
</g>
    <g>
</g>
    <g>
</g>
    <g>
</g>
    <g>
</g>
    <g>
</g>
    <g>
</g>
    <g>
</g>
    <g>
</g>
    <g>
</g>
    <g>
</g>
    <g>
</g>
</svg>