<svg version="1.1" id="fi_336219" xmlns="http://www.w3.org/2000/svg" xmlns:xlink="http://www.w3.org/1999/xlink" x="0px" y="0px" viewBox="0 0 512 512" style="enable-background:new 0 0 512 512;" xml:space="preserve">
<circle style="fill:#F4F4F4;" cx="256" cy="256" r="256"></circle>
    <path d="M112.584,298.264l-23.048-97.088h23.48l7.344,40.048c2.168,11.52,4.176,24.056,5.768,33.856h0.288
	c1.576-10.512,3.88-22.192,6.336-34.144l8.208-39.76h23.336l7.776,40.904c2.168,11.384,3.752,21.752,5.184,32.56h0.288
	c1.44-10.808,3.6-22.184,5.616-33.704l7.92-39.76h22.328l-25.064,97.088h-23.776l-8.2-41.776c-1.872-9.8-3.464-18.864-4.608-29.96
	h-0.288c-1.736,10.944-3.312,20.168-5.616,29.96l-9.216,41.776L112.584,298.264L112.584,298.264z"></path>
    <path d="M246.792,201.176v97.088h-22.04v-97.088H246.792z"></path>
    <path d="M287.832,201.176v97.088h-22.04v-97.088H287.832z"></path>
    <path style="fill:#27AAE1;" d="M357.808,201.176v55.888c0,16.712,6.344,25.208,17.576,25.208c11.52,0,17.856-8.064,17.856-25.208
	v-55.888h21.896v54.456c0,29.96-15.128,44.224-40.48,44.224c-24.496,0-38.896-13.536-38.896-44.512v-54.168H357.808z"></path>
    <g>
</g>
    <g>
</g>
    <g>
</g>
    <g>
</g>
    <g>
</g>
    <g>
</g>
    <g>
</g>
    <g>
</g>
    <g>
</g>
    <g>
</g>
    <g>
</g>
    <g>
</g>
    <g>
</g>
    <g>
</g>
    <g>
</g>
</svg>