<svg id="fi_7148579" enable-background="new 0 0 512 512" height="512" viewBox="0 0 512 512" width="512" xmlns="http://www.w3.org/2000/svg"><g><path d="m396.387 140.387c-28.251 0-59.25 15.83-86.416 34.917-21.547 15.139-39.976 41.892-53.233 54.769-29.972-29.113-90.467-73.17-141.124-73.17-63.751 0-108.107 35.347-108.107 99.097s44.356 108.625 108.106 108.625c50.661 0 110.835-54.298 140.799-83.403 0 0 89.314 77.864 139.975 77.864 63.75.001 115.613-39.336 115.613-103.086s-51.863-115.613-115.613-115.613zm-280.774 184.166c-21.352 0-40.371-12.671-52.456-28.436-8.532-11.13-13.608-25.042-13.608-40.117 0-36.427 29.637-66.065 66.065-66.065 28.524 0 78.55 35.685 109.849 66.065-26.998 22.167-76.769 68.553-109.85 68.553zm280.774-2.488c-33.081 0-78.85-43.898-105.847-66.065 31.298-30.379 77.323-66.065 105.847-66.065 36.427 0 66.065 29.637 66.065 66.065s-29.637 66.065-66.065 66.065z" fill="#7ad7ee"></path><path d="m396.387 173.419c-7.855 0-16.297 1.938-24.949 5.143l24.412 8.615c21.343 0 40.892 12.932 52.978 28.685 8.541 11.133 13.623 25.053 13.623 40.137 0 36.427-29.637 66.065-66.065 66.065-9.179 0-19.333-3.387-29.789-8.743l-10.185 13.325c13.488 7.226 27.021 11.934 39.975 11.934 45.532 0 82.581-37.048 82.581-82.581s-37.049-82.58-82.581-82.58z" fill="#4bc3ef"></path><path d="m115.613 355.097c-54.645 0-99.097-44.452-99.097-99.097s44.452-99.097 99.097-99.097v-10.884c-45.228 0-115.613 46.231-115.613 109.981s51.863 115.613 115.613 115.613c28.015 0 58.6-15.491 85.604-34.364l43.276-57.62c-49.38 47.96-96.356 75.468-128.88 75.468z" fill="#4bc3ef"></path><path d="m384.817 174.668c-22.644-6.3-48.661-7.468-74.846.637-21.576 15.151-40.699 32.328-53.971 45.22l-34.54 35.475c-26.997 22.167-72.766 66.064-105.847 66.064-21.331 0-40.369-10.21-52.456-25.947 15.13 22.125 53.461 44.935 97.622 46.234l40.574-9.328 84.163-82.208c31.299-30.379 77.575-64.724 106.099-64.724z" fill="#77cc7d"></path><path d="m384.817 174.668c-38.624 7.622-85.875 50.154-105.777 69.478l-13.274 12.887 13.209 10.846 11.565-11.879c31.298-30.379 77.323-66.065 105.847-66.065 21.33 0 40.354 10.191 52.441 25.927-11.067-16.307-34.845-33.036-64.011-41.194z" fill="#52bd7e"></path><path d="m256 268.452-11.508 11.177c-29.613 28.763-58.427 50.194-83.713 62.723 13.091.379 26.764-1.129 40.438-5.103 21.907-15.289 41.35-32.725 54.784-45.773l5.095-5.233z" fill="#52bd7e"></path><path d="m377.608 318.204.001-.016c-30.07-11.163-64.896-43.982-87.069-62.188-6.116-5.928-34.54-35.476-34.54-35.476-29.972-29.113-89.73-80.137-140.387-80.137-61.454 0-111.716 48.232-115.268 108.81 6.07-62.708 95.93-73.81 134.047-55.401l.011.071c27.418 10.051 61.962 37.775 87.056 62.133l34.541 35.476c29.964 29.105 89.726 80.137 140.387 80.137 61.454 0 111.716-48.232 115.268-108.81-6.069 62.708-95.93 73.81-134.047 55.401z" fill="#ff7e92"></path></g></svg>