<svg id="fi_11104171" enable-background="new 0 0 64 64" viewBox="0 0 64 64" xmlns="http://www.w3.org/2000/svg"><g id="Android"><path clip-rule="evenodd" d="m45 40c1.7 0 3-1.3 3-3s-1.3-3-3-3-3 1.3-3 3 1.3 3 3 3zm-26 0c1.7 0 3-1.3 3-3s-1.3-3-3-3-3 1.3-3 3 1.3 3 3 3zm43 10c-1-15.6-14.1-28-30-28s-29 12.4-30 28z" fill="#cce490" fill-rule="evenodd"></path><path d="m9.1 12.3c1-.6 2.2-.2 2.7.7l6.2 10.3 2.2 3.3-1.9 1.1c-3.8 2.2-7 5.2-9.5 8.8-.2.4-.3.8-.3 1.2 0 3.5 7 6.3 15.7 6.3 15.5 0 28-4.4 28-9.9 0-1.5-.9-2.9-2.6-4.1h3.6l10 19h-13v3h-50.2l.1-2.1c.7-10.3 6.2-19.2 14.3-24.6l-6-10.3c-.5-.9-.2-2.2.7-2.7z" fill="#3ddc84"></path><path d="m47.9 52h16.1l-.1-2.1c-.7-10.3-6.2-19.2-14.3-24.6l6-10.3c.6-1 .2-2.2-.7-2.7s-2.2-.3-2.8.7l-6.1 10.3c-4.2-2.1-9-3.3-14.1-3.3s-9.9 1.2-14.2 3.3l2 3.4v.1c3.7-1.8 7.8-2.8 12.2-2.8 14.1 0 25.8 10.4 27.7 24h-11.7z" fill="#314a52"></path></g></svg>