<?xml version="1.0" encoding="iso-8859-1"?>
<!-- Generator: Adobe Illustrator 19.0.0, SVG Export Plug-In . SVG Version: 6.00 Build 0)  -->
<svg version="1.1" id="Capa_1" xmlns="http://www.w3.org/2000/svg" xmlns:xlink="http://www.w3.org/1999/xlink" x="0px" y="0px"
	 viewBox="0 0 512 512" style="enable-background:new 0 0 512 512;" xml:space="preserve">
<path style="fill:#4A94CC;" d="M504.5,337.452c0,6.628-5.372,12.001-12.001,12.001H19.501c-6.627,0-12.001-5.372-12.001-12.001
	V174.548c0-6.628,5.373-12.001,12.001-12.001h472.998c6.628,0,12.001,5.372,12.001,12.001V337.452z"/>
<path style="fill:#2884BC;" d="M27.502,337.452V174.548c0-6.629,5.373-12.001,12.001-12.001H19.501
	c-6.627,0-12.001,5.371-12.001,12.001v162.905c0,6.627,5.373,12.001,12.001,12.001h20.001
	C32.875,349.453,27.502,344.08,27.502,337.452z"/>
<path d="M72.551,248.771c-2.761,0-5,2.239-5,5v33.432c0,2.761,2.239,5,5,5h4.457c2.761,0,5-2.239,5-5V263.23h103.283
	c2.761,0,5-2.238,5-5v-33.433c0-2.761-2.239-5-5-5H72.551c-2.761,0-5,2.239-5,5v4.458c0,2.762,2.239,5,5,5h103.283v14.516H72.551z"
	/>
<path d="M326.707,248.771c-2.761,0-5,2.239-5,5v33.432c0,2.761,2.239,5,5,5h4.457c2.761,0,5-2.239,5-5V263.23h103.283
	c2.761,0,5-2.238,5-5v-33.433c0-2.761-2.239-5-5-5H326.707c-2.761,0-5,2.239-5,5v4.458c0,2.762,2.239,5,5,5H429.99v14.516H326.707z"
	/>
<path d="M185.293,292.204h62.19c2.761,0,5-2.239,5-5v-52.947h52.518c2.761,0,5-2.238,5-5v-4.458c0-2.761-2.239-5-5-5h-62.197
	c-2.761,0-5,2.239-5,5v52.948h-52.511c-2.761,0-5,2.239-5,5v4.457C180.293,289.964,182.531,292.204,185.293,292.204z"/>
<path d="M492.499,155.046H273.501c-4.142,0-7.5,3.358-7.5,7.5c0,4.143,3.358,7.5,7.5,7.5h218.997c2.481,0,4.5,2.019,4.5,4.5v67.063
	c0,4.143,3.358,7.5,7.5,7.5s7.5-3.357,7.5-7.5v-67.063C512,163.795,503.251,155.046,492.499,155.046z"/>
<path d="M504.5,269.112c-4.142,0-7.5,3.357-7.5,7.5v60.84c0,2.481-2.019,4.5-4.5,4.5H19.501c-2.481,0-4.5-2.019-4.5-4.5V174.548
	c0-2.481,2.019-4.5,4.5-4.5h218.997c4.142,0,7.5-3.357,7.5-7.5c0-4.142-3.358-7.5-7.5-7.5H19.501C8.749,155.046,0,163.795,0,174.548
	v162.905c0,10.753,8.749,19.501,19.501,19.501h472.998c10.753,0,19.501-8.749,19.501-19.501v-60.84
	C512,272.469,508.642,269.112,504.5,269.112z"/>
<g>
</g>
<g>
</g>
<g>
</g>
<g>
</g>
<g>
</g>
<g>
</g>
<g>
</g>
<g>
</g>
<g>
</g>
<g>
</g>
<g>
</g>
<g>
</g>
<g>
</g>
<g>
</g>
<g>
</g>
</svg>
