<svg height="512pt" viewBox="0 -96 512 512" width="512pt" xmlns="http://www.w3.org/2000/svg" id="fi_1373568"><path d="m111.398438 15h289.199218v289.199219h-289.199218zm0 0" fill="#c5e1e6"></path><path d="m256 15h144.601562v289.199219h-144.601562zm0 0" fill="#8db9c4"></path><path d="m400.601562 319.199219h-289.203124c-8.28125 0-15-6.714844-15-15v-289.199219c0-8.285156 6.71875-15 15-15h289.203124c8.28125 0 15 6.714844 15 15v289.199219c0 8.285156-6.71875 15-15 15zm-274.203124-30h259.199218v-259.199219h-259.199218zm0 0" fill="#3d5959"></path><path d="m400.601562 0h-144.601562v30h129.601562v259.199219h-129.601562v30h144.601562c8.28125 0 15-6.714844 15-15v-289.199219c0-8.285156-6.71875-15-15-15zm0 0" fill="#293939"></path><path d="m111.398438 0h-56.234376c-30.417968 0-55.164062 24.746094-55.164062 55.167969v208.867187c0 30.417969 24.746094 55.164063 55.164062 55.164063h56.234376c8.285156 0 15-6.714844 15-15v-289.199219c0-8.285156-6.714844-15-15-15zm0 0" fill="#00acb3"></path><path d="m456.835938 0h-56.234376c-8.285156 0-15 6.714844-15 15v289.199219c0 8.285156 6.714844 15 15 15h56.234376c30.417968 0 55.164062-24.746094 55.164062-55.164063v-208.867187c0-30.421875-24.746094-55.167969-55.164062-55.167969zm0 0" fill="#f30051"></path><path d="m191.730469 182.632812c-3.835938 0-7.675781-1.464843-10.605469-4.394531-5.855469-5.855469-5.855469-15.351562 0-21.210937l72.300781-72.300782c5.855469-5.859374 15.355469-5.859374 21.214844 0 5.855469 5.855469 5.855469 15.355469 0 21.210938l-72.300781 72.300781c-2.929688 2.929688-6.769532 4.394531-10.609375 4.394531zm0 0" fill="#fef4f5"></path><path d="m247.96875 238.867188c-3.839844 0-7.679688-1.464844-10.609375-4.394532-5.855469-5.855468-5.855469-15.355468 0-21.210937l72.300781-72.300781c5.859375-5.859376 15.355469-5.859376 21.214844 0 5.855469 5.855468 5.855469 15.355468 0 21.210937l-72.300781 72.300781c-2.929688 2.929688-6.769531 4.394532-10.605469 4.394532zm0 0" fill="#fef4f5"></path><path d="m111.398438 127.46875c0 26.617188-21.578126 48.199219-48.199219 48.199219-26.621094 0-48.199219-21.582031-48.199219-48.199219 0-26.621094 21.578125-48.203125 48.199219-48.203125 26.621093 0 48.199219 21.582031 48.199219 48.203125zm0 0" fill="#3d5959"></path><path d="m497 191.734375c0 26.617187-21.582031 48.199219-48.199219 48.199219-26.621093 0-48.203125-21.582032-48.203125-48.199219 0-26.621094 21.582032-48.203125 48.203125-48.203125 26.617188 0 48.199219 21.582031 48.199219 48.203125zm0 0" fill="#293939"></path><g fill="#d5eded"><path d="m274.640625 84.726562c-5.0625-5.0625-12.839844-5.738281-18.640625-2.050781v41.902344l18.640625-18.640625c5.855469-5.855469 5.855469-15.351562 0-21.210938zm0 0"></path><path d="m330.871094 140.960938c-5.855469-5.859376-15.351563-5.859376-21.210938 0l-53.660156 53.660156v41.902344c.910156-.578126 1.777344-1.253907 2.570312-2.050782l72.300782-72.300781c5.859375-5.855469 5.859375-15.355469 0-21.210937zm0 0"></path></g></svg>